<svg width="474" height="1494" viewBox="0 0 474 1494" fill="none" xmlns="http://www.w3.org/2000/svg">
	<rect x="331.5" y="21.4482" width="5" height="42" rx="2.5" transform="rotate(90 331.5 21.4482)" fill="#8C8C8C"/>
	<rect x="181.5" y="21.4482" width="5" height="42" rx="2.5" transform="rotate(90 181.5 21.4482)" fill="#8C8C8C"/>
	<rect x="331.5" y="252.448" width="5" height="42" rx="2.5" transform="rotate(90 331.5 252.448)" fill="#8C8C8C"/>
	<rect x="181.5" y="252.448" width="5" height="42" rx="2.5" transform="rotate(90 181.5 252.448)" fill="#8C8C8C"/>
	<line x1="86.5" y1="0.448242" x2="86.5" y2="1493.45" stroke="#777777" stroke-width="5"/>
	<line x1="387.5" y1="0.448242" x2="387.5" y2="1493.45" stroke="#777777" stroke-width="5"/>
	<path d="M0 496.948C0 496.948 21.504 492.948 36.288 486.948C51.072 480.948 84 464.448 84 464.448V894.448H0V496.948Z" fill="url(#paint0_linear)"/>
	<path d="M474 496.948C474 496.948 452.496 492.948 437.712 486.948C422.928 480.948 390 464.448 390 464.448V894.448H474V496.948Z" fill="url(#paint1_linear)"/>
	<defs>
		<linearGradient id="paint0_linear" x1="84" y1="697.448" x2="-7.47743e-07" y2="697.448" gradientUnits="userSpaceOnUse">
			<stop stop-color="#A3A3A3"/>
			<stop offset="0.358608" stop-color="#A3A3A3" stop-opacity="0"/>
		</linearGradient>
		<linearGradient id="paint1_linear" x1="390" y1="697.448" x2="474" y2="697.448" gradientUnits="userSpaceOnUse">
			<stop stop-color="#A3A3A3"/>
			<stop offset="0.358608" stop-color="#A3A3A3" stop-opacity="0"/>
		</linearGradient>
	</defs>
</svg>
