<svg width="699" height="3325" viewBox="0 0 699 3325" fill="none" xmlns="http://www.w3.org/2000/svg">
	<g clip-path="url(#clip0)">
		<path d="M30 1107.03C30 1107.03 51.504 1097.68 66.288 1083.64C81.072 1069.6 114 1031 114 1031V2037H30V1107.03Z" fill="url(#paint0_linear)"/>
		<path d="M669 1107.03C669 1107.03 647.496 1097.68 632.712 1083.64C617.928 1069.6 585 1031 585 1031V2037H669V1107.03Z" fill="url(#paint1_linear)"/>
		<rect x="339" y="2385" width="5" height="42" rx="2.5" transform="rotate(90 339 2385)" fill="#8C8C8C"/>
		<rect x="548" y="2453" width="5" height="42" rx="2.5" transform="rotate(90 548 2453)" fill="#8C8C8C"/>
		<rect x="339" y="1481" width="5" height="42" rx="2.5" transform="rotate(90 339 1481)" fill="#8C8C8C"/>
		<path d="M117 0C117 1188.19 117 1854.36 117 3042.54L129 3325" stroke="#777777" stroke-width="5"/>
		<path d="M584 0C584 1188.19 584 1854.36 584 3042.54L572 3325" stroke="#777777" stroke-width="5"/>
		<rect x="335" y="205" width="5" height="42" rx="2.5" transform="rotate(90 335 205)" fill="#8C8C8C"/>
		<rect x="537" y="205" width="5" height="42" rx="2.5" transform="rotate(90 537 205)" fill="#8C8C8C"/>
		<rect x="205" y="205" width="5" height="42" rx="2.5" transform="rotate(90 205 205)" fill="#8C8C8C"/>
		<rect x="371" y="490" width="5" height="42" rx="2.5" transform="rotate(90 371 490)" fill="#8C8C8C"/>
		<rect x="549" y="522" width="5" height="42" rx="2.5" transform="rotate(90 549 522)" fill="#8C8C8C"/>
		<rect x="194" y="522" width="5" height="42" rx="2.5" transform="rotate(90 194 522)" fill="#8C8C8C"/>
	</g>
	<defs>
		<linearGradient id="paint0_linear" x1="114" y1="1576.11" x2="30" y2="1576.11" gradientUnits="userSpaceOnUse">
			<stop stop-color="#A3A3A3"/>
			<stop offset="0.358608" stop-color="#A3A3A3" stop-opacity="0"/>
		</linearGradient>
		<linearGradient id="paint1_linear" x1="585" y1="1576.11" x2="669" y2="1576.11" gradientUnits="userSpaceOnUse">
			<stop stop-color="#A3A3A3"/>
			<stop offset="0.358608" stop-color="#A3A3A3" stop-opacity="0"/>
		</linearGradient>
		<clipPath id="clip0">
			<rect width="699" height="3325" fill="white"/>
		</clipPath>
	</defs>
</svg>