<svg width="699" height="3325" viewBox="0 0 699 3325" fill="none" xmlns="http://www.w3.org/2000/svg">
	<g clip-path="url(#clip0)">
		<path d="M29 1149.03C29 1149.03 50.504 1139.68 65.288 1125.64C80.072 1111.6 113 1073 113 1073V2079H29V1149.03Z" fill="url(#paint0_linear)"/>
		<path d="M668 1149.03C668 1149.03 646.496 1139.68 631.712 1125.64C616.928 1111.6 584 1073 584 1073V2079H668V1149.03Z" fill="url(#paint1_linear)"/>
		<rect x="370" y="353" width="5" height="42" rx="2.5" transform="rotate(90 370 353)" fill="#8C8C8C"/>
		<rect x="548" y="374" width="5" height="42" rx="2.5" transform="rotate(90 548 374)" fill="#8C8C8C"/>
		<rect x="193" y="374" width="5" height="42" rx="2.5" transform="rotate(90 193 374)" fill="#8C8C8C"/>
		<rect x="343" y="30" width="5" height="42" rx="2.5" transform="rotate(90 343 30)" fill="#8C8C8C"/>
		<rect x="548" y="62" width="5" height="42" rx="2.5" transform="rotate(90 548 62)" fill="#8C8C8C"/>
		<rect x="193" y="62" width="5" height="42" rx="2.5" transform="rotate(90 193 62)" fill="#8C8C8C"/>
		<path d="M116 0C116 1197.12 116 1868.3 116 3065.42L128 3350" stroke="#777777" stroke-width="5"/>
		<path d="M583 0C583 1201.05 583 1874.43 583 3075.48L571 3361" stroke="#777777" stroke-width="5"/>
	</g>
	<defs>
		<linearGradient id="paint0_linear" x1="113" y1="1618.11" x2="29" y2="1618.11" gradientUnits="userSpaceOnUse">
			<stop stop-color="#A3A3A3"/>
			<stop offset="0.358608" stop-color="#A3A3A3" stop-opacity="0"/>
		</linearGradient>
		<linearGradient id="paint1_linear" x1="584" y1="1618.11" x2="668" y2="1618.11" gradientUnits="userSpaceOnUse">
			<stop stop-color="#A3A3A3"/>
			<stop offset="0.358608" stop-color="#A3A3A3" stop-opacity="0"/>
		</linearGradient>
		<clipPath id="clip0">
			<rect width="699" height="3325" fill="white"/>
		</clipPath>
	</defs>
</svg>
