<svg width="696" height="3967" viewBox="0 0 696 3967" fill="none" xmlns="http://www.w3.org/2000/svg">
	<g clip-path="url(#clip0)">
		<path d="M27 1627.14C27 1627.14 48.504 1618.51 63.288 1605.56C78.072 1592.61 111 1557 111 1557V2485H27V1627.14Z" fill="url(#paint0_linear)"/>
		<path d="M666 1627.14C666 1627.14 644.496 1618.51 629.712 1605.56C614.928 1592.61 582 1557 582 1557V2485H666V1627.14Z" fill="url(#paint1_linear)"/>
		<path d="M125.308 3967L113 3613.63C113 2089.2 113 706.945 113 514.629C113 322.312 193 0 193 0" stroke="#777777" stroke-width="5"/>
		<path d="M571 3967L583 3613.63C583 2089.2 583 706.945 583 514.629C583 322.312 505 0 505 0" stroke="#777777" stroke-width="5"/>
		<rect x="409" y="772" width="5" height="42" rx="2.5" transform="rotate(90 409 772)" fill="black"/>
		<rect x="331" y="1556.5" width="5" height="42" rx="2.5" transform="rotate(90 331 1556.5)" fill="#8C8C8C"/>
		<rect x="532" y="1450.5" width="5" height="42" rx="2.5" transform="rotate(90 532 1450.5)" fill="#8C8C8C"/>
	</g>
	<defs>
		<linearGradient id="paint0_linear" x1="111" y1="2059.85" x2="27" y2="2059.85" gradientUnits="userSpaceOnUse">
			<stop stop-color="#A3A3A3"/>
			<stop offset="0.358608" stop-color="#A3A3A3" stop-opacity="0"/>
		</linearGradient>
		<linearGradient id="paint1_linear" x1="582" y1="2059.85" x2="666" y2="2059.85" gradientUnits="userSpaceOnUse">
			<stop stop-color="#A3A3A3"/>
			<stop offset="0.358608" stop-color="#A3A3A3" stop-opacity="0"/>
		</linearGradient>
		<clipPath id="clip0">
			<rect width="696" height="3967" fill="white"/>
		</clipPath>
	</defs>
</svg>