<svg width="696" height="3852" viewBox="0 0 696 3852" fill="none" xmlns="http://www.w3.org/2000/svg">
	<g clip-path="url(#clip0)">
		<path d="M27 1602.14C27 1602.14 48.504 1593.51 63.288 1580.56C78.072 1567.61 111 1532 111 1532V2460H27V1602.14Z" fill="url(#paint0_linear)"/>
		<path d="M666 1602.14C666 1602.14 644.496 1593.51 629.712 1580.56C614.928 1567.61 582 1532 582 1532V2460H666V1602.14Z" fill="url(#paint1_linear)"/>
		<path d="M125 3852L113 3510.84C113 2075.73 113 702.387 113 511.31C113 320.234 191 0 191 0" stroke="#777777" stroke-width="5"/>
		<path d="M571 3852L583 3510.84C583 2075.73 583 702.387 583 511.31C583 320.234 505 0 505 0" stroke="#777777" stroke-width="5"/>
		<rect x="212" y="701" width="5" height="42" rx="2.5" transform="rotate(90 212 701)" fill="#8C8C8C"/>
		<rect x="526" y="701" width="5" height="42" rx="2.5" transform="rotate(90 526 701)" fill="#8C8C8C"/>
		<rect x="331" y="1531.5" width="5" height="42" rx="2.5" transform="rotate(90 331 1531.5)" fill="#8C8C8C"/>
		<rect x="532" y="1425.5" width="5" height="42" rx="2.5" transform="rotate(90 532 1425.5)" fill="#8C8C8C"/>
	</g>
	<defs>
		<linearGradient id="paint0_linear" x1="111" y1="2034.85" x2="27" y2="2034.85" gradientUnits="userSpaceOnUse">
			<stop stop-color="#A3A3A3"/>
			<stop offset="0.358608" stop-color="#A3A3A3" stop-opacity="0"/>
		</linearGradient>
		<linearGradient id="paint1_linear" x1="582" y1="2034.85" x2="666" y2="2034.85" gradientUnits="userSpaceOnUse">
			<stop stop-color="#A3A3A3"/>
			<stop offset="0.358608" stop-color="#A3A3A3" stop-opacity="0"/>
		</linearGradient>
		<clipPath id="clip0">
			<rect width="696" height="3852" fill="white"/>
		</clipPath>
	</defs>
</svg>