<svg width="474" height="1313" viewBox="0 0 474 1313" fill="none" xmlns="http://www.w3.org/2000/svg">
	<rect x="331.5" y="21.4482" width="5" height="42" rx="2.5" transform="rotate(90 331.5 21.4482)" fill="#8C8C8C"/>
	<rect x="181.5" y="21.4482" width="5" height="42" rx="2.5" transform="rotate(90 181.5 21.4482)" fill="#8C8C8C"/>
	<line x1="86.5" x2="86.5" y2="1313" stroke="#777777" stroke-width="5"/>
	<line x1="387.5" x2="387.5" y2="1313" stroke="#777777" stroke-width="5"/>
	<path d="M0 514.366C0 514.366 21.504 510.506 36.288 504.715C51.072 498.924 84 483 84 483V898H0V514.366Z" fill="url(#paint0_linear)"/>
	<path d="M474 514.366C474 514.366 452.496 510.506 437.712 504.715C422.928 498.924 390 483 390 483V898H474V514.366Z" fill="url(#paint1_linear)"/>
	<defs>
		<linearGradient id="paint0_linear" x1="84" y1="707.872" x2="-7.47743e-07" y2="707.872" gradientUnits="userSpaceOnUse">
			<stop stop-color="#A3A3A3"/>
			<stop offset="0.358608" stop-color="#A3A3A3" stop-opacity="0"/>
		</linearGradient>
		<linearGradient id="paint1_linear" x1="390" y1="707.872" x2="474" y2="707.872" gradientUnits="userSpaceOnUse">
			<stop stop-color="#A3A3A3"/>
			<stop offset="0.358608" stop-color="#A3A3A3" stop-opacity="0"/>
		</linearGradient>
	</defs>
</svg>
