<svg width="36" height="32" viewBox="0 0 36 32" fill="none" xmlns="http://www.w3.org/2000/svg">
	<path d="M34.4375 4H9L8.4375 1.25C8.3125 0.5625 7.6875 0 7 0H0.75C0.3125 0 0 0.375 0 0.75V2.25C0 2.6875 0.3125 3 0.75 3H5.75L10.0625 25.25C9.375 26 9 26.9375 9 28C9 30.25 10.75 32 13 32C15.1875 32 17 30.25 17 28C17 27.4375 16.75 26.5625 16.4375 26H25.5C25.1875 26.5625 25 27.4375 25 28C25 30.25 26.75 32 29 32C31.1875 32 33 30.25 33 28C33 26.875 32.5 25.875 31.75 25.125L31.8125 24.875C32 23.9375 31.3125 23 30.3125 23H12.6875L12.125 20H31.625C32.375 20 32.9375 19.5625 33.125 18.875L35.9375 5.875C36.125 4.9375 35.4375 4 34.4375 4ZM13 29.5C12.125 29.5 11.5 28.875 11.5 28C11.5 27.1875 12.125 26.5 13 26.5C13.8125 26.5 14.5 27.1875 14.5 28C14.5 28.875 13.8125 29.5 13 29.5ZM29 29.5C28.125 29.5 27.5 28.875 27.5 28C27.5 27.1875 28.125 26.5 29 26.5C29.8125 26.5 30.5 27.1875 30.5 28C30.5 28.875 29.8125 29.5 29 29.5ZM30.4375 17H11.5L9.5625 7H32.625L30.4375 17Z" fill="#DADADA"/>
</svg>