<svg width="36" height="40" viewBox="0 0 36 40" fill="none" xmlns="http://www.w3.org/2000/svg">
	<path d="M22.69 11.6578C25.352 11.6578 27.51 9.49587 27.51 6.82892C27.51 4.16198 25.352 2 22.69 2C20.0281 2 17.8701 4.16198 17.8701 6.82892C17.8701 9.49587 20.0281 11.6578 22.69 11.6578Z" stroke="#DADADA" stroke-width="3" stroke-miterlimit="10" stroke-linecap="round" stroke-linejoin="round"/>
	<path d="M29 22.2947C29 22.2947 29 33.5187 29 35.2153C29 36.912 30.2625 38 31.5 38C32.7375 38 33.9579 37.173 33.9579 35.1501C33.9579 33.1271 33.9579 22.3599 33.9579 20.7285C33.9579 19.0972 32.9157 16.1606 29.3985 16.1606C25.8812 16.1606 17.8046 16.1606 17.8046 16.1606C14.5479 16.1606 14.4176 16.9437 13.5057 18.5099C12.5939 20.076 11.7471 22.0337 11.1609 23.143C10.5747 24.2524 9.14176 24.3829 7.57854 24.3829C6.01533 24.3829 5.95019 24.3829 3.6705 24.3829C1.3908 24.3829 1.26054 28.9508 4.0613 28.9508C6.86207 28.9508 9.5 28.9508 11.9425 28.9508C14.7589 28.9508 16.5 24.5 16.5 24.5L16.5019 35.8026H29.0365" stroke="#DADADA" stroke-width="3" stroke-miterlimit="10" stroke-linecap="round" stroke-linejoin="round"/>
</svg>