<svg width="26" height="26" viewBox="0 0 26 26" fill="none" xmlns="http://www.w3.org/2000/svg">
	<path fill-rule="evenodd" clip-rule="evenodd" d="M1.68619 24.0417C0.905138 23.2606 0.905138 21.9943 1.68619 21.2132L21.4852 1.41424C22.2662 0.633189 23.5326 0.63319 24.3136 1.41424C25.0947 2.19529 25.0947 3.46162 24.3136 4.24267L4.51461 24.0417C3.73356 24.8227 2.46723 24.8227 1.68619 24.0417Z" fill="#D0112B"/>
	<path fill-rule="evenodd" clip-rule="evenodd" d="M1.68613 1.68631C2.46718 0.90526 3.73351 0.90526 4.51456 1.68631L24.3135 21.4853C25.0946 22.2663 25.0946 23.5327 24.3135 24.3137C23.5325 25.0948 22.2662 25.0948 21.4851 24.3137L1.68613 4.51474C0.90508 3.73369 0.90508 2.46736 1.68613 1.68631Z" fill="#D0112B"/>
</svg>