<svg width="276" height="276" viewBox="0 0 276 276" fill="none" xmlns="http://www.w3.org/2000/svg">
	<circle cx="138" cy="138" r="138" fill="#878787"/>
	<mask id="mask0" mask-type="alpha" maskUnits="userSpaceOnUse" x="0" y="0" width="276" height="276">
		<circle cx="138" cy="138" r="138" fill="white"/>
	</mask>
	<g mask="url(#mask0)">
		<path d="M140.11 226.63C175.509 226.63 204.206 194.013 204.206 153.779C204.206 113.544 175.509 80.9277 140.11 80.9277C104.711 80.9277 76.0137 113.544 76.0137 153.779C76.0137 194.013 104.711 226.63 140.11 226.63Z" fill="#555555"/>
		<path d="M170.901 182.508C170.901 182.508 158.493 226.499 174.884 241.367C178.297 244.454 190.18 248.505 190.18 248.505L191.077 251.877C191.077 251.877 190.968 246.863 194.141 250.147C197.314 253.432 206.79 255.074 206.79 255.074L224.581 264.928C224.581 264.928 235.654 271.081 235.654 273.555C235.654 276.008 235.654 276.008 235.654 276.008H40.3447L58.5298 260.001L72.3601 256.717C72.3601 256.717 77.1088 250.98 79.4722 251.79C81.8356 252.6 81.8356 252.6 81.8356 252.6L86.1028 248.593C86.1028 248.593 104.244 240.25 108.49 233.462C116.477 220.718 112.472 188.267 112.472 188.267L170.901 182.508Z" fill="url(#paint0_linear)"/>
		<path d="M99.8018 171.821C99.8018 171.821 93.5869 182.463 119.956 206.966C122.32 209.156 127.616 215.834 130.154 216.798C139.411 220.345 144.444 217.958 149.63 216.425C153.766 215.199 159.368 208.696 159.368 208.696C159.368 208.696 181.317 191.835 181.711 183.23C182.105 174.624 184.819 171.821 184.819 171.821C184.819 171.821 185.41 170.683 187.62 171.734C191.471 173.573 193.725 166.172 194.447 158.005C194.994 151.764 191.537 143.771 187.576 144.144C183.615 144.516 185.213 145.151 185.213 145.151C185.169 144.713 185.541 137.312 184.053 131.531C181.799 122.772 182.039 111.999 172.542 106.393C163.045 100.788 154.182 90.7153 148.361 92.5984C142.54 94.4596 127.09 105.277 119.562 102.671C112.056 100.065 107.067 112.853 104.529 117.999C101.421 124.305 99.386 146.399 99.7799 150.888C100.174 155.377 100.174 155.377 100.174 155.377C100.174 155.377 97.4165 143.421 95.0312 142.677C92.6678 141.932 88.313 141.932 89.1008 150.91C89.8886 159.888 87.5909 154.019 94.2434 169.61C98.1606 178.697 99.8018 171.821 99.8018 171.821Z" fill="#F4F4F4"/>
		<path d="M174.95 96.4506C173.746 95.2901 171.755 95.9908 171.514 97.6549C170.179 107.399 164.096 132.449 136.632 144.164C105.973 157.258 83.4117 173.09 78.7724 176.484C78.2035 176.9 77.8971 177.557 77.9409 178.236C78.3348 185.352 81.7704 224 108.162 215.548C110.394 214.825 111.86 217.847 109.912 219.183C109.869 219.227 109.825 219.249 109.759 219.292C108.402 220.19 108.599 222.248 110.109 222.861C110.503 223.015 110.941 223.168 111.401 223.299C113.173 223.759 113.436 226.168 111.838 227.044C106.149 230.197 96.5417 232.803 84.484 225.555C64.6795 213.599 52.9282 182.024 54.3944 161.703C60.1497 81.4731 112.517 58.569 112.648 58.5033C116.543 56.4012 147.924 47.0512 162.323 59.3135C162.805 59.7295 163.439 59.9047 164.074 59.7733C168.844 58.8098 181.821 53.5765 206.637 87.8232C208.475 90.3414 209.744 93.2318 211.495 95.8156C218.169 105.56 234.451 136.96 217.688 194.417C214.384 205.76 206.834 215.46 196.549 221.263C189.59 225.183 187.511 222.467 179.742 218.526C179.37 218.329 178.933 218.263 178.517 218.329L174.315 218.942C171.974 219.27 171.033 216.052 173.177 215.066C182.631 210.753 193.419 204.862 195.783 199.563C200.05 189.972 215.565 135.274 174.95 96.4506Z" fill="#555555"/>
		<path d="M182.981 215.285C182.981 215.285 177.729 219.84 166.152 220.891C166.152 220.891 180.53 221.241 185.081 218.088C189.633 214.935 182.981 215.285 182.981 215.285Z" fill="#555555"/>
		<path d="M190.618 219.664C190.618 219.664 185.366 224.218 173.79 225.269C173.79 225.269 188.167 225.62 192.719 222.467C197.293 219.314 190.618 219.664 190.618 219.664Z" fill="#555555"/>
		<path d="M97.3943 198.929C97.3943 198.929 97.9633 205.87 105.491 214.716C105.491 214.716 94.9653 204.907 93.9149 199.454C92.8645 194.024 97.3943 198.929 97.3943 198.929Z" fill="#555555"/>
		<path d="M104.2 223.847C104.2 223.847 118.228 224.197 125.931 218.592C125.931 218.592 113.304 227.701 107.702 227C102.1 226.3 104.2 223.847 104.2 223.847Z" fill="#555555"/>
		<path d="M103.194 222.249C103.194 222.249 118.972 219.096 121.423 211.738C121.423 211.738 119.672 218.395 100.743 220.847C100.743 220.847 103.894 222.249 103.194 222.249Z" fill="#555555"/>
		<path d="M83.9364 169.762C83.9364 169.762 82.2952 219.796 110.722 215.964C110.722 215.964 85.7527 225.971 78.7282 173.309C77.634 165.12 83.9364 169.762 83.9364 169.762Z" fill="#555555"/>
		<path d="M94.4621 176.179C94.4621 176.179 87.8315 225.797 116.499 224.834C116.499 224.834 90.6544 232.3 88.9256 179.2C88.663 170.945 94.4621 176.179 94.4621 176.179Z" fill="#555555"/>
		<path d="M82.7112 169.893C82.7112 169.893 76.0805 219.511 104.748 218.548C104.748 218.548 78.9035 226.015 77.1747 172.915C76.9121 164.638 82.7112 169.893 82.7112 169.893Z" fill="#555555"/>
		<path d="M194.819 160.871C194.819 160.871 202.675 210.314 173.986 210.051C173.986 210.051 200.006 216.861 200.421 163.761C200.487 155.462 194.819 160.871 194.819 160.871Z" fill="#555555"/>
		<path d="M188.714 183.293C188.714 183.293 180.967 232.736 153.744 223.671C153.744 223.671 176.393 238.167 193.156 187.76C195.76 179.899 188.714 183.293 188.714 183.293Z" fill="#555555"/>
		<path d="M203.813 197.877C203.813 197.877 175.167 238.934 154.685 218.832C154.685 218.832 168.69 241.802 205.848 203.833C211.625 197.921 203.813 197.877 203.813 197.877Z" fill="#555555"/>
		<path fill-rule="evenodd" clip-rule="evenodd" d="M142.215 35.7046C142.056 35.6998 141.896 35.6941 141.737 35.6875V35.7161C127.648 35.9781 109.747 29.4122 104.398 25.9653C98.927 22.4399 94.8348 51.6066 98.8394 75.0363C98.8394 75.0363 118.725 79.574 141.737 79.6977V79.7003C141.897 79.7003 142.056 79.7001 142.215 79.6997C142.375 79.7001 142.534 79.7003 142.694 79.7003V79.6977C165.706 79.574 185.592 75.0363 185.592 75.0363C189.596 51.6066 185.504 22.4399 180.033 25.9653C174.684 29.4122 156.783 35.9781 142.694 35.7161V35.6875C142.535 35.6941 142.375 35.6998 142.215 35.7046Z" fill="#D0D0D0"/>
	</g>
	<defs>
		<linearGradient id="paint0_linear" x1="137.998" y1="282.534" x2="137.998" y2="169.66" gradientUnits="userSpaceOnUse">
			<stop stop-color="white"/>
			<stop offset="0.243" stop-color="#FBFBFB"/>
			<stop offset="0.4799" stop-color="#F0F0EF"/>
			<stop offset="0.7145" stop-color="#DCDCDC"/>
			<stop offset="0.9463" stop-color="#C1C1C0"/>
			<stop offset="1" stop-color="#BABAB9"/>
		</linearGradient>
	</defs>
</svg>