<svg width="276" height="276" viewBox="0 0 276 276" fill="none" xmlns="http://www.w3.org/2000/svg">
	<circle cx="138" cy="138" r="138" fill="#878787"/>
	<mask id="mask0" mask-type="alpha" maskUnits="userSpaceOnUse" x="0" y="0" width="276" height="276">
		<circle cx="138" cy="138" r="138" fill="white"/>
	</mask>
	<g mask="url(#mask0)">
		<path d="M180.705 252.839C151.3 242.359 121.568 242.709 91.918 252.839V224.852C121.752 217.167 151.341 217.681 180.705 224.852V252.839Z" fill="url(#paint0_linear)"/>
		<path d="M168.221 201.017C165.993 200.996 169.998 229.373 172.062 236.175C176.742 251.689 234.04 264.82 234.469 275.114C234.571 277.806 234.469 277.806 234.469 277.806H40.5879L58.6314 260.34L72.3632 256.765L79.6583 253.292C81.0683 252.614 82.3965 251.812 83.643 250.867L98.6622 239.401C98.6622 239.401 103.362 233.483 102.974 224.524C102.586 215.565 102.586 200.996 102.586 200.996H168.221V201.017Z" fill="url(#paint1_linear)"/>
		<path d="M90.2216 157.309C90.2216 157.309 79.9431 138.055 78.1449 135.055C76.3467 132.054 79.4936 121.801 78.1449 119.664C76.7962 117.527 76.3467 86.3136 87.1769 76.9024C98.007 67.4913 104.342 64.9227 104.342 64.9227C107.019 62.6007 124.878 56.0458 132.378 57.217C154.957 60.7925 151.198 59.6212 155.366 59.3541C164.95 60.9157 172.265 63.5049 171.141 69.8132C174.758 67.9433 177.619 67.9228 180.664 70.0393C179.826 71.827 179.724 72.9982 180.664 73.8818C180.664 73.8818 192.414 74.3133 192.414 103.821C192.414 132.239 190.227 142.39 186.998 144.014C183.77 145.637 177.823 151.411 177.823 151.411C177.823 151.411 179.295 100.019 164.848 100.43C150.401 100.841 139.816 108.157 104.791 100.43C97.1079 98.7249 86.1551 147.055 90.2216 157.309Z" fill="#555555"/>
		<path d="M89.0377 175.392C89.0377 175.392 95.2702 206.07 110.902 215.584C135.321 230.461 152.098 217.845 152.098 217.845C152.098 217.845 171.592 200.276 174.78 189.919C177.641 180.673 178.642 175.371 178.642 175.371C178.642 175.371 181.217 175.371 182.933 173.234C184.65 171.097 185.079 157.412 186.366 153.569C187.654 149.727 188.512 143.315 184.221 143.726C179.93 144.158 177.784 151.432 177.784 151.432C177.784 151.432 181.666 138.507 179.112 130.801C176.537 123.096 178.213 106.965 167.935 100.534C157.636 94.1225 144.537 96.2595 138.223 98.3966C131.909 100.534 118.627 99.2596 110.473 96.2595C102.32 93.2594 93.2268 106.883 91.9394 113.294C90.6521 119.705 88.6086 146.316 89.0377 151.453C89.4669 156.59 89.4669 156.59 89.4669 156.59C89.4669 156.59 86.463 142.905 83.8883 142.041C81.3136 141.178 76.5933 141.178 77.4515 151.453C78.3097 161.706 79.3519 153.775 83.0301 172.844C85.1961 183.96 89.0377 175.392 89.0377 175.392Z" fill="#F4F4F4"/>
		<path d="M91.8783 225.057C91.8783 225.057 88.1389 247.167 85.748 247.783C83.3572 248.4 112.313 262.743 122.959 264.119C122.959 264.119 129.355 252.982 136.527 249.612C136.527 249.633 93.3496 234.899 91.8783 225.057Z" fill="white"/>
		<path d="M180.787 224.852C180.787 224.852 184.711 246.921 187.081 247.517C189.452 248.112 160.966 262.763 150.463 264.264C150.463 264.264 144.026 253.208 136.895 249.921C136.915 249.921 179.439 234.715 180.787 224.852Z" fill="white"/>
		<path d="M135.444 38.8652C174.106 38.8652 202.734 43.3037 212.768 46.5093C222.801 49.7148 227.235 54.2971 224.272 59.5575C221.33 64.8179 213.646 64.1398 191.209 75.3593C191.209 75.3593 191.495 76.9621 189.738 77.6402L190.617 85.428C190.617 85.428 192.088 86.3322 192.088 89.7638C192.088 93.1954 190.045 118.86 134.852 121.388V38.8652H135.444Z" fill="#D0D0D0"/>
		<path d="M134.258 38.7852C95.5967 38.7852 66.9683 43.2236 56.935 46.4292C46.9018 49.6347 42.4675 54.217 45.4305 59.4775C48.3935 64.7379 56.0563 64.0598 78.4932 75.2792C78.4932 75.2792 78.2071 76.882 79.9645 77.5601L79.0858 85.348C79.0858 85.348 77.6145 86.2521 77.6145 89.6837C77.6145 93.1153 79.6784 118.78 134.871 121.287V38.7852H134.258Z" fill="#D0D0D0"/>
	</g>
	<defs>
		<linearGradient id="paint0_linear" x1="91.9313" y1="236.062" x2="180.709" y2="236.062" gradientUnits="userSpaceOnUse">
			<stop stop-color="#A1A1A1"/>
			<stop offset="0.0577997" stop-color="#B2B2B2"/>
			<stop offset="0.1872" stop-color="#D4D4D4"/>
			<stop offset="0.3108" stop-color="#ECECEC"/>
			<stop offset="0.4253" stop-color="#FAFAFA"/>
			<stop offset="0.5215" stop-color="white"/>
			<stop offset="0.6449" stop-color="#FCFCFB"/>
			<stop offset="0.7549" stop-color="#F1F1F1"/>
			<stop offset="0.8598" stop-color="#DFDFDE"/>
			<stop offset="0.9609" stop-color="#C6C6C5"/>
			<stop offset="1" stop-color="#BABAB9"/>
		</linearGradient>
		<linearGradient id="paint1_linear" x1="137.547" y1="283.186" x2="137.547" y2="190.473" gradientUnits="userSpaceOnUse">
			<stop stop-color="white"/>
			<stop offset="0.243" stop-color="#FBFBFB"/>
			<stop offset="0.4799" stop-color="#F0F0EF"/>
			<stop offset="0.7145" stop-color="#DCDCDC"/>
			<stop offset="0.9463" stop-color="#C1C1C0"/>
			<stop offset="1" stop-color="#BABAB9"/>
		</linearGradient>
	</defs>
</svg>