<svg width="82" height="69" viewBox="0 0 82 69" fill="none" xmlns="http://www.w3.org/2000/svg">
	<path fill-rule="evenodd" clip-rule="evenodd" d="M73.578 47.9804C76.4567 43.4131 78.0877 38.2012 78.0877 32.668C78.0877 14.6259 60.7468 0 39.3556 0C17.9645 0 0.623535 14.6259 0.623535 32.668C0.623535 50.71 17.9645 65.3359 39.3556 65.3359C45.1164 65.3359 50.5834 64.2752 55.4971 62.3726C58.8848 66.179 71.575 71.0344 82 65.7272C80.7272 64.8397 79.4522 64.1069 78.255 63.4189C73.0587 60.4324 69.3257 58.287 73.578 47.9804Z" fill="#D0112B"/>
	<path d="M44.0486 26.1188C44.0486 32.5225 34.7341 31.7948 36.141 40.3331L41.2348 40.2845C40.2161 34.1719 50.0157 34.4145 50.0157 24.9059C50.0157 20.2487 46.2802 16.3677 39.828 16.3677C35.4618 16.3677 31.9689 18.5022 30.2224 21.316L33.5213 25.0515C35.0737 23.0139 36.8202 21.9467 39.4884 21.9467C42.1081 21.9467 44.0486 23.8387 44.0486 26.1188ZM35.0737 47.2219C35.0737 49.2109 36.5291 51.1029 38.9062 51.1029C41.0408 51.1029 42.4962 49.2109 42.4962 47.2219C42.4962 45.5239 41.0408 43.6319 38.9062 43.6319C36.5291 43.6319 35.0737 45.5239 35.0737 47.2219Z" fill="white"/>
</svg>