<svg width="24" height="24" viewBox="0 0 24 24" fill="none" xmlns="http://www.w3.org/2000/svg">
<path d="M12 24C5.4 24 0 18.6 0 12C0 5.4 5.4 0 12 0C18.6 0 24 5.4 24 12C24 18.6 18.6 24 12 24ZM12 1C5.9 1 1 5.9 1 12C1 18.1 6 23 12 23C18 23 23 18.1 23 12C23 5.9 18.1 1 12 1Z" fill="white"/>
<path d="M12.5 0.5H11.5V23.5H12.5V0.5Z" fill="white"/>
<path d="M23.5 11.5H0.5V12.5H23.5V11.5Z" fill="white"/>
<path d="M11.7001 23.9001C7.5001 20.9001 5.1001 16.5001 5.1001 11.9001C5.1001 7.4001 7.4001 3.1001 11.5001 0.100098L12.1001 0.900098C8.3001 3.7001 6.1001 7.7001 6.1001 11.9001C6.1001 16.2001 8.3001 20.3001 12.2001 23.1001L11.7001 23.9001Z" fill="white"/>
<path d="M12.3 23.9L11.7 23.1C15.6 20.3 17.8 16.2 17.8 11.9C17.8 7.7 15.6 3.6 11.8 0.8L12.4 0C16.5 3 18.8 7.3 18.8 11.8C18.8 16.5 16.4 20.9 12.3 23.9Z" fill="white"/>
<path d="M11.9 8.6999C8.59995 8.6999 5.39995 7.4999 2.69995 5.1999L3.29995 4.4999C5.79995 6.5999 8.79995 7.7999 11.9 7.7999C15 7.7999 18 6.5999 20.6 4.3999L21.2 5.0999C18.6 7.4999 15.3 8.6999 11.9 8.6999Z" fill="white"/>
<path d="M20.6 19.5002C18 17.3002 15 16.1002 11.9 16.1002C8.79995 16.1002 5.79995 17.3002 3.29995 19.4002L2.69995 18.7002C5.39995 16.4002 8.59995 15.2002 11.9 15.2002C15.3 15.2002 18.5 16.4002 21.2 18.8002L20.6 19.5002Z" fill="white"/>
</svg>