<svg width="24" height="35" viewBox="0 0 24 35" fill="none" xmlns="http://www.w3.org/2000/svg">
	<path d="M19.1907 12.9206V6.69102C19.1907 2.99942 16.1556 0 12.4202 0H11.6265C7.89105 0 4.85603 2.99942 4.85603 6.69102V7.89079H7.19066V6.69102C7.19066 4.29148 9.19844 2.30725 11.6265 2.30725H12.4202C14.8482 2.30725 16.856 4.29148 16.856 6.69102V11.5824C15.3619 10.9364 13.7276 10.5672 12 10.5672C5.36965 10.5672 0 15.8739 0 22.4265C0 28.979 5.36965 34.2857 12 34.2857C18.6304 34.2857 24 28.979 24 22.4265C24 18.5503 22.1323 15.0894 19.1907 12.9206ZM14.2412 28.3792H12.0467H9.80545L11.1595 23.5339C10.2257 23.1648 9.52529 22.288 9.52529 21.2267C9.52529 19.8423 10.6459 18.781 12 18.781C13.3541 18.781 14.4747 19.8885 14.4747 21.2267C14.4747 22.288 13.7743 23.2109 12.8405 23.5339L14.2412 28.3792Z" fill="black"/>
</svg>