<svg width="118" height="118" viewBox="0 0 118 118" fill="none" xmlns="http://www.w3.org/2000/svg">
<path d="M52.6574 58.8525C52.3624 67.7025 49.8549 75.225 44.2499 84.2225C43.6599 85.255 43.9549 86.5825 44.9874 87.32C45.2824 87.615 45.7249 87.615 46.1674 87.615C46.9049 87.615 47.6424 87.1725 48.0849 86.5825C54.1324 76.8475 56.7874 68.5875 57.2299 59V58.8525H52.6574Z" fill="#CF122C"/>
<path d="M74.1924 84.37C68.5874 75.3725 66.0799 67.7025 65.7849 59H61.3599V59.1475C61.8024 68.735 64.4574 76.995 70.5049 86.73C70.9474 87.4675 71.6849 87.7625 72.4224 87.7625C72.8649 87.7625 73.1599 87.615 73.6024 87.4675C74.4874 86.73 74.7824 85.4025 74.1924 84.37Z" fill="#CF122C"/>
<path d="M85.5498 111.952H32.8923C31.7123 111.952 30.6798 110.92 30.6798 109.74V85.5499C30.6798 84.3699 31.7123 83.3374 32.8923 83.3374H85.5498C86.7298 83.3374 87.7623 84.3699 87.7623 85.5499V109.887C87.7623 111.067 86.7298 111.952 85.5498 111.952ZM35.1048 107.527H83.3373V87.7624H35.1048V107.527Z" fill="#56575B"/>
<path d="M76.6999 105.315H41.5949C40.4149 105.315 39.3824 104.282 39.3824 103.102V92.0396C39.3824 90.8596 40.4149 89.8271 41.5949 89.8271H76.6999C77.8799 89.8271 78.9124 90.8596 78.9124 92.0396V103.102C78.9124 104.43 77.8799 105.315 76.6999 105.315ZM43.8074 100.89H74.4874V94.3996H43.8074V100.89Z" fill="#CF122C"/>
<path d="M59.1474 61.2124C57.0824 61.2124 55.1649 60.7699 53.2474 60.0324C53.0999 60.0324 53.0999 59.8849 52.9524 59.8849C30.2375 45.7249 34.0724 9.43986 34.3674 7.96486C34.5149 6.93236 35.3999 6.04736 36.5799 6.04736H82.0099C83.1899 6.04736 84.0749 6.93236 84.2224 7.96486C84.3699 9.43986 88.3524 45.7249 65.6374 59.8849C65.4899 59.8849 65.4899 60.0324 65.3424 60.0324C63.2774 60.7699 61.2124 61.2124 59.1474 61.2124ZM55.1649 56.0499C57.6724 57.0824 60.6224 57.0824 63.1299 56.0499C80.6824 44.9874 80.2399 17.6999 79.7974 10.3249H38.4974C38.0549 17.8474 37.7599 44.9874 55.1649 56.0499Z" fill="#CF122C"/>
<path d="M74.4874 50.1501H80.2399C81.1249 50.1501 81.8624 49.8551 82.5999 49.4126C96.9074 40.7101 98.5299 24.4851 98.5299 17.8476C98.5299 16.3726 97.9399 14.8976 97.0549 14.0126C96.1699 13.1276 94.9899 12.6851 93.8099 12.6851H83.3374C82.1574 12.6851 81.1249 13.7176 81.1249 14.8976C81.1249 16.0776 82.1574 17.1101 83.3374 17.1101H93.8099C94.1049 17.4051 94.2524 17.7001 94.2524 17.9951C94.2524 23.8951 92.7774 38.2026 80.3874 45.8726H74.4874C73.3074 45.8726 72.2749 46.9051 72.2749 48.0851C72.2749 49.1176 73.3074 50.1501 74.4874 50.1501Z" fill="#CF122C"/>
<path d="M43.8074 50.1501H38.0549C37.1699 50.1501 36.4324 49.8551 35.6949 49.4126C21.3874 40.7101 19.7649 24.4851 19.7649 17.8476C19.7649 16.3726 20.3549 14.8976 21.2399 14.0126C22.1249 13.1276 23.3049 12.6851 24.4849 12.6851H34.9574C36.1374 12.6851 37.1699 13.7176 37.1699 14.8976C37.1699 16.0776 36.1374 17.1101 34.9574 17.1101H24.4849C24.1899 17.4051 24.0424 17.7001 24.0424 17.9951C24.0424 23.8951 25.5174 38.2026 37.9074 45.8726H43.8074C44.9874 45.8726 46.0199 46.9051 46.0199 48.0851C46.0199 49.1176 44.9874 50.1501 43.8074 50.1501Z" fill="#CF122C"/>
<path d="M63.72 29.4998C69.1775 29.3523 72.4225 26.9923 72.4225 24.3373C72.4225 21.3873 68.8825 19.0273 62.6875 19.0273H61.8025L63.5725 17.2573H60.9175L56.4925 19.0273H49.4125C46.905 19.0273 45.5775 19.6173 44.9875 20.7973H59.4425C63.425 20.7973 66.08 21.3873 66.08 24.1898C66.08 27.1398 62.835 27.7298 59.4425 27.7298H53.1L58.8526 33.9248C63.72 39.0873 68.2925 39.9723 74.045 39.9723L63.72 29.4998Z" fill="#CF122C"/>
</svg>
