<svg width="49" height="48" viewBox="0 0 49 48" fill="none" xmlns="http://www.w3.org/2000/svg">
	<path d="M48.5 24C48.5 37.2548 37.7548 48 24.5 48C11.2452 48 0.5 37.2548 0.5 24C0.5 10.7452 11.2452 0 24.5 0C37.7548 0 48.5 10.7452 48.5 24Z" fill="#D0112B"/>
	<path d="M26.3906 26.7656C30.1875 26.7656 33 24.0938 33 20.1094C33 16.125 30.1875 13.5 26.3906 13.5H18.5625C18.2344 13.5 18 13.7812 18 14.0625V24.1875H15.5625C15.2344 24.1875 15 24.4688 15 24.75V26.2031C15 26.5312 15.2344 26.7656 15.5625 26.7656H18V28.5H15.5625C15.2344 28.5 15 28.7812 15 29.0625V30.1875C15 30.5156 15.2344 30.75 15.5625 30.75H18V33.9375C18 34.2656 18.2344 34.5 18.5625 34.5H20.4375C20.7188 34.5 21 34.2656 21 33.9375V30.75H29.4375C29.7188 30.75 30 30.5156 30 30.1875V29.0625C30 28.7812 29.7188 28.5 29.4375 28.5H21V26.7656H26.3906ZM21 16.0781H25.9219C28.4062 16.0781 29.9531 17.5781 29.9531 20.1094C29.9531 22.6406 28.4062 24.1875 25.875 24.1875H21V16.0781Z" fill="white"/>
</svg>
