<svg width="13" height="18" viewBox="0 0 13 18" fill="none" xmlns="http://www.w3.org/2000/svg">
	<path d="M11.1562 5.4375H1.59375C0.697266 5.4375 0 6.16797 0 7.03125V14.4688C0 15.3652 0.697266 16.0625 1.59375 16.0625H2.125V16.5938C2.125 16.8926 2.35742 17.125 2.65625 17.125H3.71875C3.98438 17.125 4.25 16.8926 4.25 16.5938V16.0625H8.5V16.5938C8.5 16.8926 8.73242 17.125 9.03125 17.125H10.0938C10.3594 17.125 10.625 16.8926 10.625 16.5938V16.0625H11.1562C12.0195 16.0625 12.75 15.3652 12.75 14.4688V7.03125C12.75 6.16797 12.0195 5.4375 11.1562 5.4375ZM10.625 12.6094C10.625 12.7754 10.4922 12.875 10.3594 12.875H2.39062C2.22461 12.875 2.125 12.7754 2.125 12.6094V12.0781C2.125 11.9453 2.22461 11.8125 2.39062 11.8125H10.3594C10.4922 11.8125 10.625 11.9453 10.625 12.0781V12.6094ZM10.625 9.42188C10.625 9.58789 10.4922 9.6875 10.3594 9.6875H2.39062C2.22461 9.6875 2.125 9.58789 2.125 9.42188V8.89062C2.125 8.75781 2.22461 8.625 2.39062 8.625H10.3594C10.4922 8.625 10.625 8.75781 10.625 8.89062V9.42188ZM4.78125 1.71875H7.96875V4.375H9.5625V1.71875C9.5625 0.855469 8.83203 0.125 7.96875 0.125H4.78125C3.88477 0.125 3.1875 0.855469 3.1875 1.71875V4.375H4.78125V1.71875Z" fill="#D0112B"/>
</svg>
