<svg width="42" height="33" viewBox="0 0 42 33" fill="none" xmlns="http://www.w3.org/2000/svg">
<path d="M40.4316 12H35.2988L26.2285 1.38281C25.5957 0.679688 24.541 0.609375 23.8379 1.17188C23.1348 1.80469 23.0644 2.85938 23.6269 3.5625L30.8691 12H11.1113L18.3535 3.5625C18.916 2.85938 18.8457 1.80469 18.1426 1.17188C17.4394 0.609375 16.3848 0.679688 15.7519 1.38281L6.68163 12H1.61913C1.12695 12 0.775383 12.4219 0.775383 12.8438V14.5312C0.775383 15.0234 1.12695 15.375 1.61913 15.375H2.88476L4.85351 29.3672C5.06445 31.0547 6.4707 32.25 8.1582 32.25H33.8223C35.5098 32.25 36.916 31.0547 37.1269 29.3672L39.0957 15.375H40.4316C40.8535 15.375 41.2754 15.0234 41.2754 14.5312V12.8438C41.2754 12.4219 40.8535 12 40.4316 12ZM33.8223 28.875H8.1582L6.33007 15.375H35.6504L33.8223 28.875ZM22.7129 19.3125C22.7129 18.3984 21.9394 17.625 21.0254 17.625C20.041 17.625 19.3379 18.3984 19.3379 19.3125V24.9375C19.3379 25.9219 20.041 26.625 21.0254 26.625C21.9394 26.625 22.7129 25.9219 22.7129 24.9375V19.3125ZM30.5879 19.3125C30.5879 18.3984 29.8144 17.625 28.9004 17.625C27.916 17.625 27.2129 18.3984 27.2129 19.3125V24.9375C27.2129 25.9219 27.916 26.625 28.9004 26.625C29.8144 26.625 30.5879 25.9219 30.5879 24.9375V19.3125ZM14.8379 19.3125C14.8379 18.3984 14.0644 17.625 13.1504 17.625C12.166 17.625 11.4629 18.3984 11.4629 19.3125V24.9375C11.4629 25.9219 12.166 26.625 13.1504 26.625C14.0644 26.625 14.8379 25.9219 14.8379 24.9375V19.3125Z" fill="#D0112B"/>
</svg>
