<svg width="32" height="32" viewBox="0 0 32 32" fill="none" xmlns="http://www.w3.org/2000/svg">
	<circle cx="16" cy="16" r="15.5" stroke="black"/>
	<path d="M13.0312 23.1016C12.5625 23.1016 12.25 23.4531 12.25 23.8828V25.7188C12.25 26.1875 12.5625 26.5 13.0312 26.5H18.9688C19.3984 26.5 19.75 26.1875 19.75 25.7188V23.8828C19.75 23.4531 19.3984 23.1016 18.9688 23.1016H18.1875V14.7812C18.1875 14.3516 17.8359 14 17.4062 14H13.0312C12.5625 14 12.25 14.3516 12.25 14.7812V16.6562C12.25 17.0859 12.5625 17.4375 13.0312 17.4375H13.8125V23.1016H13.0312ZM16 6.5C14.4375 6.5 13.1875 7.78906 13.1875 9.3125C13.1875 10.875 14.4375 12.125 16 12.125C17.5234 12.125 18.8125 10.875 18.8125 9.3125C18.8125 7.78906 17.5234 6.5 16 6.5Z" fill="black"/>
</svg>
