<svg width="28" height="28" viewBox="0 0 28 28" fill="none" xmlns="http://www.w3.org/2000/svg">
	<path d="M14 0C6.26316 0 0 6.26316 0 14C0 21.7368 6.26316 28 14 28C21.7368 28 28 21.7368 28 14C28 6.26316 21.7368 0 14 0ZM12.5263 19.6368C12.0474 19.7474 11.5316 19.7842 11.0158 19.7842C10.3895 19.7842 9.8 19.6737 9.24737 19.4895C8.69474 19.3053 8.21579 18.9737 7.77368 18.5684C7.33158 18.1263 7 17.5737 6.77895 16.9105C6.52105 16.2105 6.41053 15.4 6.41053 14.4053C6.41053 13.3737 6.55789 12.5263 6.81579 11.8632C7.07368 11.2 7.47895 10.6105 7.92105 10.2053C8.36316 9.8 8.87895 9.46842 9.43158 9.32105C9.98421 9.13684 10.5368 9.06316 11.0895 9.06316C11.6789 9.06316 12.1947 9.1 12.6 9.17368C13.0053 9.24737 13.3368 9.35789 13.5947 9.46842L13.1895 11.2C12.9684 11.0895 12.7105 11.0158 12.3789 10.9789C12.0842 10.9421 11.6789 10.9053 11.2368 10.9053C10.4263 10.9053 9.76316 11.2 9.24737 11.7895C8.73158 12.3789 8.51053 13.2632 8.51053 14.5158C8.51053 15.0316 8.58421 15.5474 8.69474 15.9895C8.80526 16.4316 8.98947 16.8 9.24737 17.1316C9.50526 17.4263 9.8 17.6842 10.1316 17.8684C10.5 18.0526 10.9053 18.1263 11.3842 18.1263C11.8263 18.1263 12.1947 18.0895 12.4895 17.9789C12.7842 17.9053 13.0789 17.7947 13.3 17.6474L13.7053 19.3053C13.4105 19.3789 13.0053 19.5632 12.5263 19.6368ZM20.3 19.6368C19.8211 19.7474 19.3053 19.7842 18.7895 19.7842C18.1632 19.7842 17.5737 19.6737 17.0211 19.4895C16.4684 19.3053 15.9895 18.9737 15.5474 18.5684C15.1053 18.1263 14.7737 17.5737 14.5526 16.9105C14.2947 16.2105 14.1842 15.4 14.1842 14.4053C14.1842 13.3737 14.3316 12.5263 14.5895 11.8632C14.8474 11.2 15.2526 10.6105 15.6947 10.2053C16.1368 9.8 16.6526 9.46842 17.2053 9.32105C17.7579 9.13684 18.3105 9.06316 18.8632 9.06316C19.4526 9.06316 19.9684 9.1 20.3737 9.17368C20.7789 9.24737 21.1105 9.35789 21.3684 9.46842L20.9632 11.2C20.7421 11.0895 20.4842 11.0158 20.1526 10.9789C19.8579 10.9421 19.4526 10.9053 19.0105 10.9053C18.2 10.9053 17.5368 11.2 17.0211 11.7895C16.5053 12.3789 16.2842 13.2632 16.2842 14.5158C16.2842 15.0316 16.3579 15.5474 16.4684 15.9895C16.5789 16.4316 16.7632 16.8 17.0211 17.1316C17.2789 17.4263 17.5737 17.6842 17.9053 17.8684C18.2737 18.0526 18.6789 18.1263 19.1579 18.1263C19.6 18.1263 19.9684 18.0895 20.2632 17.9789C20.5579 17.9053 20.8526 17.7947 21.0737 17.6474L21.4789 19.3053C21.1842 19.3789 20.7789 19.5632 20.3 19.6368Z" fill="black"/>
</svg>