<svg width="25" height="25" viewBox="0 0 25 25" fill="none" xmlns="http://www.w3.org/2000/svg">
	<path d="M24.6094 12.625C24.6094 5.98438 19.1406 0.515625 12.5 0.515625C5.81055 0.515625 0.390625 5.98438 0.390625 12.625C0.390625 19.3145 5.81055 24.7344 12.5 24.7344C19.1406 24.7344 24.6094 19.3145 24.6094 12.625ZM12.793 4.51953C15.5762 4.51953 18.5059 6.66797 18.5059 9.5C18.5059 13.3086 14.4531 13.3574 14.4531 14.7246V14.7734C14.4531 15.1152 14.1602 15.3594 13.8672 15.3594H11.1328C10.791 15.3594 10.5469 15.1152 10.5469 14.7734V14.5781C10.5469 12.5762 12.0605 11.7949 13.1836 11.1602C14.1602 10.623 14.7949 10.2324 14.7949 9.5C14.7949 8.52344 13.5254 7.88867 12.5488 7.88867C11.2305 7.88867 10.6445 8.52344 9.76562 9.64648C9.57031 9.89062 9.17969 9.93945 8.93555 9.74414L7.22656 8.47461C6.98242 8.2793 6.93359 7.9375 7.12891 7.64453C8.44727 5.64258 10.1562 4.51953 12.793 4.51953ZM12.5 16.6289C13.7207 16.6289 14.7461 17.6543 14.7461 18.875C14.7461 20.1445 13.7207 21.1211 12.5 21.1211C11.2305 21.1211 10.2539 20.1445 10.2539 18.875C10.2539 17.6543 11.2305 16.6289 12.5 16.6289Z" fill="#D0112B"/>
</svg>