<svg width="21" height="21" viewBox="0 0 21 21" fill="none" xmlns="http://www.w3.org/2000/svg">
	<path d="M10.5 11.75C13.5859 11.75 16.125 9.25 16.125 6.125C16.125 3.03906 13.5859 0.5 10.5 0.5C7.375 0.5 4.875 3.03906 4.875 6.125C4.875 9.25 7.375 11.75 10.5 11.75ZM15.5 13H13.3125C12.4531 13.4297 11.5156 13.625 10.5 13.625C9.48438 13.625 8.50781 13.4297 7.64844 13H5.5C2.72656 13 0.5 15.2656 0.5 18V18.625C0.5 19.6797 1.32031 20.5 2.375 20.5H18.625C19.6406 20.5 20.5 19.6797 20.5 18.625V18C20.5 15.2656 18.2344 13 15.5 13Z" fill="black"/>
</svg>