<svg width="113" height="112" viewBox="0 0 113 112" fill="none" xmlns="http://www.w3.org/2000/svg">
<path d="M79.04 78.26C71.2 78.26 64.9 71.96 64.9 64.12C64.9 56.28 71.2 49.98 79.04 49.98C86.88 49.98 93.18 56.28 93.18 64.12C93.18 71.96 86.74 78.26 79.04 78.26Z" fill="#CF122C"/>
<path d="M79.04 90.2999C76.94 90.2999 75.68 88.4799 74.56 87.0799C74.14 86.5199 73.58 85.6799 73.16 85.5399C72.88 85.5399 71.9 85.9599 71.2 86.2399C69.66 86.9399 67.56 87.7799 65.88 86.7999C64.06 85.8199 63.78 83.5799 63.64 81.8999C63.5 81.1999 63.36 80.0799 63.22 79.7999C62.94 79.6599 61.96 79.5199 61.26 79.3799C59.58 79.0999 57.34 78.8199 56.36 77.1399C55.38 75.3199 56.22 73.3599 56.92 71.8199C57.2 71.2599 57.62 70.1399 57.62 69.8599C57.48 69.7199 56.64 69.0199 56.08 68.5999C54.68 67.4799 52.86 66.2199 52.86 64.1199C52.86 62.0199 54.68 60.7599 56.08 59.6399C56.64 59.2199 57.48 58.6599 57.62 58.2399C57.62 57.9599 57.2 56.9799 56.92 56.2799C56.22 54.5999 55.38 52.6399 56.36 50.9599C57.34 49.1399 59.58 48.8599 61.26 48.7199C61.96 48.5799 63.08 48.4399 63.36 48.2999C63.5 48.0199 63.64 47.0399 63.78 46.3399C64.06 44.6599 64.34 42.4199 66.02 41.4399C67.7 40.4599 69.8 41.2999 71.34 41.9999C71.9 42.2799 73.02 42.6999 73.3 42.6999C73.44 42.5599 74.14 41.7199 74.56 41.1599C75.68 39.7599 76.94 37.9399 79.04 37.9399C81.14 37.9399 82.4 39.7599 83.52 41.1599C83.94 41.7199 84.5 42.5599 84.92 42.6999C85.2 42.6999 86.18 42.2799 86.88 41.9999C88.56 41.2999 90.52 40.4599 92.2 41.4399C94.02 42.4199 94.3 44.6599 94.44 46.3399C94.58 47.0399 94.72 48.1599 94.86 48.4399C95.14 48.5799 96.12 48.7199 96.82 48.8599C98.5 49.1399 100.74 49.4199 101.72 51.0999C102.7 52.9199 101.86 54.8799 101.16 56.4199C100.88 56.9799 100.46 58.0999 100.46 58.3799C100.6 58.5199 101.44 59.2199 102 59.6399C103.4 60.7599 105.22 62.0199 105.22 64.1199C105.22 66.2199 103.4 67.4799 102 68.5999C101.44 69.0199 100.6 69.5799 100.46 69.9999C100.46 70.2799 100.88 71.2599 101.16 71.9599C101.86 73.6399 102.7 75.5999 101.72 77.2799C100.74 79.0999 98.5 79.3799 96.82 79.5199C96.12 79.6599 95 79.7999 94.72 79.9399C94.58 80.2199 94.44 81.1999 94.3 81.8999C94.02 83.5799 93.74 85.8199 92.06 86.7999C90.38 87.7799 88.28 86.9399 86.74 86.2399C86.18 85.9599 85.06 85.5399 84.78 85.5399C84.64 85.6799 83.94 86.5199 83.52 87.0799C82.4 88.6199 81 90.2999 79.04 90.2999ZM73.3 81.6199C73.58 81.6199 74 81.6199 74.28 81.7599C75.82 82.1799 76.8 83.4399 77.78 84.6999C78.2 85.1199 78.76 85.9599 79.04 86.2399C79.46 85.9599 80.02 85.2599 80.3 84.6999C81.28 83.4399 82.26 82.1799 83.8 81.7599C85.34 81.3399 87.02 82.0399 88.42 82.5999C88.98 82.8799 89.82 83.1599 90.24 83.2999C90.24 83.0199 90.38 82.0399 90.52 81.4799C90.66 79.9399 90.94 78.2599 92.06 77.1399C93.18 76.0199 94.86 75.7399 96.4 75.5999C96.96 75.4599 97.8 75.4599 98.22 75.3199C98.08 74.8999 97.8 74.0599 97.52 73.6399C96.96 72.2399 96.26 70.5599 96.68 69.0199C97.1 67.4799 98.36 66.4999 99.62 65.5199C100.04 65.0999 100.88 64.5399 101.16 64.2599C100.88 63.8399 100.18 63.2799 99.62 62.9999C98.36 62.0199 97.1 61.0399 96.68 59.4999C96.26 57.9599 96.96 56.2799 97.52 54.8799C97.8 54.3199 98.08 53.4799 98.22 53.0599C97.94 53.0599 96.96 52.9199 96.4 52.7799C94.86 52.6399 93.18 52.3599 92.06 51.2399C90.94 50.1199 90.66 48.4399 90.52 46.8999C90.38 46.3399 90.38 45.4999 90.24 45.0799C89.82 45.2199 88.98 45.4999 88.56 45.7799C87.16 46.3399 85.48 47.0399 83.94 46.6199C82.4 46.1999 81.42 44.9399 80.44 43.6799C80.02 43.2599 79.46 42.4199 79.18 42.1399C78.76 42.4199 78.2 43.1199 77.92 43.6799C76.94 44.9399 75.96 46.1999 74.42 46.6199C72.88 47.0399 71.2 46.3399 69.8 45.7799C69.24 45.4999 68.4 45.2199 67.98 45.0799C67.98 45.3599 67.84 46.3399 67.7 46.8999C67.56 48.4399 67.28 50.1199 66.16 51.2399C65.04 52.3599 63.36 52.6399 61.82 52.7799C61.26 52.9199 60.42 52.9199 60 53.0599C60.14 53.4799 60.42 54.3199 60.7 54.7399C61.26 56.1399 61.96 57.8199 61.54 59.3599C61.12 60.8999 59.86 61.8799 58.6 62.8599C58.18 63.2799 57.34 63.8399 57.06 64.1199C57.34 64.5399 58.04 65.0999 58.6 65.3799C59.86 66.3599 61.12 67.3399 61.54 68.8799C61.96 70.4199 61.26 72.0999 60.7 73.4999C60.42 74.0599 60.14 74.8999 60 75.3199C60.28 75.3199 61.26 75.4599 61.82 75.5999C63.36 75.7399 65.04 76.0199 66.16 77.1399C67.28 78.2599 67.56 79.9399 67.7 81.4799C67.84 82.0399 67.84 82.8799 67.98 83.2999C68.4 83.1599 69.24 82.8799 69.66 82.5999C70.78 82.1799 72.04 81.6199 73.3 81.6199Z" fill="#CF122C"/>
<path d="M87.02 104.44C86.32 104.44 85.62 104.02 85.2 103.46L77.08 89.32C76.52 88.34 76.8 87.08 77.78 86.52C78.76 85.96 80.02 86.24 80.58 87.22L86.74 98.14L89.12 93.38C89.54 92.54 90.38 92.12 91.36 92.26L97.1 93.38L91.22 83.02C90.66 82.04 90.94 80.78 91.92 80.22C92.9 79.66 94.16 79.94 94.72 80.92L102.84 95.06C103.26 95.76 103.12 96.6 102.7 97.3C102.28 98 101.44 98.28 100.6 98.14L92.2 96.6L88.84 103.32C88.56 104.02 87.86 104.44 87.02 104.44C87.16 104.44 87.02 104.44 87.02 104.44Z" fill="#CF122C"/>
<path d="M70.92 104.44C70.08 104.44 69.38 104.02 69.1 103.32L65.74 96.5998L57.2 98.2798C56.36 98.4198 55.66 98.1398 55.1 97.4398C54.68 96.7398 54.54 95.8998 54.96 95.1998L63.08 81.1998C63.64 80.2198 64.9 79.9398 65.88 80.4998C66.86 81.0598 67.14 82.3198 66.58 83.2998L60.7 93.5198L66.44 92.3998C67.28 92.2598 68.26 92.6798 68.68 93.5198L71.06 98.2798L77.22 87.3598C77.78 86.3798 79.04 86.0998 80.02 86.6598C81 87.2198 81.28 88.4798 80.72 89.4598L72.6 103.6C72.32 104.16 71.62 104.44 70.92 104.44Z" fill="#CF122C"/>
<path d="M56.78 104.44H10.3C9.18003 104.44 8.34003 103.6 8.34003 102.48V9.51992C8.20003 8.39992 9.18003 7.41992 10.3 7.41992H64.9C66.02 7.41992 66.86 8.25992 66.86 9.37992V27.5799H85.06C86.18 27.5799 87.02 28.4199 87.02 29.5399V35.5599C87.02 36.6799 86.18 37.5199 85.06 37.5199C83.94 37.5199 83.1 36.6799 83.1 35.5599V31.4999H64.9C63.78 31.4999 62.94 30.6599 62.94 29.5399V11.3399H12.26V100.24H56.78C57.9 100.24 58.74 101.08 58.74 102.2C58.74 103.6 57.9 104.44 56.78 104.44Z" fill="#CF122C"/>
<path d="M85.0599 31.7801H64.8999C63.7799 31.7801 62.9399 30.9401 62.9399 29.8201V9.52006C62.9399 8.68006 63.4999 7.98006 64.1999 7.70006C64.8999 7.42006 65.8799 7.56006 66.4399 8.12006L86.5999 28.2801C87.1599 28.8401 87.2999 29.6801 87.0199 30.5201C86.5999 31.2201 85.8999 31.7801 85.0599 31.7801ZM66.8599 27.7201H80.1599L66.8599 14.4201V27.7201Z" fill="#CF122C"/>
<path d="M58.74 43.8199H22.34C21.22 43.8199 20.38 42.9799 20.38 41.8599C20.38 40.7399 21.22 39.8999 22.34 39.8999H58.74C59.86 39.8999 60.7 40.7399 60.7 41.8599C60.84 42.9799 59.86 43.8199 58.74 43.8199Z" fill="#CF122C"/>
<path d="M50.76 53.9H22.34C21.22 53.9 20.38 53.06 20.38 51.94C20.38 50.82 21.22 49.98 22.34 49.98H50.62C51.74 49.98 52.58 50.82 52.58 51.94C52.72 53.06 51.88 53.9 50.76 53.9Z" fill="#CF122C"/>
<path d="M48.66 64.1202H22.34C21.22 64.1202 20.38 63.2802 20.38 62.1602C20.38 61.0402 21.22 60.2002 22.34 60.2002H48.66C49.78 60.2002 50.62 61.0402 50.62 62.1602C50.76 63.1402 49.78 64.1202 48.66 64.1202Z" fill="#CF122C"/>
<path d="M48.66 74.1998H22.34C21.22 74.1998 20.38 73.3598 20.38 72.2398C20.38 71.1198 21.22 70.2798 22.34 70.2798H48.66C49.78 70.2798 50.62 71.1198 50.62 72.2398C50.76 73.2198 49.78 74.1998 48.66 74.1998Z" fill="#CF122C"/>
<path d="M48.66 84.2799H22.34C21.22 84.2799 20.38 83.4399 20.38 82.3199C20.38 81.1999 21.22 80.3599 22.34 80.3599H48.66C49.78 80.3599 50.62 81.1999 50.62 82.3199C50.76 83.2999 49.78 84.2799 48.66 84.2799Z" fill="#CF122C"/>
<path d="M48.66 94.3599H36.48C35.36 94.3599 34.52 93.5199 34.52 92.3999C34.52 91.2799 35.36 90.4399 36.48 90.4399H48.66C49.78 90.4399 50.62 91.2799 50.62 92.3999C50.62 93.5199 49.78 94.3599 48.66 94.3599Z" fill="#CF122C"/>
<path d="M54.26 19.46C52.3 18.34 49.78 18.34 47.12 19.6L41.8 22.12L32.56 17.5H32.42L26.82 17.78C26.68 17.78 26.54 17.92 26.54 17.92C26.54 18.06 26.54 18.2 26.54 18.2L34.1 25.76L29.62 27.86L24.58 25.9C24.44 25.9 24.44 25.9 24.3 25.9L20.8 27.58C20.66 27.58 20.66 27.72 20.66 27.72C20.66 27.86 20.66 27.86 20.66 28L23.6 31.64C23.04 32.34 23.18 32.9 23.32 33.32C23.74 34.16 24.86 34.58 26.68 34.58C27.1 34.58 27.38 34.58 27.8 34.58C29.76 34.44 31.86 33.88 33.12 33.32L52.72 24.22C54.54 23.38 55.38 22.54 55.52 21.42C55.66 20.86 55.38 20.16 54.26 19.46Z" fill="#56575B"/>
</svg>
