<svg width="102" height="65" viewBox="0 0 102 65" fill="none" xmlns="http://www.w3.org/2000/svg">
	<g clip-path="url(#clip0)">
		<path d="M12.4625 37.6265C14.4811 39.9235 13.089 44.1 9.81738 44.1" stroke="#D0112B" stroke-width="3" stroke-miterlimit="10" stroke-linecap="round" stroke-linejoin="round"/>
		<path d="M13.6465 42.1509C13.6465 42.1509 27.5681 46.3274 39.5406 48.6941C42.6033 49.3206 45.5965 49.947 48.6592 50.4343C51.0955 50.8519 53.671 51.1304 56.1073 50.5039C57.9171 50.0166 59.5181 48.9029 60.423 47.2323C61.6759 44.9353 61.7455 41.9421 60.1445 39.8539C59.3788 38.8098 58.1955 38.1833 57.0122 37.696" stroke="#D0112B" stroke-width="3" stroke-miterlimit="10" stroke-linecap="round" stroke-linejoin="round"/>
		<path d="M12.9502 28.5774C5.71099 29.7608 1.3953 36.4431 1.53452 41.5941C1.67373 46.7451 4.73648 49.6686 6.89432 51.3392C11.21 54.6107 30.561 59.9009 47.5453 63.0333C62.9982 65.8872 70.3071 59.9009 70.3071 59.9009C70.3071 59.9009 83.8806 49.8774 96.2012 35.9558C99.1943 31.5009 100.935 26.4892 99.3335 21.1294C97.9414 16.2568 93.9737 11.8019 89.31 10.0617C84.9943 8.46075 80.8179 8.25193 76.363 7.27742C71.4904 6.16369 67.7316 5.81565 62.859 4.84114C59.309 4.14507 56.5247 3.5186 52.6267 2.61369C49.2855 1.7784 45.5963 0.595066 43.3688 1.49997C40.9326 2.54409 37.8002 3.86663 35.5031 5.04997C30.1433 7.83428 8.28648 17.3706 8.28648 17.4402C6.40707 18.2058 4.52766 20.2941 4.59726 22.3823C4.66687 25.097 7.52079 26.8372 9.81785 27.6029C10.4443 27.8117 11.1404 27.9509 11.7669 28.1598C13.0894 28.5078 14.412 28.7862 15.8041 29.0647C16.9875 29.2735 18.2404 29.5519 19.4237 29.7607C26.2453 31.0833 49.7728 36.1647 54.2973 37C58.7522 37.7657 60.3531 37.5568 63.1375 35.5382" stroke="#D0112B" stroke-width="3" stroke-miterlimit="10" stroke-linecap="round" stroke-linejoin="round"/>
	</g>
	<defs>
		<clipPath id="clip0">
			<rect width="100.514" height="64.7353" fill="white" transform="translate(0.490234 0.107788)"/>
		</clipPath>
	</defs>
</svg>