<svg width="168" height="64" viewBox="0 0 168 64" fill="none" xmlns="http://www.w3.org/2000/svg">
<path d="M8 28V20C8 17.875 6.125 16 4 16C1.75 16 0 17.875 0 20V28C0 30.25 1.75 32 4 32C6.125 32 8 30.25 8 28ZM52 16C49.75 16 48 17.875 48 20V28C48 30.25 49.75 32 52 32C54.125 32 56 30.25 56 28V20C56 17.875 54.125 16 52 16ZM44 8C44 3.625 40.375 0 36 0H20C15.5 0 12 3.625 12 8V32H44V8ZM50.375 38.75C49.875 37.25 48.25 36 46.625 36H9.25C7.5 36 6 37.125 5.5 38.75L4.125 42.75C3.25 45.375 5.25 48 8 48H24V56.5C20.375 57.25 17.625 59 16.25 61.125C15.375 62.375 16.5 64 18.125 64H37.75C39.375 64 40.5 62.375 39.625 61.125C38.25 59 35.5 57.25 32 56.5V48H47.875C50.625 48 52.625 45.375 51.75 42.75L50.375 38.75Z" fill="#D0112B"/>
<path d="M64 28V20C64 17.875 62.125 16 60 16C57.75 16 56 17.875 56 20V28C56 30.25 57.75 32 60 32C62.125 32 64 30.25 64 28ZM108 16C105.75 16 104 17.875 104 20V28C104 30.25 105.75 32 108 32C110.125 32 112 30.25 112 28V20C112 17.875 110.125 16 108 16ZM100 8C100 3.625 96.375 0 92 0H76C71.5 0 68 3.625 68 8V32H100V8ZM106.375 38.75C105.875 37.25 104.25 36 102.625 36H65.25C63.5 36 62 37.125 61.5 38.75L60.125 42.75C59.25 45.375 61.25 48 64 48H80V56.5C76.375 57.25 73.625 59 72.25 61.125C71.375 62.375 72.5 64 74.125 64H93.75C95.375 64 96.5 62.375 95.625 61.125C94.25 59 91.5 57.25 88 56.5V48H103.875C106.625 48 108.625 45.375 107.75 42.75L106.375 38.75Z" fill="#D0112B"/>
<path d="M120 28V20C120 17.875 118.125 16 116 16C113.75 16 112 17.875 112 20V28C112 30.25 113.75 32 116 32C118.125 32 120 30.25 120 28ZM164 16C161.75 16 160 17.875 160 20V28C160 30.25 161.75 32 164 32C166.125 32 168 30.25 168 28V20C168 17.875 166.125 16 164 16ZM156 8C156 3.625 152.375 0 148 0H132C127.5 0 124 3.625 124 8V32H156V8ZM162.375 38.75C161.875 37.25 160.25 36 158.625 36H121.25C119.5 36 118 37.125 117.5 38.75L116.125 42.75C115.25 45.375 117.25 48 120 48H136V56.5C132.375 57.25 129.625 59 128.25 61.125C127.375 62.375 128.5 64 130.125 64H149.75C151.375 64 152.5 62.375 151.625 61.125C150.25 59 147.5 57.25 144 56.5V48H159.875C162.625 48 164.625 45.375 163.75 42.75L162.375 38.75Z" fill="#D0112B"/>
</svg>
