<svg width="72" height="65" viewBox="0 0 72 65" fill="none" xmlns="http://www.w3.org/2000/svg">
	<path d="M36 0C27.25 0 20.25 7.125 20.25 15.75C20.25 22.875 30.5 35.625 34.375 40.375C35.25 41.25 36.625 41.25 37.5 40.375C41.375 35.625 51.75 22.875 51.75 15.75C51.75 7.125 44.625 0 36 0ZM36 21C33 21 30.75 18.75 30.75 15.75C30.75 12.875 33 10.5 36 10.5C38.875 10.5 41.25 12.875 41.25 15.75C41.25 18.75 38.875 21 36 21ZM2.5 27C1.125 27.625 0 29.25 0 30.75V62C0 63.5 1.375 64.5 2.625 63.875L20 56V26.875C18.875 24.875 17.875 23 17.25 21.125L2.5 27ZM36 45C34.125 45 32.5 44.25 31.375 42.875C28.875 40 26.25 36.75 24 33.25V56L48 64V33.25C45.625 36.75 43 40 40.5 42.875C39.375 44.25 37.75 45 36 45ZM69.25 20.25L52 28V64L69.375 57.125C70.75 56.5 72 54.875 72 53.375V22.125C72 20.625 70.5 19.625 69.25 20.25Z" fill="#D0112B"/>
</svg>