<svg width="36" height="36" viewBox="0 0 36 36" fill="none" xmlns="http://www.w3.org/2000/svg">
<circle cx="18" cy="18" r="18" fill="#D0112B"/>
<path d="M15.1094 18.1641C14.0156 15.1953 15.3047 11.9141 17.9609 10.3906C17.6484 10.1562 17.2969 9.96094 16.9062 9.80469C14.2109 8.82812 11.2031 10.2344 10.2266 12.9297C10.1875 13.0078 9.64062 14.5312 9.60156 14.6094C8.46875 17.7344 7.02344 18.2812 6.20312 18.7109C5.42188 19.1016 5.46094 20.2734 6.32031 20.625L15.8125 24.0625C16.1641 23.3203 16.5938 22.3047 15.6953 19.8438C15.3047 18.7891 15.4609 19.1797 15.1094 18.1641ZM11.0469 25.625C12.1016 26.0156 13.2734 25.5859 13.8984 24.6875L9.40625 23.0469C9.32812 24.1406 9.95312 25.2344 11.0469 25.625ZM25.2266 26.875C26.3203 26.4844 26.9453 25.3906 26.8672 24.2969L22.375 25.9375C23 26.8359 24.1719 27.2656 25.2266 26.875ZM30.0703 19.9609C29.25 19.5312 27.8047 18.9844 26.6719 15.8594C26.6328 15.7812 26.0859 14.2578 26.0469 14.1797C25.0703 11.4844 22.1016 10.0781 19.3672 11.0938C16.6719 12.0703 15.2656 15.0391 16.2812 17.7344C16.2812 17.8516 16.8281 19.3359 16.8672 19.4141C18 22.5391 17.2578 23.9062 16.9062 24.7656C16.5547 25.5469 17.3359 26.4453 18.1953 26.1328L29.9531 21.875C30.7734 21.5625 30.9297 20.3906 30.0703 19.9609Z" fill="white"/>
</svg>
