<svg width="32" height="32" viewBox="0 0 32 32" fill="none" xmlns="http://www.w3.org/2000/svg">
	<rect x="0.5" y="0.5" width="31" height="31" rx="15.5" stroke="#D0112B"/>
	<path d="M18.0625 16L21.1875 12.875C21.5938 12.5 21.5938 11.875 21.1875 11.5L20.5 10.8125C20.125 10.4062 19.5 10.4062 19.125 10.8125L16 13.9375L12.8438 10.8125C12.4688 10.4062 11.8438 10.4062 11.4688 10.8125L10.7812 11.5C10.375 11.875 10.375 12.5 10.7812 12.875L13.9062 16L10.7812 19.1562C10.375 19.5312 10.375 20.1562 10.7812 20.5312L11.4688 21.2188C11.8438 21.625 12.4688 21.625 12.8438 21.2188L16 18.0938L19.125 21.2188C19.5 21.625 20.125 21.625 20.5 21.2188L21.1875 20.5312C21.5938 20.1562 21.5938 19.5312 21.1875 19.1562L18.0625 16Z" fill="#D0112B"/>
</svg>