<svg width="124" height="124" viewBox="0 0 124 124" fill="none" xmlns="http://www.w3.org/2000/svg">
<path d="M52.235 111.91C51.925 111.91 51.615 111.91 51.305 111.755C7.43999 90.0548 12.09 28.6748 12.245 28.0548C12.4 26.9698 13.33 26.0398 14.415 26.0398C39.835 26.0398 52.7 12.0898 52.855 11.9348C53.63 11.0048 55.18 11.0048 55.955 11.9348C56.11 12.0898 69.13 26.0398 94.395 26.0398C95.48 26.0398 96.41 26.8148 96.565 28.0548C96.565 28.5198 97.495 39.5248 95.17 53.9398C95.015 55.0248 93.93 55.7998 92.69 55.6448C91.605 55.4898 90.675 54.4048 90.985 53.1648C92.69 42.6248 92.535 33.9448 92.38 30.2248C71.145 29.6048 58.59 20.1498 54.405 16.2748C50.22 20.1498 37.51 29.6048 16.43 30.2248C16.12 40.4548 16.275 89.5898 53.32 107.88C54.405 108.345 54.87 109.74 54.25 110.67C53.63 111.445 53.01 111.91 52.235 111.91Z" fill="#D0122C"/>
<path d="M52.235 99.3549C51.77 99.3549 51.46 99.1999 51.15 99.0449C27.745 84.0099 23.25 54.2499 22.63 37.6649C22.63 36.5799 23.405 35.6499 24.49 35.4949C37.665 33.6349 47.43 28.6749 53.165 24.7999C53.94 24.3349 54.87 24.3349 55.49 24.7999C61.225 28.6749 70.835 33.7899 84.165 35.4949C85.25 35.6499 86.025 36.5799 86.025 37.6649C85.715 46.8099 84.01 60.6049 78.43 73.4699C77.965 74.5549 76.725 75.0199 75.64 74.5549C74.555 74.0899 74.09 72.8499 74.555 71.7649C79.515 60.2949 81.22 48.0499 81.685 39.3699C69.44 37.3549 60.295 32.8599 54.405 28.9849C48.515 32.8599 39.215 37.3549 27.125 39.3699C28.055 55.3349 32.705 81.9949 53.475 95.3249C54.405 95.9449 54.715 97.3399 54.095 98.2699C53.475 98.8899 52.855 99.3549 52.235 99.3549Z" fill="#D0122C"/>
<path d="M75.175 89.1253V105.555L78.8951 108.035C78.8951 108.035 84.0101 110.67 84.3201 110.67C84.6301 110.67 105.4 110.67 105.4 110.67L106.64 104.16L109.12 96.5653L109.585 88.1953L106.33 83.2353L97.4951 82.3053L99.0451 71.4553L93.465 63.5503L91.4501 70.5253L89.59 75.0203L84.94 79.9803L80.6 83.8553L76.105 86.4903L75.175 89.1253Z" fill="#EBECEC"/>
<path d="M79.6699 89.1251H75.7949C74.7099 89.1251 73.9349 88.1951 73.9349 87.2651C73.9349 86.1801 74.8649 85.4051 75.7949 85.4051H77.9649C78.4299 83.3901 79.9799 80.4451 83.5449 79.3601C84.4749 78.8951 90.0549 75.7951 89.2799 67.7351C89.2799 67.7351 88.9699 65.7201 90.2099 64.1701C90.8299 63.3951 92.0699 62.6201 94.0849 62.6201C94.2399 62.6201 94.2399 62.6201 94.3949 62.6201C94.7049 62.6201 97.1849 63.0851 98.7349 65.7201C100.75 68.9751 100.44 74.2451 97.9599 81.2201C98.2699 81.3751 99.0449 81.5301 100.44 81.5301C101.525 81.5301 102.3 82.3051 102.3 83.3901C102.3 84.4751 101.525 85.2501 100.44 85.2501C97.6499 85.2501 95.7899 84.6301 94.7049 83.2351C93.9299 82.3051 93.9299 81.0651 94.2399 80.4451C97.1849 72.3851 96.4099 68.9751 95.6349 67.7351C95.0149 66.8051 94.2399 66.4951 94.0849 66.3401C93.6199 66.3401 93.3099 66.4951 93.3099 66.4951C93.1549 66.6501 93.1549 66.9601 93.1549 67.1151C94.0849 76.2601 88.3499 81.3751 85.0949 82.7701C84.9399 82.7701 84.9399 82.7701 84.7849 82.9251C81.6849 83.7001 81.5299 87.2651 81.3749 87.4201C81.5299 88.3501 80.7549 89.1251 79.6699 89.1251Z" fill="#56575B" stroke="#56575B" stroke-width="0.5" stroke-miterlimit="10"/>
<path d="M91.915 111.91H82.925C81.22 111.91 79.825 110.67 78.74 109.585C78.12 108.965 77.19 108.19 76.725 108.19H75.95C74.865 108.19 74.09 107.415 74.09 106.33C74.09 105.245 74.865 104.47 75.95 104.47H76.88C78.895 104.47 80.29 105.865 81.53 106.95C81.995 107.415 82.77 108.19 83.08 108.19H91.915C93 108.19 93.775 108.965 93.775 110.05C93.775 111.135 93 111.91 91.915 111.91Z" fill="#56575B" stroke="#56575B" stroke-width="0.5" stroke-miterlimit="10"/>
<path d="M103.54 111.91H89.2799C88.1949 111.91 87.4199 111.135 87.4199 110.05C87.4199 108.965 88.1949 108.19 89.2799 108.19H103.54C104.005 108.19 104.47 107.725 104.47 107.26C104.47 106.95 104.315 106.64 104.16 106.485C103.54 105.865 103.23 105.245 103.385 104.47C103.54 103.695 104.005 103.075 104.625 102.765C104.935 102.61 105.245 102.61 105.555 102.61C106.02 102.61 106.485 102.145 106.485 101.68C106.485 101.215 106.175 100.905 105.865 100.75C105.09 100.44 104.315 99.5103 104.47 98.7353C104.625 97.8053 105.4 97.0303 106.33 96.8753C106.485 96.8753 106.485 96.8753 106.64 96.8753C107.725 96.8753 108.5 96.1003 108.5 95.0153C108.5 94.0853 107.88 93.3103 106.95 93.1553C105.71 92.8453 105.245 91.9153 105.245 91.1403C105.245 90.2103 106.02 89.4353 106.95 89.2803C107.88 89.1253 108.5 88.3503 108.5 87.4203C108.5 86.3353 107.725 85.5603 106.64 85.5603H100.905C99.8199 85.5603 99.0449 84.7853 99.0449 83.7003C99.0449 82.6153 99.8199 81.8403 100.905 81.8403H106.64C109.74 81.8403 112.375 84.4753 112.375 87.5753C112.375 88.9703 111.755 90.3653 110.98 91.4503C111.91 92.5353 112.375 93.7753 112.375 95.3253C112.375 97.1853 111.445 98.8903 110.05 99.9753C110.36 100.595 110.515 101.215 110.515 101.99C110.515 103.695 109.585 105.09 108.345 106.02C108.5 106.485 108.655 107.105 108.655 107.725C108.19 109.74 106.02 111.91 103.54 111.91Z" fill="#56575B" stroke="#56575B" stroke-width="0.5" stroke-miterlimit="10"/>
<path d="M58.125 108.5V83.5454C58.125 83.3904 58.28 83.2354 58.435 83.2354H70.99C71.145 83.2354 71.3 83.3904 71.3 83.5454V108.5C71.3 108.655 71.145 108.81 70.99 108.81H58.435C58.125 108.81 58.125 108.655 58.125 108.5Z" fill="#CAC7C8"/>
<path d="M67.8901 86.6452V105.4H61.3801V86.6452H67.8901ZM70.6801 79.8252H57.3501C55.9551 79.8252 54.7151 81.0652 54.7151 82.6152V109.585C54.7151 111.135 55.9551 112.375 57.3501 112.375H71.7651C73.1601 112.375 74.4001 111.135 74.4001 109.585V83.5452C74.4001 81.5302 72.6951 79.8252 70.6801 79.8252Z" fill="white"/>
<path d="M69.905 84.6301V107.26H59.52V84.6301H69.905ZM71.3 79.5151H58.125C55.955 79.5151 54.25 81.2201 54.25 83.3901V108.655C54.25 110.825 55.955 112.53 58.125 112.53H71.3C73.47 112.53 75.175 110.825 75.175 108.655V83.3901C75.175 81.2201 73.47 79.5151 71.3 79.5151Z" fill="#56575B"/>
<path d="M59.365 57.5048C66.03 57.1948 69.905 54.4048 69.905 51.1498C69.905 47.5848 65.565 44.7948 58.125 44.7948H57.04L59.21 42.7798H55.955L50.685 44.9498H42.16C39.215 44.9498 37.51 45.7248 36.89 47.1198H54.405C59.21 47.1198 62.465 47.8948 62.465 51.1498C62.465 54.7148 58.59 55.4898 54.405 55.4898H46.5L53.475 62.9298C59.365 69.1298 64.945 70.2148 71.765 70.2148L59.365 57.5048Z" fill="#CF122C"/>
</svg>
