<svg width="42" height="42" viewBox="0 0 42 42" fill="none" xmlns="http://www.w3.org/2000/svg">
    <circle cx="21" cy="21" r="21" fill="#D0112B"/>
    <path d="M32.4844 18H29.3477L23.8047 11.5117C23.418 11.082 22.7734 11.0391 22.3438 11.3828C21.9141 11.7695 21.8711 12.4141 22.2148 12.8438L26.6406 18H14.5664L18.9922 12.8438C19.3359 12.4141 19.293 11.7695 18.8633 11.3828C18.4336 11.0391 17.7891 11.082 17.4023 11.5117L11.8594 18H8.76562C8.46484 18 8.25 18.2578 8.25 18.5156V19.5469C8.25 19.8477 8.46484 20.0625 8.76562 20.0625H9.53906L10.7422 28.6133C10.8711 29.6445 11.7305 30.375 12.7617 30.375H28.4453C29.4766 30.375 30.3359 29.6445 30.4648 28.6133L31.668 20.0625H32.4844C32.7422 20.0625 33 19.8477 33 19.5469V18.5156C33 18.2578 32.7422 18 32.4844 18ZM28.4453 28.3125H12.7617L11.6445 20.0625H29.5625L28.4453 28.3125ZM21.6562 22.4688C21.6562 21.9102 21.1836 21.4375 20.625 21.4375C20.0234 21.4375 19.5938 21.9102 19.5938 22.4688V25.9062C19.5938 26.5078 20.0234 26.9375 20.625 26.9375C21.1836 26.9375 21.6562 26.5078 21.6562 25.9062V22.4688ZM26.4688 22.4688C26.4688 21.9102 25.9961 21.4375 25.4375 21.4375C24.8359 21.4375 24.4062 21.9102 24.4062 22.4688V25.9062C24.4062 26.5078 24.8359 26.9375 25.4375 26.9375C25.9961 26.9375 26.4688 26.5078 26.4688 25.9062V22.4688ZM16.8438 22.4688C16.8438 21.9102 16.3711 21.4375 15.8125 21.4375C15.2109 21.4375 14.7812 21.9102 14.7812 22.4688V25.9062C14.7812 26.5078 15.2109 26.9375 15.8125 26.9375C16.3711 26.9375 16.8438 26.5078 16.8438 25.9062V22.4688Z" fill="white"/>
</svg>
