<svg width="61" height="61" viewBox="0 0 61 61" fill="none" xmlns="http://www.w3.org/2000/svg">
	<circle cx="30.5" cy="30.5" r="30.5" fill="#D0112B"/>
	<path d="M40.375 14.25L38 17L34.5625 14.25C34.4375 14.125 34.125 14 34 14C33.8125 14 33.5 14.125 33.375 14.25L30 17L26.5625 14.25C26.4375 14.125 26.125 14 26 14C25.8125 14 25.5 14.125 25.375 14.25L22 17L19.5625 14.25C18.9375 13.75 18 14.1875 18 15V45C18 45.875 18.9375 46.3125 19.5625 45.8125L22 43L25.375 45.8125C25.5 45.9375 25.8125 46.0625 26 46.0625C26.125 46.0625 26.4375 45.9375 26.5625 45.8125L30 43L33.375 45.8125C33.5 45.9375 33.8125 46.0625 34 46.0625C34.125 46.0625 34.4375 45.9375 34.5625 45.8125L38 43L40.375 45.8125C41 46.3125 42 45.875 42 45V15C42 14.1875 41.0625 13.75 40.375 14.25ZM38 36.5C38 36.8125 37.75 37 37.5 37H22.5C22.1875 37 22 36.8125 22 36.5V35.5C22 35.25 22.1875 35 22.5 35H37.5C37.75 35 38 35.25 38 35.5V36.5ZM38 30.5C38 30.8125 37.75 31 37.5 31H22.5C22.1875 31 22 30.8125 22 30.5V29.5C22 29.25 22.1875 29 22.5 29H37.5C37.75 29 38 29.25 38 29.5V30.5ZM38 24.5C38 24.8125 37.75 25 37.5 25H22.5C22.1875 25 22 24.8125 22 24.5V23.5C22 23.25 22.1875 23 22.5 23H37.5C37.75 23 38 23.25 38 23.5V24.5Z" fill="white"/>
</svg>
