<svg width="97" height="96" viewBox="0 0 97 83" fill="none" xmlns="http://www.w3.org/2000/svg">
	<g clip-path="url(#clip0)">
		<path d="M59.8385 59.1092C65.9788 52.9689 65.9788 43.0135 59.8385 36.8732C53.6982 30.7329 43.7427 30.7329 37.6024 36.8732C31.4621 43.0135 31.4621 52.9689 37.6024 59.1092C43.7427 65.2496 53.6982 65.2496 59.8385 59.1092Z" stroke="#D0112B" stroke-width="3" stroke-miterlimit="10" stroke-linecap="round" stroke-linejoin="round"/>
		<path d="M70.1005 69.372C81.9088 57.5637 81.9088 38.4187 70.1005 26.6104C58.2922 14.8021 39.1471 14.8021 27.3388 26.6104C15.5305 38.4187 15.5305 57.5637 27.3388 69.372C39.1471 81.1803 58.2922 81.1804 70.1005 69.372Z" stroke="#D0112B" stroke-width="3" stroke-miterlimit="10" stroke-linecap="round" stroke-linejoin="round"/>
		<path d="M74.6334 32.3405C80.3635 42.0046 80.3635 53.9779 74.6334 63.642C82.4161 62.7013 88.4027 56.0305 88.4027 47.9913C88.4027 39.9521 82.3305 33.3668 74.6334 32.3405ZM33.0691 73.9048C33.4967 77.4113 35.1217 80.7467 37.8584 83.3124C44.1871 89.299 54.1934 89.0425 60.18 82.7137C62.5747 80.148 63.943 77.0692 64.3706 73.9048C54.7065 79.6349 42.7332 79.6349 33.0691 73.9048ZM64.3706 22.0777C63.943 18.5712 62.2326 15.1503 59.4958 12.5846C53.0816 6.68349 43.1609 7.02559 37.2597 13.2688C34.9506 15.749 33.5822 18.8278 33.1546 21.9922C42.7332 16.3476 54.7065 16.3476 64.3706 22.0777ZM22.8063 32.3405C15.0237 33.2812 9.03705 39.9521 9.03705 47.9913C9.03705 56.0305 15.1092 62.6158 22.8063 63.642C17.0762 53.9779 17.0762 42.0046 22.8063 32.3405Z" stroke="#D0112B" stroke-width="3" stroke-miterlimit="10" stroke-linecap="round" stroke-linejoin="round"/>
		<path d="M37.6018 59.1092C36.4044 57.9119 35.4637 56.6291 34.7795 55.2607L23.2338 64.2406C24.3456 66.0366 25.714 67.7471 27.339 69.372C28.9639 70.997 30.6744 72.3654 32.4704 73.4772L41.4503 61.9315C40.0819 61.2473 38.7991 60.3066 37.6018 59.1092Z" fill="#D0112B"/>
		<path d="M59.8384 36.8732C61.0358 38.0705 61.9765 39.3534 62.6607 40.7217L74.2064 31.7418C73.0945 29.9458 71.6407 28.1498 70.1012 26.6104C68.5618 25.071 66.7658 23.6171 64.9698 22.5053L55.9899 34.0509C57.3583 34.7351 58.6411 35.6759 59.8384 36.8732Z" fill="#D0112B"/>
		<path d="M74.2064 64.2406L62.6607 55.2607C61.9765 56.6291 61.0358 57.9119 59.8384 59.1092C58.6411 60.3066 57.3583 61.2473 55.9899 61.9315L64.9698 73.4772C66.7658 72.3654 68.5618 70.9115 70.1012 69.372C71.6407 67.8326 73.0945 66.0366 74.2064 64.2406Z" fill="#D0112B"/>
		<path d="M23.2338 31.7418L34.7795 40.7217C35.4637 39.3534 36.49 37.985 37.6018 36.8732C38.7136 35.7614 40.0819 34.7351 41.4503 34.0509L32.4704 22.5053C30.6744 23.6171 28.9639 24.9854 27.339 26.6104C25.714 28.2353 24.3456 29.9458 23.2338 31.7418Z" fill="#D0112B"/>
	</g>
	<defs>
		<clipPath id="clip0">
			<rect width="67.731" height="67.731" fill="white" transform="translate(0.827148 47.9912) rotate(-45)"/>
		</clipPath>
	</defs>
</svg>
