<svg width="112" height="112" viewBox="0 0 112 112" fill="none" xmlns="http://www.w3.org/2000/svg">
<path d="M73.7799 44.7999C66.2199 44.7999 60.0599 38.6399 60.0599 31.0799C60.0599 23.5199 66.2199 17.3599 73.7799 17.3599C81.3399 17.3599 87.4999 23.5199 87.4999 31.0799C87.4999 38.6399 81.3399 44.7999 73.7799 44.7999Z" fill="#CF122C"/>
<path d="M73.7799 56.6999C71.8199 56.6999 70.4199 55.0199 69.4399 53.6199C69.0199 53.0599 68.4599 52.2199 68.1799 52.0799C67.8999 52.0799 66.9199 52.4999 66.3599 52.7799C64.8199 53.4799 62.8599 54.1799 61.1799 53.1999C59.4999 52.2199 59.2199 50.1199 58.9399 48.4399C58.7999 47.7399 58.6599 46.7599 58.5199 46.4799C58.2399 46.3399 57.2599 46.1999 56.5599 46.1999C54.8799 45.9199 52.7799 45.7799 51.7999 43.9599C50.8199 42.2799 51.6599 40.3199 52.2199 38.7799C52.4999 38.2199 52.9199 37.0999 52.9199 36.8199C52.7799 36.6799 51.9399 35.9799 51.5199 35.5599C50.1199 34.5799 48.4399 33.1799 48.4399 31.2199C48.4399 29.2599 50.1199 27.8599 51.5199 26.8799C52.0799 26.4599 52.9199 25.8999 53.0599 25.6199C53.0599 25.3399 52.6399 24.3599 52.3599 23.7999C51.6599 22.2599 50.9599 20.2999 51.9399 18.6199C52.9199 16.9399 55.0199 16.6599 56.6999 16.3799C57.3999 16.2399 58.3799 16.0999 58.6599 15.9599C58.7999 15.6799 58.9399 14.6999 58.9399 13.9999C59.2199 12.3199 59.3599 10.2199 61.1799 9.23988C62.8599 8.25988 64.8199 9.09988 66.3599 9.65988C66.9199 9.93988 68.0399 10.3599 68.3199 10.3599C68.4599 10.2199 69.1599 9.37988 69.5799 8.95988C70.5599 7.55988 71.9599 5.87988 73.9199 5.87988C75.8799 5.87988 77.2799 7.55988 78.2599 8.95988C78.6799 9.51988 79.2399 10.3599 79.5199 10.4999C79.7999 10.4999 80.7799 10.0799 81.3399 9.79988C82.8799 9.09988 84.8399 8.39988 86.5199 9.37988C88.1999 10.3599 88.4799 12.4599 88.7599 14.1399C88.8999 14.8399 89.0399 15.8199 89.1799 16.0999C89.4599 16.2399 90.4399 16.3799 91.1399 16.3799C92.8199 16.6599 94.9199 16.7999 95.8999 18.6199C96.8799 20.2999 96.0399 22.2599 95.4799 23.7999C95.1999 24.3599 94.7799 25.4799 94.7799 25.7599C94.9199 25.8999 95.7599 26.5999 96.1799 27.0199C97.5799 27.9999 99.2599 29.3999 99.2599 31.3599C99.2599 33.3199 97.5799 34.7199 96.1799 35.6999C95.6199 36.1199 94.7799 36.6799 94.6399 36.9599C94.6399 37.2399 95.0599 38.2199 95.3399 38.7799C96.0399 40.3199 96.7399 42.2799 95.7599 43.9599C94.7799 45.6399 92.6799 45.9199 90.9999 46.1999C90.2999 46.3399 89.3199 46.4799 89.0399 46.6199C88.8999 46.8999 88.7599 47.8799 88.7599 48.5799C88.4799 50.2599 88.3399 52.3599 86.5199 53.3399C84.8399 54.3199 82.8799 53.4799 81.3399 52.9199C80.7799 52.6399 79.6599 52.2199 79.3799 52.2199C79.2399 52.3599 78.5399 53.1999 78.1199 53.6199C76.9999 54.8799 75.7399 56.6999 73.7799 56.6999ZM68.1799 48.1599C68.4599 48.1599 68.8799 48.1599 69.1599 48.2999C70.6999 48.7199 71.5399 49.9799 72.5199 51.2399C72.7999 51.6599 73.3599 52.3599 73.7799 52.6399C74.0599 52.3599 74.6199 51.6599 75.0399 51.2399C76.0199 49.9799 76.9999 48.7199 78.3999 48.2999C79.9399 47.8799 81.4799 48.5799 82.8799 49.1399C83.4399 49.4199 84.1399 49.6999 84.6999 49.6999C84.6999 49.4199 84.8399 48.4399 84.9799 47.8799C85.1199 46.3399 85.3999 44.7999 86.5199 43.6799C87.6399 42.5599 89.3199 42.4199 90.7199 42.1399C91.2799 42.1399 92.1199 41.9999 92.5399 41.8599C92.3999 41.4399 92.1199 40.5999 91.9799 40.1799C91.4199 38.7799 90.7199 37.2399 91.1399 35.6999C91.5599 34.1599 92.8199 33.3199 94.0799 32.3399C94.4999 32.0599 95.1999 31.4999 95.4799 31.0799C95.1999 30.7999 94.4999 30.2399 94.0799 29.8199C92.8199 28.8399 91.5599 27.8599 91.1399 26.4599C90.7199 24.9199 91.4199 23.3799 91.9799 21.9799C92.2599 21.4199 92.5399 20.7199 92.5399 20.1599C92.2599 20.1599 91.2799 20.0199 90.7199 19.8799C89.1799 19.7399 87.6399 19.4599 86.5199 18.3399C85.3999 17.2199 85.2599 15.5399 84.9799 14.1399C84.9799 13.5799 84.8399 12.7399 84.6999 12.3199C83.9999 12.5999 83.2999 13.0199 82.7399 13.1599C81.3399 13.7199 79.7999 14.4199 78.2599 13.9999C76.7199 13.5799 75.8799 12.3199 74.8999 11.0599C74.6199 10.6399 74.0599 9.93988 73.6399 9.65988C73.3599 9.93988 72.7999 10.6399 72.3799 11.0599C71.3999 12.3199 70.4199 13.5799 69.0199 13.9999C67.4799 14.4199 65.9399 13.7199 64.5399 13.1599C64.1199 12.8799 63.4199 12.5999 62.9999 12.4599C62.9999 12.7399 62.8599 13.7199 62.7199 14.2799C62.5799 15.8199 62.2999 17.3599 61.1799 18.4799C60.0599 19.5999 58.3799 19.7399 56.9799 20.0199C56.4199 20.0199 55.5799 20.1599 55.1599 20.2999C55.2999 20.7199 55.5799 21.5599 55.7199 21.9799C56.2799 23.3799 56.9799 24.9199 56.5599 26.4599C56.1399 27.9999 54.8799 28.8399 53.6199 29.8199C53.1999 30.0999 52.4999 30.6599 52.2199 31.0799C52.4999 31.3599 53.1999 31.9199 53.6199 32.3399C54.8799 33.3199 56.1399 34.2999 56.5599 35.6999C56.9799 37.2399 56.2799 38.7799 55.7199 40.1799C55.4399 40.7399 55.1599 41.4399 55.1599 41.9999C55.4399 41.9999 56.4199 42.1399 56.9799 42.2799C58.5199 42.4199 60.0599 42.6999 61.1799 43.8199C62.2999 44.9399 62.4399 46.6199 62.7199 48.0199C62.7199 48.5799 62.8599 49.4199 62.9999 49.8399C63.4199 49.6999 64.2599 49.4199 64.6799 49.2799C65.7999 48.7199 66.9199 48.1599 68.1799 48.1599Z" fill="#CF122C"/>
<path d="M81.62 70.4199C80.92 70.4199 80.22 69.9999 79.94 69.4399L72.1 55.7199C71.54 54.7399 71.82 53.6199 72.8 53.0599C73.78 52.4999 74.9 52.7799 75.46 53.7599L81.48 64.2599L83.72 59.6399C84.14 58.7999 84.98 58.3799 85.82 58.6599L91.42 59.7799L85.68 49.8399C85.12 48.8599 85.4 47.7399 86.38 47.1799C87.36 46.6199 88.48 46.8999 89.04 47.8799L96.88 61.5999C97.3 62.2999 97.16 63.1399 96.74 63.6999C96.32 64.2599 95.48 64.6799 94.78 64.5399L86.38 62.8599L83.16 69.2999C83.02 69.8599 82.32 70.2799 81.62 70.4199Z" fill="#CF122C"/>
<path d="M65.94 70.4199C65.94 70.4199 65.8 70.4199 65.94 70.4199C65.1 70.4199 64.54 69.9999 64.12 69.2999L60.9 62.8599L52.5 64.5399C51.8 64.6799 50.96 64.3999 50.54 63.6999C50.12 63.1399 49.98 62.2999 50.4 61.5999L58.24 47.8799C58.8 46.8999 59.92 46.6199 60.9 47.1799C61.88 47.7399 62.16 48.8599 61.6 49.8399L56 59.7799L61.6 58.6599C62.44 58.5199 63.28 58.9399 63.7 59.6399L65.94 64.2599L71.96 53.7599C72.52 52.7799 73.64 52.4999 74.62 53.0599C75.6 53.6199 75.88 54.7399 75.32 55.7199L67.48 69.4399C67.2 69.9999 66.64 70.4199 65.94 70.4199Z" fill="#CF122C"/>
<path d="M75.32 31.5001C77.84 31.3601 79.52 30.3801 79.52 28.9801C79.52 27.5801 77.84 26.4601 74.9 26.4601H74.48L75.32 25.6201H74.06L71.96 26.6001H68.6C67.48 26.6001 66.78 26.8801 66.5 27.4401H73.36C75.18 27.4401 76.58 27.7201 76.58 28.9801C76.58 30.3801 75.04 30.6601 73.36 30.6601H70.28L72.94 33.6001C75.18 35.9801 77.42 36.4001 80.08 36.4001L75.32 31.5001Z" fill="#CF122C"/>
<path d="M76.44 31.9198C80.08 31.7798 82.32 30.2398 82.32 28.4198C82.32 26.4598 79.94 24.9198 75.74 24.9198H75.18L76.44 23.7998H74.62L71.68 24.9198H66.92C65.24 24.9198 64.26 25.3398 63.98 26.1798H73.78C76.44 26.1798 78.26 26.5998 78.26 28.4198C78.26 30.3798 76.02 30.7998 73.78 30.7998H69.3L73.22 34.9998C76.58 38.4998 79.66 39.0598 83.58 39.0598L76.44 31.9198Z" fill="white"/>
<path d="M11.76 97.7199V71.6799C11.76 71.5399 11.9 71.3999 12.04 71.3999H25.76C25.9 71.3999 26.04 71.5399 26.04 71.6799V97.8599C26.04 97.9999 25.9 98.1399 25.76 98.1399H12.04C11.9 97.9999 11.76 97.8599 11.76 97.7199Z" fill="#CAC7C8"/>
<path d="M22.2601 75.1798V94.0798H15.4001V75.1798H22.2601ZM25.2001 68.3198H11.3401C9.80005 68.3198 8.68005 69.5798 8.68005 71.1198V98.2798C8.68005 99.8198 9.94005 101.08 11.3401 101.08H26.1801C27.7201 101.08 28.8401 99.8198 28.8401 98.2798V72.0998C28.9801 69.9998 27.3001 68.3198 25.2001 68.3198Z" fill="white"/>
<path d="M60.7601 100.94C55.5801 100.94 37.1001 94.7797 30.3801 92.5397L29.9601 92.3997H28.8401V79.3797H29.6801H29.8201C35.5601 78.5397 51.3801 76.1597 55.3001 76.1597C56.8401 76.4397 65.5201 80.6397 72.6601 84.2797L73.6401 84.8397L93.8001 77.9797C93.9401 77.9797 95.2001 77.4197 96.6001 77.4197C97.1601 77.4197 97.8601 77.5597 98.2801 77.8397C98.4201 77.9797 98.5601 78.2597 98.5601 78.3997C98.5601 78.8197 97.8601 79.5197 97.1601 79.9397C82.1801 89.8797 63.9801 100.94 60.7601 100.94Z" fill="#EBECEC"/>
<path d="M55.0201 78.6799C57.2601 79.3799 65.1001 83.1599 71.5401 86.5199L73.6401 87.6399L75.8801 86.9399L88.0601 82.7399C76.1601 90.4399 63.8401 97.7199 60.6201 98.4199C56.4201 98.2799 41.3001 93.5199 31.6401 90.1599V81.8999C39.3401 80.6399 51.3801 78.8199 55.0201 78.6799ZM55.4401 73.3599C50.5401 73.3599 29.5401 76.7199 29.5401 76.7199H26.1801V95.0599H29.5401C29.5401 95.0599 54.0401 103.74 60.7601 103.74C66.6401 103.74 98.5601 82.1799 98.5601 82.1799C98.5601 82.1799 103.04 79.3799 100.24 76.1599C99.2601 75.0399 97.8601 74.7599 96.6001 74.7599C94.7801 74.7599 92.9601 75.4599 92.9601 75.4599L73.9201 82.0399C74.0601 81.8999 57.9601 73.3599 55.4401 73.3599Z" fill="white"/>
<path d="M24.22 73.0798V96.1798H13.44V73.0798H24.22ZM25.48 67.7598H12.04C9.79999 67.7598 8.12 69.5798 8.12 71.6798V97.5798C8.12 99.8198 9.93999 101.5 12.04 101.5H25.48C27.72 101.5 29.4 99.6798 29.4 97.5798V71.8198C29.54 69.5798 27.72 67.7598 25.48 67.7598Z" fill="#56575B"/>
<path d="M60.76 106.26C53.76 106.26 31.22 98.4195 28.7 97.4395C27.3 96.8795 26.6 95.4795 27.02 94.0795C27.58 92.6795 28.98 91.9795 30.38 92.3995C37.1 94.7795 55.58 100.8 60.76 100.8C63.98 100.66 82.18 89.7395 97.16 79.6595C97.86 79.2395 98.56 78.5395 98.56 78.1195C98.56 77.9795 98.42 77.8395 98.28 77.5595C97.58 76.7195 94.92 77.1395 94.08 77.5595L74.9 84.1395C73.5 84.5595 71.96 83.8595 71.54 82.4595C71.12 81.0595 71.82 79.5195 73.22 79.0995L92.12 72.7995C92.68 72.5195 98.84 70.4195 102.2 74.3395C103.74 76.1595 103.88 77.9795 103.74 79.0995C103.32 82.1795 100.52 83.9995 99.96 84.4195C92.4 89.4595 66.92 106.26 60.76 106.26Z" fill="#56575B"/>
<path d="M69.7199 90.9996C68.8799 90.9996 68.3199 90.8596 68.0399 90.8596C67.8999 90.8596 67.8999 90.8596 67.8999 90.8596L51.3799 86.6596C49.9799 86.2396 49.1399 84.8396 49.4199 83.4396C49.8399 82.0396 51.2399 81.1996 52.6399 81.4796L69.0199 85.6796C69.7199 85.8196 71.2599 85.6796 71.8199 84.9796C72.2399 84.4196 72.3799 84.1396 72.3799 83.9996C65.3799 80.3596 56.9799 76.2996 55.2999 76.0196C51.5199 76.0196 35.6999 78.3996 29.9599 79.2396C28.5599 79.5196 27.1599 78.5396 26.8799 76.9996C26.5999 75.5996 27.5799 74.1996 29.1199 73.9196C29.9599 73.7796 50.3999 70.5596 55.4399 70.5596C58.0999 70.5596 67.6199 75.3196 75.3199 79.3796C75.4599 79.3796 75.5999 79.5196 75.7399 79.6596C76.0199 79.9396 77.5599 81.0596 77.8399 83.2996C77.9799 84.4196 77.8399 86.2396 76.2999 88.3396C74.3399 90.5796 71.5399 90.9996 69.7199 90.9996Z" fill="#56575B"/>
</svg>
