<svg width="112" height="112" viewBox="0 0 112 112" fill="none" xmlns="http://www.w3.org/2000/svg">
<path d="M9.66016 97.8605V71.8205C9.66016 71.6805 9.80016 71.5405 9.94016 71.5405H23.6602C23.8002 71.5405 23.9402 71.6805 23.9402 71.8205V98.0005C23.9402 98.1405 23.8002 98.2805 23.6602 98.2805H9.94016C9.80016 98.1405 9.66016 98.0005 9.66016 97.8605Z" fill="#CBC9C9"/>
<path d="M20.3002 75.0404V94.6404H13.3002V75.0404H20.3002ZM23.5202 67.9004H8.96016C7.42016 67.9004 6.16016 69.1604 6.16016 70.7004V98.8404C6.16016 100.38 7.42016 101.64 8.96016 101.64H24.6402C26.1802 101.64 27.4402 100.38 27.4402 98.8404V71.9604C27.4402 69.7204 25.7602 67.9004 23.5202 67.9004Z" fill="white"/>
<path d="M58.6601 101.08C53.4801 101.08 35.0001 94.9203 28.2801 92.6803L28.0001 92.5403H26.8801V79.5203H27.7201H27.8601C33.6001 78.6803 49.4201 76.3003 53.3401 76.3003C54.8801 76.5803 63.5601 80.7803 70.7001 84.4203L71.6801 84.9803L91.8401 78.1203C91.9801 78.1203 93.2401 77.5603 94.6401 77.5603C95.2001 77.5603 95.9001 77.7003 96.3201 77.9803C96.4601 78.1203 96.6001 78.4003 96.6001 78.5403C96.6001 78.9603 95.9001 79.6603 95.2001 80.0803C80.0801 90.0203 62.0201 101.08 58.6601 101.08Z" fill="#ECEDED"/>
<path d="M53.0601 78.8205C55.3001 79.5205 63.1401 83.3005 69.5801 86.6605L71.6801 87.7805L73.9201 87.0805L86.1001 82.8805C74.2001 90.5805 61.8801 97.8605 58.6601 98.5605C54.4601 98.4205 39.3401 93.6605 29.6801 90.3005V82.0405C37.2401 80.7805 49.2801 78.9605 53.0601 78.8205ZM53.3401 73.5005C48.4401 73.5005 27.4401 76.8605 27.4401 76.8605H24.0801V95.2005H27.4401C27.4401 95.2005 51.9401 103.88 58.6601 103.88C64.5401 103.88 96.4601 82.3205 96.4601 82.3205C96.4601 82.3205 100.94 79.5205 98.1401 76.3005C97.1601 75.1805 95.7601 74.9005 94.5001 74.9005C92.6801 74.9005 90.8601 75.6005 90.8601 75.6005L71.8201 82.1805C71.9601 82.0405 56.0001 73.5005 53.3401 73.5005Z" fill="white"/>
<path d="M22.4001 72.6602V96.8802H11.2001V72.6602H22.4001ZM23.8001 67.2002H9.8001C7.5601 67.2002 5.6001 69.0202 5.6001 71.4002V98.5602C5.6001 100.8 7.4201 102.76 9.8001 102.76H23.8001C26.0401 102.76 28.0001 100.94 28.0001 98.5602V71.2602C28.0001 69.0202 26.1801 67.2002 23.8001 67.2002Z" fill="#56575B"/>
<path d="M58.6601 106.4C51.6601 106.4 29.1201 98.5601 26.6001 97.5801C25.2001 97.0201 24.5001 95.6202 24.9201 94.2202C25.4801 92.8202 26.8801 92.1201 28.2801 92.5401C35.0001 94.9201 53.4801 100.94 58.6601 100.94C61.8801 100.8 80.0801 89.8801 95.0601 79.8002C95.7601 79.3802 96.4601 78.6802 96.4601 78.2602C96.4601 78.1202 96.3201 77.9802 96.1801 77.7002C95.4801 76.8602 92.8201 77.2802 91.9801 77.7002L72.8001 84.5602C71.4001 84.9802 69.8601 84.2802 69.4401 82.8802C69.0201 81.4802 69.7201 79.9401 71.1201 79.5201L90.1601 72.9401C90.7201 72.6601 96.8801 70.5602 100.24 74.4802C101.78 76.3002 101.92 78.1201 101.78 79.2401C101.36 82.3201 98.5601 84.1402 98.0001 84.5602C90.4401 89.6002 64.9601 106.4 58.6601 106.4Z" fill="#56575B"/>
<path d="M67.76 91.1402C66.92 91.1402 66.36 91.0002 66.08 91.0002C65.94 91.0002 65.94 91.0002 65.94 91.0002L49.42 86.8002C48.02 86.3802 47.18 84.9802 47.46 83.5802C47.88 82.1802 49.28 81.3402 50.68 81.6202L67.06 85.8202C67.76 85.9602 69.3 85.8202 69.86 85.1202C70.28 84.5602 70.42 84.2802 70.42 84.1402C63.42 80.5002 55.02 76.4402 53.34 76.1602C49.56 76.1602 33.74 78.5402 28 79.3802C26.6 79.6602 25.2 78.6802 24.92 77.1402C24.64 75.7402 25.62 74.3402 27.16 74.0602C28 73.9202 48.44 70.7002 53.48 70.7002C56.14 70.7002 65.66 75.4602 73.36 79.5202C73.5 79.5202 73.64 79.6602 73.78 79.8002C74.06 80.0802 75.6 81.2002 75.88 83.4402C76.02 84.5602 75.88 86.3802 74.34 88.4802C72.24 90.7202 69.58 91.1402 67.76 91.1402Z" fill="#56575B"/>
<path d="M78.2599 47.4598C75.5999 45.9198 72.2399 46.0598 68.5999 47.7398L61.4599 51.0998L48.8599 44.7998H48.7199L41.1599 45.0798C41.0199 45.0798 40.8799 45.2198 40.8799 45.3598C40.8799 45.4998 40.8799 45.6398 41.0199 45.7798L51.0999 55.9998L45.0799 58.7998L38.3599 56.2798C38.2199 56.2798 38.2199 56.2798 38.0799 56.2798L33.4599 58.3798C33.3199 58.3798 33.3199 58.5198 33.1799 58.6598C33.1799 58.7998 33.1799 58.9398 33.3199 58.9398L37.3799 63.9798C36.6799 64.9598 36.8199 65.6598 37.0999 66.2198C37.6599 67.3398 39.1999 68.0398 41.5799 68.0398C41.9999 68.0398 42.5599 68.0398 43.1199 68.0398C45.6399 67.8998 48.4399 67.1998 50.2599 66.3598L76.5799 54.0398C78.9599 52.9198 80.2199 51.6598 80.2199 50.2598C80.0799 49.4198 79.7999 48.2998 78.2599 47.4598Z" fill="#D0122C"/>
<path d="M101.78 12.4602V38.6402C101.78 38.7802 101.64 38.9202 101.5 38.9202H87.78C87.64 38.9202 87.5 38.7802 87.5 38.6402V12.4602C87.5 12.3202 87.64 12.1802 87.78 12.1802H101.5C101.64 12.1802 101.78 12.3202 101.78 12.4602Z" fill="#CBC9C9"/>
<path d="M91.14 35.4202V15.8202H98.28V35.4202H91.14ZM87.92 42.5602H102.48C104.02 42.5602 105.28 41.3002 105.28 39.7602V11.4802C105.28 9.94018 104.02 8.68018 102.48 8.68018H86.8C85.26 8.68018 84 9.94018 84 11.4802V38.5002C84 40.7402 85.68 42.5602 87.92 42.5602Z" fill="white"/>
<path d="M52.7801 9.24023C57.9601 9.24023 76.4401 15.4002 83.1601 17.6402L83.5801 17.7802H84.7001V30.8002H83.8601H83.7201C77.9801 31.6402 62.1601 34.0202 58.2401 34.0202C56.7001 33.7402 48.0201 29.5402 40.8801 25.9002L39.9001 25.3402L19.6001 32.4802C19.4601 32.4802 18.2001 33.0402 16.8001 33.0402C16.2401 33.0402 15.5401 32.9002 15.1201 32.6202C14.9801 32.4802 14.8401 32.2002 14.8401 32.0602C14.8401 31.6402 15.5401 30.9402 16.2401 30.5202C31.3601 20.3002 49.4201 9.38023 52.7801 9.24023Z" fill="#ECEDED"/>
<path d="M58.38 31.5001C56.14 30.8001 48.3 27.0201 41.86 23.6601L39.76 22.5401L37.8 23.3801L25.62 27.5801C37.38 19.8801 49.7 12.6001 52.92 12.0401C57.12 12.1801 72.24 16.9401 81.9 20.3001V28.5601C74.2 29.6801 62.16 31.3601 58.38 31.5001ZM58.1 36.9601C63 36.9601 84 33.6001 84 33.6001H87.36V15.2601H84C84 15.2601 59.5 6.58008 52.78 6.58008C46.9 6.58008 14.98 28.1401 14.98 28.1401C14.98 28.1401 10.5 30.9401 13.3 34.1601C14.28 35.2801 15.68 35.5601 16.94 35.5601C18.76 35.5601 20.58 34.8601 20.58 34.8601L39.62 28.2801C39.48 28.4201 55.58 36.9601 58.1 36.9601Z" fill="white"/>
<path d="M89.0399 37.6598V13.4398H100.24V37.6598H89.0399ZM87.6399 43.2598H101.64C103.88 43.2598 105.84 41.4398 105.84 39.0598V12.0398C105.84 9.79984 104.02 7.83984 101.64 7.83984H87.6399C85.3999 7.83984 83.4399 9.65984 83.4399 12.0398V39.1998C83.4399 41.4398 85.2599 43.2598 87.6399 43.2598Z" fill="#56575B"/>
<path d="M52.78 3.91992C59.78 3.91992 82.32 11.7599 84.84 12.7399C86.24 13.2999 86.94 14.6999 86.52 16.0999C85.96 17.4999 84.56 18.1999 83.16 17.7799C76.44 15.3999 57.96 9.37992 52.78 9.37992C49.56 9.51992 31.36 20.4399 16.38 30.5199C15.68 30.9399 14.98 31.6399 14.98 32.0599C14.98 32.1999 15.12 32.3399 15.26 32.6199C15.96 33.4599 18.62 33.0399 19.46 32.6199L38.64 26.0399C40.04 25.6199 41.58 26.3199 42 27.7199C42.42 29.1199 41.72 30.6599 40.32 31.0799L21.28 37.6599C20.72 37.9399 14.56 40.0399 11.2 36.1199C9.66003 34.2999 9.52003 32.4799 9.66003 31.3599C10.08 28.2799 12.88 26.4599 13.44 26.0399C21 20.8599 46.48 3.91992 52.78 3.91992Z" fill="#56575B"/>
<path d="M43.6799 19.1797C44.5199 19.1797 45.0799 19.3197 45.3599 19.3197C45.4999 19.3197 45.4999 19.3197 45.4999 19.3197L62.0199 23.5197C63.4199 23.9397 64.2599 25.3397 63.9799 26.7397C63.5599 28.1397 62.1599 28.9797 60.7599 28.6997L44.3799 24.4997C43.6799 24.3597 42.1399 24.4997 41.5799 25.1997C41.1599 25.7597 41.0199 26.0397 41.0199 26.1797C48.0199 29.8197 56.4199 33.8797 58.0999 34.1597C61.8799 34.1597 77.6999 31.7797 83.4399 30.9397C84.8399 30.6597 86.2399 31.6397 86.5199 33.1797C86.7999 34.5797 85.8199 35.9797 84.2799 36.2597C83.4399 36.3997 62.9999 39.6197 57.9599 39.6197C55.2999 39.6197 45.7799 34.8597 38.0799 30.7997C37.9399 30.7997 37.7999 30.6597 37.6599 30.5197C37.3799 30.2397 35.8399 29.1197 35.5599 26.8797C35.4199 25.7597 35.5599 23.9397 37.0999 21.8397C39.1999 19.5997 41.9999 19.1797 43.6799 19.1797Z" fill="#56575B"/>
</svg>
