<svg width="24" height="24" viewBox="0 0 24 24" fill="none" xmlns="http://www.w3.org/2000/svg">
	<path d="M12 0.375C5.57812 0.375 0.375 5.57812 0.375 12C0.375 18.4219 5.57812 23.625 12 23.625C18.4219 23.625 23.625 18.4219 23.625 12C23.625 5.57812 18.4219 0.375 12 0.375ZM14.6719 16.8281L10.5 13.7812C10.3594 13.6875 10.3125 13.5469 10.3125 13.3594V5.4375C10.3125 5.15625 10.5469 4.875 10.875 4.875H13.125C13.4062 4.875 13.6875 5.15625 13.6875 5.4375V11.9062L16.6406 14.0625C16.875 14.25 16.9688 14.625 16.7812 14.8594L15.4219 16.6875C15.2812 16.9219 14.9062 16.9688 14.6719 16.8281Z" fill="#D0112B"/>
</svg>