<svg width="26" height="26" viewBox="0 0 26 26" fill="none" xmlns="http://www.w3.org/2000/svg">
	<path d="M25.5938 13.25C25.5938 6.29297 19.957 0.65625 13 0.65625C6.04297 0.65625 0.40625 6.29297 0.40625 13.25C0.40625 20.207 6.04297 25.8438 13 25.8438C19.957 25.8438 25.5938 20.207 25.5938 13.25ZM13 24.2188C6.95703 24.2188 2.03125 19.3438 2.03125 13.25C2.03125 7.25781 6.90625 2.28125 13 2.28125C18.9922 2.28125 23.9688 7.20703 23.9688 13.25C23.9688 19.293 19.043 24.2188 13 24.2188ZM8.58203 12.8438C8.32812 13.0977 8.32812 13.4531 8.58203 13.707L14.4219 19.5469C14.6758 19.8008 15.0312 19.8008 15.2852 19.5469L15.6406 19.1914C15.8945 18.9375 15.8945 18.582 15.6406 18.3281L10.6133 13.25L15.6406 8.22266C15.8945 7.96875 15.8945 7.61328 15.6406 7.35938L15.2852 7.00391C15.0312 6.75 14.6758 6.75 14.4219 7.00391L8.58203 12.8438Z" fill="#D0112B"/>
</svg>