<svg width="39" height="39" viewBox="0 0 39 39" fill="none" xmlns="http://www.w3.org/2000/svg">
	<circle cx="19.5" cy="19.5" r="19.5" fill="black" fill-opacity="0.5"/>
	<path d="M22.4062 17.1719C22.4062 16.9141 22.1484 16.6562 21.8906 16.6562H13.9844C13.6836 16.6562 13.4688 16.9141 13.4688 17.1719V18.2031C13.4688 18.5039 13.6836 18.7188 13.9844 18.7188H21.8906C22.1484 18.7188 22.4062 18.5039 22.4062 18.2031V17.1719ZM30.8281 29.6328C31.043 29.4609 31.043 29.1172 30.8281 28.9023L25.6289 23.7031C25.5 23.6172 25.3711 23.5312 25.2422 23.5312H24.6836C26.0156 21.9844 26.875 19.9219 26.875 17.6875C26.875 12.7891 22.8359 8.75 17.9375 8.75C12.9961 8.75 9 12.7891 9 17.6875C9 22.6289 12.9961 26.625 17.9375 26.625C20.1719 26.625 22.1914 25.8086 23.7812 24.4766V25.0352C23.7812 25.1641 23.8242 25.293 23.9102 25.4219L29.1094 30.6211C29.3242 30.8359 29.668 30.8359 29.8398 30.6211L30.8281 29.6328ZM24.8125 17.6875C24.8125 21.5117 21.7188 24.5625 17.9375 24.5625C14.1133 24.5625 11.0625 21.5117 11.0625 17.6875C11.0625 13.9062 14.1133 10.8125 17.9375 10.8125C21.7188 10.8125 24.8125 13.9062 24.8125 17.6875Z" fill="white"/>
</svg>
