<svg width="77" height="67" viewBox="0 0 77 67" fill="none" xmlns="http://www.w3.org/2000/svg">
	<g clip-path="url(#clip0)">
		<path d="M75.4029 0.107788H11.3854C10.7334 0.107788 10.1999 0.644763 10.1999 1.30107V60.9649C10.1999 62.9338 8.59945 64.5448 6.64336 64.5448C4.68727 64.5448 3.08684 62.9338 3.08684 60.9649V9.65401C3.08684 8.9977 2.55336 8.46073 1.90133 8.46073C1.2493 8.46073 0.71582 8.9977 0.71582 9.65401V60.9649C0.71582 64.2464 3.38321 66.9313 6.64336 66.9313H70.6608C73.921 66.9313 76.5884 64.2464 76.5884 60.9649V1.30107C76.5884 0.644763 76.0549 0.107788 75.4029 0.107788ZM74.2174 60.9649C74.2174 62.9338 72.6169 64.5448 70.6608 64.5448H11.3854C12.1263 63.5603 12.5709 62.3074 12.5709 60.9649V2.49434H74.2174V60.9649Z" fill="#D0112B"/>
		<path d="M6.64352 62.1582C7.29555 62.1582 7.82902 61.6212 7.82902 60.9649V6.07414C7.82902 5.41783 7.29555 4.88086 6.64352 4.88086C5.99149 4.88086 5.45801 5.41783 5.45801 6.07414V60.9649C5.45801 61.6212 5.99149 62.1582 6.64352 62.1582Z" fill="#D0112B"/>
		<path d="M18.498 45.4523H37.4661C38.1182 45.4523 38.6517 44.9154 38.6517 44.2591V22.7801C38.6517 22.1238 38.1182 21.5868 37.4661 21.5868H18.498C17.846 21.5868 17.3125 22.1238 17.3125 22.7801V44.2591C17.3125 44.9154 17.846 45.4523 18.498 45.4523ZM19.6835 23.9733H36.2806V43.0658H19.6835V23.9733Z" fill="#D0112B"/>
		<path d="M18.498 9.65401H68.2894C68.9414 9.65401 69.4749 9.11704 69.4749 8.46073C69.4749 7.80443 68.9414 7.26746 68.2894 7.26746H18.498C17.846 7.26746 17.3125 7.80443 17.3125 8.46073C17.3125 9.11704 17.846 9.65401 18.498 9.65401Z" fill="#D0112B"/>
		<path d="M18.498 16.8137H68.2894C68.9414 16.8137 69.4749 16.2767 69.4749 15.6204C69.4749 14.9641 68.9414 14.4271 68.2894 14.4271H18.498C17.846 14.4271 17.3125 14.9641 17.3125 15.6204C17.3125 16.2767 17.846 16.8137 18.498 16.8137Z" fill="#D0112B"/>
		<path d="M18.498 52.612H68.2894C68.9414 52.612 69.4749 52.075 69.4749 51.4187C69.4749 50.7624 68.9414 50.2255 68.2894 50.2255H18.498C17.846 50.2255 17.3125 50.7624 17.3125 51.4187C17.3125 52.075 17.846 52.612 18.498 52.612Z" fill="#D0112B"/>
		<path d="M68.2902 21.5868H44.58C43.928 21.5868 43.3945 22.1238 43.3945 22.7801C43.3945 23.4364 43.928 23.9733 44.58 23.9733H68.2902C68.9422 23.9733 69.4757 23.4364 69.4757 22.7801C69.4757 22.1238 68.9422 21.5868 68.2902 21.5868Z" fill="#D0112B"/>
		<path d="M68.2902 28.7465H44.58C43.928 28.7465 43.3945 29.2834 43.3945 29.9397C43.3945 30.596 43.928 31.133 44.58 31.133H68.2902C68.9422 31.133 69.4757 30.596 69.4757 29.9397C69.4757 29.2834 68.9422 28.7465 68.2902 28.7465Z" fill="#D0112B"/>
		<path d="M68.2902 35.9061H44.58C43.928 35.9061 43.3945 36.4431 43.3945 37.0994C43.3945 37.7557 43.928 38.2927 44.58 38.2927H68.2902C68.9422 38.2927 69.4757 37.7557 69.4757 37.0994C69.4757 36.4431 68.9422 35.9061 68.2902 35.9061Z" fill="#D0112B"/>
		<path d="M68.2902 43.0658H44.58C43.928 43.0658 43.3945 43.6028 43.3945 44.2591C43.3945 44.9154 43.928 45.4523 44.58 45.4523H68.2902C68.9422 45.4523 69.4757 44.9154 69.4757 44.2591C69.4757 43.6028 68.9422 43.0658 68.2902 43.0658Z" fill="#D0112B"/>
		<path d="M68.2902 57.3851H44.58C43.928 57.3851 43.3945 57.9221 43.3945 58.5784C43.3945 59.2347 43.928 59.7717 44.58 59.7717H68.2902C68.9422 59.7717 69.4757 59.2347 69.4757 58.5784C69.4757 57.9221 68.9422 57.3851 68.2902 57.3851Z" fill="#D0112B"/>
	</g>
	<defs>
		<clipPath id="clip0">
			<rect width="75.8726" height="66.8235" fill="white" transform="translate(0.71582 0.107788)"/>
		</clipPath>
	</defs>
</svg>