<svg width="32" height="32" viewBox="0 0 32 32" fill="none" xmlns="http://www.w3.org/2000/svg">
	<rect width="32" height="32" rx="16" fill="#FFB800"/>
	<path d="M18.6588 18.4714C21.8228 18.4714 24.1666 16.2449 24.1666 12.9246C24.1666 9.60425 21.8228 7.41675 18.6588 7.41675H12.1353C11.8619 7.41675 11.6666 7.65112 11.6666 7.8855V16.323H9.63534C9.3619 16.323 9.16659 16.5574 9.16659 16.7917V18.0027C9.16659 18.2761 9.3619 18.4714 9.63534 18.4714H11.6666V19.9167H9.63534C9.3619 19.9167 9.16659 20.1511 9.16659 20.3855V21.323C9.16659 21.5964 9.3619 21.7917 9.63534 21.7917H11.6666V24.448C11.6666 24.7214 11.8619 24.9167 12.1353 24.9167H13.6978C13.9322 24.9167 14.1666 24.7214 14.1666 24.448V21.7917H21.1978C21.4322 21.7917 21.6666 21.5964 21.6666 21.323V20.3855C21.6666 20.1511 21.4322 19.9167 21.1978 19.9167H14.1666V18.4714H18.6588ZM14.1666 9.56519H18.2681C20.3385 9.56519 21.6275 10.8152 21.6275 12.9246C21.6275 15.0339 20.3385 16.323 18.2291 16.323H14.1666V9.56519Z" fill="black"/>
</svg>