<svg width="113" height="112" viewBox="0 0 113 112" fill="none" xmlns="http://www.w3.org/2000/svg">
<path d="M60.14 5.6001C34.94 5.6001 14.5 26.0401 14.5 51.2401C14.5 76.4401 34.94 96.8801 60.14 96.8801C85.34 96.8801 105.78 76.4401 105.78 51.2401C105.78 26.0401 85.34 5.6001 60.14 5.6001ZM58.04 92.1201C52.02 90.7201 46.7 83.8601 43.34 74.0601H58.04V92.1201ZM42.08 69.7201C40.82 64.6801 39.98 59.0801 39.84 53.2001H58.04V69.7201H42.08ZM18.98 53.3401H35.36C35.5 59.2201 36.2 64.8201 37.46 69.8601H23.46C20.8 64.8201 19.26 59.2201 18.98 53.3401ZM18.98 49.0001C19.26 43.1201 20.8 37.5201 23.32 32.4801H37.46C36.2 37.5201 35.5 43.1201 35.36 49.0001H18.98ZM39.7 49.0001C39.84 43.1201 40.68 37.5201 41.94 32.4801H57.9V49.0001H39.7ZM43.34 28.1401C46.7 18.3401 52.02 11.4801 58.04 10.0801V28.1401H43.34ZM47.4 11.9001C43.76 15.8201 40.82 21.4201 38.72 28.1401H25.98C31.02 20.5801 38.58 14.8401 47.4 11.9001ZM25.98 74.0601H38.72C40.82 80.7801 43.76 86.3801 47.4 90.3001C38.58 87.5001 31.02 81.6201 25.98 74.0601ZM73.02 90.3001C75.96 87.0801 78.48 82.7401 80.44 77.5601C79.04 77.8401 77.5 77.5601 76.52 76.3001C76.52 76.3001 76.38 76.1601 76.38 76.0201C73.02 84.7001 67.98 90.8601 62.38 92.1201V74.0601H74.84C74 72.9401 73.02 71.5401 71.76 69.7201H62.38V53.3401H63.78C63.36 51.9401 62.94 50.4001 62.8 49.0001H62.38V32.4801H67.56C69.52 30.5201 72.04 28.9801 74.7 28.1401H62.38V10.2201C68.26 11.4801 73.58 18.2001 76.94 27.7201C78.48 27.4401 80.02 27.4401 81.56 27.5801C79.46 21.1401 76.52 15.8201 73.02 12.0401C81.84 14.9801 89.4 20.7201 94.44 28.2801H84.5C87.3 29.1201 89.68 30.6601 91.78 32.6201H96.96C99.48 37.6601 101.02 43.1201 101.3 49.1401H96.26C95.98 50.5401 95.7 52.0801 95.28 53.4801H101.3C101.02 59.3601 99.48 64.9601 96.96 70.0001H87.3C86.18 71.8201 85.06 73.2201 84.22 74.3401H94.44C89.4 81.6201 81.84 87.5001 73.02 90.3001Z" fill="#56575B"/>
<path d="M79.6 73.7802C79.6 73.7802 92.9 57.8202 92.9 44.5202C92.9 37.2402 87.02 31.2202 79.6 31.2202C72.18 31.2202 66.3 37.2402 66.3 44.6602C66.3 57.8202 79.6 73.7802 79.6 73.7802ZM70.22 44.6602C70.22 39.4802 74.42 35.4202 79.46 35.4202C84.64 35.4202 88.7 39.6202 88.7 44.6602C88.7 49.8402 84.5 53.9002 79.46 53.9002C74.42 53.9002 70.22 49.7002 70.22 44.6602Z" fill="#CF122C"/>
<path d="M65.46 73.7802C65.46 71.5402 63.5 69.5802 61.26 69.5802H45.86L31.86 47.1802H26.26L33.26 69.5802H17.86L13.66 63.9802H9.45996L12.26 73.7802L9.45996 83.5802H13.66L17.86 77.9802H33.26L26.26 100.38H31.86L45.86 77.9802H61.26C63.5 77.9802 65.46 76.0202 65.46 73.7802Z" fill="#CF122C"/>
</svg>
