<svg width="19" height="19" viewBox="0 0 19 19" fill="none" xmlns="http://www.w3.org/2000/svg">
	<path d="M9.5 0C4.25 0 0 4.25 0 9.5C0 14.75 4.25 19 9.5 19C14.75 19 19 14.75 19 9.5C19 4.25 14.75 0 9.5 0ZM8.5 13.325C8.175 13.4 7.825 13.425 7.475 13.425C7.05 13.425 6.65 13.35 6.275 13.225C5.9 13.1 5.575 12.875 5.275 12.6C4.975 12.3 4.75 11.925 4.6 11.475C4.425 11 4.35 10.45 4.35 9.775C4.35 9.075 4.45 8.5 4.625 8.05C4.8 7.6 5.075 7.2 5.375 6.925C5.675 6.65 6.025 6.425 6.4 6.325C6.775 6.2 7.15 6.15 7.525 6.15C7.925 6.15 8.275 6.175 8.55 6.225C8.825 6.275 9.05 6.35 9.225 6.425L8.95 7.6C8.8 7.525 8.625 7.475 8.4 7.45C8.2 7.425 7.925 7.4 7.625 7.4C7.075 7.4 6.625 7.6 6.275 8C5.925 8.4 5.775 9 5.775 9.85C5.775 10.2 5.825 10.55 5.9 10.85C5.975 11.15 6.1 11.4 6.275 11.625C6.45 11.825 6.65 12 6.875 12.125C7.125 12.25 7.4 12.3 7.725 12.3C8.025 12.3 8.275 12.275 8.475 12.2C8.675 12.15 8.875 12.075 9.025 11.975L9.3 13.1C9.1 13.15 8.825 13.275 8.5 13.325ZM13.775 13.325C13.45 13.4 13.1 13.425 12.75 13.425C12.325 13.425 11.925 13.35 11.55 13.225C11.175 13.1 10.85 12.875 10.55 12.6C10.25 12.3 10.025 11.925 9.875 11.475C9.7 11 9.625 10.45 9.625 9.775C9.625 9.075 9.725 8.5 9.9 8.05C10.075 7.6 10.35 7.2 10.65 6.925C10.95 6.65 11.3 6.425 11.675 6.325C12.05 6.2 12.425 6.15 12.8 6.15C13.2 6.15 13.55 6.175 13.825 6.225C14.1 6.275 14.325 6.35 14.5 6.425L14.225 7.6C14.075 7.525 13.9 7.475 13.675 7.45C13.475 7.425 13.2 7.4 12.9 7.4C12.35 7.4 11.9 7.6 11.55 8C11.2 8.4 11.05 9 11.05 9.85C11.05 10.2 11.1 10.55 11.175 10.85C11.25 11.15 11.375 11.4 11.55 11.625C11.725 11.825 11.925 12 12.15 12.125C12.4 12.25 12.675 12.3 13 12.3C13.3 12.3 13.55 12.275 13.75 12.2C13.95 12.15 14.15 12.075 14.3 11.975L14.575 13.1C14.375 13.15 14.1 13.275 13.775 13.325Z" fill="white"/>
</svg>