<svg width="209" height="32" viewBox="0 0 209 32" fill="none" xmlns="http://www.w3.org/2000/svg">
<path d="M26.9443 17.2444C34.8637 16.9778 39.5971 13.6889 39.5971 9.86667C39.5971 5.77778 34.4085 2.48889 25.4878 2.48889H24.2134L26.8532 0H22.939L16.5671 2.4H6.37195C2.82186 2.4 0.819251 3.28889 0 4.88889H20.9364C26.7622 4.88889 30.5854 5.77778 30.5854 9.6C30.5854 13.7778 25.9429 14.5778 20.9364 14.5778H11.5605L19.9351 23.3778C27.0353 30.6667 33.5893 31.9111 41.8728 31.9111L26.9443 17.2444Z" fill="#D0112B"/>
<path d="M65.9042 19.1999C64.3567 19.1999 63.0823 19.0222 62.081 18.7555V10.311C63.0823 10.2222 64.3567 10.1333 65.9042 10.1333C69.5453 10.1333 71.639 11.5555 71.639 14.5777C71.639 17.5999 69.3633 19.1999 65.9042 19.1999ZM66.4504 8.2666C63.3554 8.2666 60.4425 8.62216 57.1655 8.71105V25.6888H61.99V20.711C63.3554 20.7999 64.9029 20.8888 66.3593 20.8888C72.9134 20.8888 77.0096 19.0222 77.0096 14.3999C77.0096 9.77771 73.0044 8.2666 66.4504 8.2666Z" fill="#D0112B"/>
<path d="M93.7586 24.3555C89.9354 24.3555 87.2046 21.6 87.2046 17.2444C87.2046 12.8888 89.8444 10.0444 93.7586 10.0444C97.6728 10.0444 100.313 12.8888 100.313 17.2444C100.313 21.5111 97.6728 24.3555 93.7586 24.3555ZM93.7586 8.17773C86.5674 8.17773 81.7429 11.8222 81.7429 17.1555C81.7429 22.4888 86.4764 26.1333 93.7586 26.1333C100.95 26.1333 105.774 22.4888 105.774 17.1555C105.774 11.9111 100.95 8.17773 93.7586 8.17773Z" fill="#D0112B"/>
<path d="M176.594 8.71118L165.853 22.1334V8.71118H161.028V25.7778H162.94H165.853L176.594 12.3556V25.7778H181.51V8.71118H179.507H176.594Z" fill="#D0112B"/>
<path d="M123.616 10.0444C127.348 10.0444 129.624 12 129.624 12L130.625 9.51107C130.625 9.51107 127.803 8.17773 122.979 8.17773C116.061 8.17773 111.145 11.8222 111.145 17.1555C111.145 22.4888 115.696 26.1333 123.252 26.1333C127.894 26.1333 130.534 24.7111 130.534 24.7111V21.9555C130.534 21.9555 128.258 24 123.798 24C119.155 24 116.607 21.4222 116.607 17.0666C116.607 12.8888 119.247 10.0444 123.616 10.0444Z" fill="#D0112B"/>
<path d="M199.624 18.0444C196.438 18.0444 194.527 16.5333 194.527 13.9555C194.527 11.3777 196.438 10.1333 199.624 10.1333C201.354 10.1333 202.901 10.311 204.176 10.3999V18.0444H199.624ZM199.078 8.2666C193.161 8.2666 189.065 9.68882 189.065 13.9555C189.065 16.711 190.703 18.3999 193.616 19.1999L187.153 26.0444H187.791C192.251 26.0444 194.436 25.1555 197.257 21.7777L198.987 19.7333H199.078H204.176V25.6888H209V19.7333V8.71105C204.904 8.62216 202.173 8.2666 199.078 8.2666Z" fill="#D0112B"/>
<path d="M147.283 10.0444C151.015 10.0444 153.291 12 153.291 12L154.292 9.51107C154.292 9.51107 151.47 8.17773 146.646 8.17773C139.728 8.17773 134.812 11.8222 134.812 17.1555C134.812 22.4888 139.364 26.1333 146.919 26.1333C151.561 26.1333 154.201 24.7111 154.201 24.7111V21.9555C154.201 21.9555 151.925 24 147.465 24C142.823 24 140.274 21.4222 140.274 17.0666C140.274 12.8888 142.914 10.0444 147.283 10.0444Z" fill="#D0112B"/>
</svg>
