<svg width="265" height="80" viewBox="0 0 265 80" fill="none" xmlns="http://www.w3.org/2000/svg">
	<path d="M78.6835 39.7129C78.6835 61.6457 61.0696 79.4258 39.3417 79.4258C17.6139 79.4258 0 61.6457 0 39.7129C0 17.7801 17.6139 0 39.3417 0C61.0696 0 78.6835 17.7801 78.6835 39.7129Z" fill="#D0112B"/>
	<path d="M25.2373 57.8993H35.6125V44.6106H38.0537L45.4283 57.8993H56.4138L47.7169 42.5342C51.5313 41.0289 54.2777 38.0701 54.2777 32.7754V32.5677C54.2777 24.7295 48.9884 20.7844 39.4778 20.7844H25.2373V57.8993ZM35.6125 37.7067V28.7784H39.02C42.3767 28.7784 44.2077 29.9723 44.2077 32.983V33.1906C44.2077 36.2014 42.4785 37.7067 38.9692 37.7067H35.6125Z" fill="white"/>
	<path d="M100.953 62.048H104.805V38.7433H123.791V35.581H104.805V16.0572H128.95V12.895H100.953V62.048Z" fill="white"/>
	<path d="M137.552 62.048H141.267V8.90771H137.552V62.048Z" fill="white"/>
	<path d="M152.801 62.048H156.447V26.0941H152.801V62.048ZM154.59 18.3946C156.035 18.3946 157.135 17.2259 157.135 15.7823C157.135 14.4074 156.035 13.2387 154.59 13.2387C153.145 13.2387 151.976 14.4074 151.976 15.7823C151.976 17.2259 153.145 18.3946 154.59 18.3946Z" fill="white"/>
	<path d="M182.017 74.9721C191.648 74.9721 198.596 70.2287 198.664 59.6419V26.0941H195.018V33.8623C192.955 29.4626 188.965 25.5441 181.879 25.5441C172.386 25.5441 165.163 32.9686 165.163 43.2117V43.6929C165.163 54.1423 172.249 60.8793 181.398 60.8793C188.071 60.8793 193.092 56.4796 195.018 52.1486V59.5044C195.018 68.3726 189.653 71.8786 181.948 71.8786C174.45 71.8786 170.598 68.7163 169.635 64.1103H165.92C166.814 69.885 171.63 74.9721 182.017 74.9721ZM181.742 57.7858C174.588 57.7858 168.947 52.5611 168.947 43.6242V43.0742C168.947 34.1373 174.519 28.6377 182.223 28.6377C189.722 28.6377 195.087 33.8623 195.087 42.9367V43.4867C195.087 52.4924 189.034 57.7858 181.742 57.7858Z" fill="white"/>
	<path d="M209.967 62.048H213.613V40.2557C213.613 32.6937 219.529 28.7064 225.514 28.7064C231.911 28.7064 235.488 32.0749 235.488 39.7057V62.048H239.134V39.9119C239.134 29.6689 233.975 25.5441 226.339 25.5441C219.942 25.5441 215.264 29.1876 213.613 33.1061V8.90771H209.967V62.048Z" fill="white"/>
	<path d="M260.254 62.5292C262.455 62.5292 263.831 62.1855 265 61.773V58.6795C263.762 59.0919 262.317 59.4357 260.46 59.4357C257.158 59.4357 255.094 57.442 255.094 53.1111V29.1876H264.519V26.0941H255.094V17.9134H251.448V26.0941H246.151V29.1876H251.448V53.3861C251.448 59.1607 254.544 62.5292 260.254 62.5292Z" fill="white"/>
</svg>
