<svg width="32" height="32" viewBox="0 0 32 32" fill="none" xmlns="http://www.w3.org/2000/svg">
	<circle cx="16" cy="16" r="15.5" stroke="black"/>
	<path d="M18.2031 16L23.2656 10.9844C23.5469 10.7031 23.5469 10.1875 23.2656 9.90625L22.0938 8.73438C21.8125 8.45312 21.2969 8.45312 21.0156 8.73438L16 13.7969L10.9375 8.73438C10.6562 8.45312 10.1406 8.45312 9.85938 8.73438L8.6875 9.90625C8.40625 10.1875 8.40625 10.7031 8.6875 10.9844L13.75 16L8.6875 21.0625C8.40625 21.3438 8.40625 21.8594 8.6875 22.1406L9.85938 23.3125C10.1406 23.5938 10.6562 23.5938 10.9375 23.3125L16 18.25L21.0156 23.3125C21.2969 23.5938 21.8125 23.5938 22.0938 23.3125L23.2656 22.1406C23.5469 21.8594 23.5469 21.3438 23.2656 21.0625L18.2031 16Z" fill="black"/>
</svg>