<svg width="24" height="24" viewBox="0 0 24 24" fill="none" xmlns="http://www.w3.org/2000/svg">
	<path opacity="0.7" d="M0.375 12C0.375 18.4219 5.57812 23.625 12 23.625C18.4219 23.625 23.625 18.4219 23.625 12C23.625 5.57812 18.4219 0.375 12 0.375C5.57812 0.375 0.375 5.57812 0.375 12ZM21.375 12C21.375 17.2031 17.1562 21.375 12 21.375C6.79688 21.375 2.625 17.2031 2.625 12C2.625 6.84375 6.79688 2.625 12 2.625C17.1562 2.625 21.375 6.84375 21.375 12ZM16.3125 12.4219C16.5469 12.1875 16.5469 11.8594 16.3125 11.625L10.5469 5.85938C10.3594 5.625 9.98438 5.625 9.75 5.85938L8.71875 6.9375C8.48438 7.125 8.48438 7.5 8.71875 7.73438L12.9844 12L8.71875 16.3125C8.48438 16.5469 8.48438 16.875 8.71875 17.1094L9.75 18.1875C9.98438 18.375 10.3594 18.375 10.5469 18.1875L16.3125 12.4219Z" fill="#D0112B"/>
</svg>