<svg width="32" height="32" viewBox="0 0 32 32" fill="none" xmlns="http://www.w3.org/2000/svg">
	<path d="M30 0C29.8125 0 29.5 0.0625 29.375 0.125L10.375 6.125C9.625 6.375 9 7.25 9 8V22.75C8.1875 22.3125 6.8125 22.0625 6 22C2.6875 22 0 24.25 0 27C0 29.8125 2.6875 32 6 32C9.0625 32 11.5625 30.0625 11.875 27.5625C11.9375 27.4375 11.9375 27.1875 11.9375 27.0625V16L28.9375 10.6875V18.75C28.1875 18.3125 26.8125 18.0625 26 18C22.6875 18 20 20.25 20 23C20 25.8125 22.6875 28 26 28C29.0625 28 31.5625 26.0625 31.875 23.5625C31.9375 23.4375 31.9375 23.1875 31.9375 23.0625C31.9375 23.0625 32 23.0625 32 23V2C32 0.9375 31.0625 0.0625 30 0ZM6 29C4.1875 29 3 28 3 27C3 26.0625 4.1875 25 6 25C7.75 25 9 26.0625 9 27C9 28 7.75 29 6 29ZM29 23C29 24 27.75 25 26 25C24.1875 25 23 24 23 23C23 22.0625 24.1875 21 26 21C27.75 21 29 22.0625 29 23ZM29 7.5L12 12.875V8.75L29 3.375V7.5Z" fill="#BEBEBE"/>
</svg>