<svg width="51" height="67" viewBox="0 0 51 67" fill="none" xmlns="http://www.w3.org/2000/svg">
<path d="M23.9106 65.1611C25.0356 66.9111 27.6606 66.9111 28.7856 65.1611C47.0356 38.9111 50.4106 36.1611 50.4106 26.4111C50.4106 13.1611 39.6606 2.41113 26.4106 2.41113C13.0356 2.41113 2.41064 13.1611 2.41064 26.4111C2.41064 36.1611 5.66064 38.9111 23.9106 65.1611ZM26.4106 36.4111C20.7856 36.4111 16.4106 32.0361 16.4106 26.4111C16.4106 20.9111 20.7856 16.4111 26.4106 16.4111C31.9106 16.4111 36.4106 20.9111 36.4106 26.4111C36.4106 32.0361 31.9106 36.4111 26.4106 36.4111Z" fill="#D0112B"/>
<path d="M21.5 62.75C22.625 64.5 25.25 64.5 26.375 62.75C44.625 36.5 48 33.75 48 24C48 10.75 37.25 0 24 0C10.625 0 0 10.75 0 24C0 33.75 3.25 36.5 21.5 62.75ZM24 34C18.375 34 14 29.625 14 24C14 18.5 18.375 14 24 14C29.5 14 34 18.5 34 24C34 29.625 29.5 34 24 34Z" fill="white"/>
</svg>
