<svg width="20" height="19" viewBox="0 0 20 19" fill="none" xmlns="http://www.w3.org/2000/svg">
	<path d="M7.43304 5.22503C6.3058 3.64021 4.84375 2.71387 2.85714 2.71387H0.357143C0.15625 2.71387 0 2.87012 0 3.07101V5.21387C0 5.41476 0.15625 5.57101 0.357143 5.57101H2.85714C4.54241 5.57101 5.2567 6.92146 5.90402 8.2719C6.35045 7.2228 6.80804 6.18485 7.43304 5.22503ZM20 14.1424C20 14.0532 19.9665 13.9527 19.8996 13.8857L16.3393 10.3255C16.2612 10.2585 16.1719 10.2139 16.0714 10.2139C15.8705 10.2139 15.7143 10.3701 15.7143 10.571V12.7139H12.8571C11.1719 12.7139 10.4576 11.3634 9.81027 10.013C9.36384 11.0621 8.90625 12.1 8.29241 13.0598C10.3571 15.9616 12.3996 15.571 15.7143 15.571V17.7139C15.7143 17.9036 15.8817 18.071 16.0714 18.071C16.1607 18.071 16.2612 18.0375 16.3281 17.9706L19.8996 14.3991C19.9665 14.3322 20 14.2317 20 14.1424ZM20 4.14244C20 4.05315 19.9665 3.95271 19.8996 3.88574L16.3393 0.325474C16.2612 0.25851 16.1719 0.213867 16.0714 0.213867C15.8705 0.213867 15.7143 0.370117 15.7143 0.57101V2.71387H12.8571C9.22991 2.71387 7.77902 5.70494 6.54018 8.5844C6.27232 9.22056 5.9933 9.86788 5.66964 10.4929C5.04464 11.6982 4.34152 12.7139 2.85714 12.7139H0.357143C0.15625 12.7139 0 12.8701 0 13.071V15.2139C0 15.4148 0.15625 15.571 0.357143 15.571H2.85714C6.48438 15.571 7.93527 12.5799 9.17411 9.70047C9.44197 9.06431 9.72098 8.41699 10.0446 7.79199C10.6696 6.58664 11.3728 5.57101 12.8571 5.57101H15.7143V7.71387C15.7143 7.91476 15.8817 8.07101 16.0714 8.07101C16.1607 8.07101 16.2612 8.03753 16.3281 7.97056L19.8996 4.39914C19.9665 4.33217 20 4.23172 20 4.14244Z" fill="black"/>
</svg>