<svg width="27" height="27" viewBox="0 0 27 27" fill="none" xmlns="http://www.w3.org/2000/svg">
	<path d="M26.02 1.76829C26.02 1.19165 25.5422 0.713867 24.9656 0.713867H16.5302C15.9536 0.713867 15.4758 1.19165 15.4758 1.76829V24.9656C15.4758 25.5422 15.9536 26.02 16.5302 26.02H24.9656C25.5422 26.02 26.02 25.5422 26.02 24.9656V1.76829ZM11.2581 1.76829C11.2581 1.19165 10.7803 0.713867 10.2037 0.713867H1.76829C1.19165 0.713867 0.713867 1.19165 0.713867 1.76829V24.9656C0.713867 25.5422 1.19165 26.02 1.76829 26.02H10.2037C10.7803 26.02 11.2581 25.5422 11.2581 24.9656V1.76829Z" fill="black"/>
</svg>