<svg width="22" height="22" viewBox="0 0 22 22" fill="none" xmlns="http://www.w3.org/2000/svg">
	<path d="M22 10.75C22 9.67578 21.7422 8.64453 21.2695 7.65625C21.0977 7.35547 20.8398 7.18359 20.4961 7.09766C20.1523 7.05469 19.8516 7.14062 19.6367 7.39844L19.0781 7.91406C18.9062 8.08594 18.8203 8.25781 18.8203 8.47266C18.7773 8.6875 18.8203 8.90234 18.9062 9.07422C19.1211 9.58984 19.25 10.1484 19.25 10.75C19.25 11.9102 18.8203 12.8984 18.0469 13.6719C17.2305 14.4883 16.2422 14.875 15.125 14.875H7.30469L8.80859 13.5C8.98047 13.3281 9.10938 13.0703 9.10938 12.7695C9.10938 12.4688 8.98047 12.2109 8.80859 11.9961L8.33594 11.5234C8.12109 11.3516 7.86328 11.2227 7.60547 11.2227C7.30469 11.2227 7.04688 11.3516 6.875 11.5234L2.92188 15.5195C2.70703 15.7344 2.62109 15.9922 2.62109 16.25C2.62109 16.5508 2.70703 16.8086 2.92188 16.9805L6.875 20.9766C7.04688 21.1914 7.30469 21.2773 7.60547 21.2773C7.86328 21.2773 8.12109 21.1914 8.33594 20.9766L8.80859 20.5039C8.98047 20.332 9.10938 20.0742 9.10938 19.7734C9.10938 19.4727 8.98047 19.2148 8.80859 19L7.30469 17.625H15.125C16.3281 17.625 17.4883 17.3242 18.5625 16.7227C19.5938 16.1211 20.4531 15.2617 21.0547 14.1875C21.6562 13.1562 22 11.9961 22 10.75ZM3.09375 12.4258C3.17969 12.6406 3.17969 12.8555 3.17969 13.0703C3.13672 13.2852 3.05078 13.457 2.92188 13.5859L2.36328 14.1016C2.10547 14.3594 1.84766 14.4883 1.50391 14.4023C1.16016 14.3594 0.902344 14.1875 0.730469 13.8438C0.214844 12.8984 0 11.8672 0 10.75C0 9.54688 0.300781 8.38672 0.902344 7.3125C1.50391 6.28125 2.36328 5.42188 3.4375 4.82031C4.46875 4.21875 5.62891 3.875 6.875 3.875H14.6953L13.1914 2.5C12.9766 2.32812 12.8906 2.07031 12.8906 1.76953C12.8906 1.46875 12.9766 1.21094 13.1914 0.996094L13.6641 0.523438C13.8359 0.351562 14.0938 0.222656 14.3945 0.222656C14.6523 0.222656 14.9102 0.351562 15.125 0.523438L19.0781 4.51953C19.25 4.73438 19.3789 4.99219 19.3789 5.25C19.3789 5.55078 19.25 5.80859 19.0781 5.98047L15.125 9.97656C14.9102 10.1914 14.6523 10.2773 14.3945 10.2773C14.0938 10.2773 13.8359 10.1914 13.6641 9.97656L13.1914 9.50391C12.9766 9.33203 12.8906 9.07422 12.8906 8.77344C12.8906 8.47266 12.9766 8.21484 13.1914 8L14.6953 6.625H6.875C5.71484 6.625 4.72656 7.05469 3.95312 7.82812C3.13672 8.64453 2.75 9.63281 2.75 10.75C2.75 11.3516 2.83594 11.9102 3.09375 12.4258Z" fill="black"/>
</svg>