<svg width="16" height="14" viewBox="0 0 16 14" fill="none" xmlns="http://www.w3.org/2000/svg">
	<path fill-rule="evenodd" clip-rule="evenodd" d="M1.09881 0.636044C0.673195 1.02657 0.673193 1.65973 1.0988 2.05026L6.49326 7.00001L1.09881 11.9498C0.673204 12.3403 0.673205 12.9734 1.09881 13.364C1.52443 13.7545 2.21447 13.7545 2.64009 13.364L8.03453 8.41422L13.429 13.364C13.8546 13.7545 14.5446 13.7545 14.9703 13.364C15.3959 12.9734 15.3959 12.3403 14.9703 11.9498L9.57581 7.00001L14.9703 2.05026C15.3959 1.65973 15.3959 1.02657 14.9703 0.636044C14.5447 0.24552 13.8546 0.245519 13.429 0.636043L8.03453 5.58579L2.64008 0.636044C2.21447 0.245519 1.52442 0.24552 1.09881 0.636044Z" fill="black"/>
</svg>