<svg width="204" height="205" viewBox="0 0 204 205" fill="none" xmlns="http://www.w3.org/2000/svg">
<circle opacity="0.9" cx="102" cy="4.61889" r="4.61889" fill="#D0112B"/>
<circle opacity="0.4" cx="102" cy="199.383" r="4.61889" fill="#D0112B"/>
<circle opacity="0.9" cx="127.204" cy="7.93724" r="4.61889" transform="rotate(15 127.204 7.93724)" fill="#D0112B"/>
<circle opacity="0.4" cx="76.7953" cy="196.063" r="4.61889" transform="rotate(15 76.7953 196.063)" fill="#D0112B"/>
<circle cx="150.69" cy="17.666" r="4.61889" transform="rotate(30 150.69 17.666)" fill="#D0112B"/>
<circle opacity="0.5" cx="53.3088" cy="186.335" r="4.61889" transform="rotate(30 53.3088 186.335)" fill="#D0112B"/>
<circle opacity="0.5" cx="33.1406" cy="170.859" r="4.61889" transform="rotate(45 33.1406 170.859)" fill="#D0112B"/>
<circle opacity="0.5" cx="17.6651" cy="150.69" r="4.61889" transform="rotate(60 17.6651 150.69)" fill="#D0112B"/>
<circle opacity="0.1" cx="196.063" cy="76.7976" r="4.61889" transform="rotate(75 196.063 76.7976)" fill="#D0112B"/>
<circle opacity="0.6" cx="7.93683" cy="127.204" r="4.61889" transform="rotate(75 7.93683 127.204)" fill="#D0112B"/>
<circle opacity="0.1" cx="199.381" cy="102.002" r="4.61889" transform="rotate(90 199.381 102.002)" fill="#D0112B"/>
<circle opacity="0.6" cx="4.6189" cy="102.001" r="4.61889" transform="rotate(90 4.6189 102.001)" fill="#D0112B"/>
<circle opacity="0.2" cx="196.063" cy="127.206" r="4.61889" transform="rotate(105 196.063 127.206)" fill="#D0112B"/>
<circle opacity="0.7" cx="7.93728" cy="76.7963" r="4.61889" transform="rotate(105 7.93728 76.7963)" fill="#D0112B"/>
<circle opacity="0.2" cx="186.334" cy="150.692" r="4.61889" transform="rotate(120 186.334 150.692)" fill="#D0112B"/>
<circle opacity="0.7" cx="17.6658" cy="53.3098" r="4.61889" transform="rotate(120 17.6658 53.3098)" fill="#D0112B"/>
<circle opacity="0.3" cx="170.858" cy="170.859" r="4.61889" transform="rotate(135 170.858 170.859)" fill="#D0112B"/>
<circle opacity="0.7" cx="33.1415" cy="33.1416" r="4.61889" transform="rotate(135 33.1415 33.1416)" fill="#D0112B"/>
<circle opacity="0.3" cx="150.69" cy="186.335" r="4.61889" transform="rotate(150 150.69 186.335)" fill="#D0112B"/>
<circle opacity="0.8" cx="53.3101" cy="17.6658" r="4.61889" transform="rotate(150 53.3101 17.6658)" fill="#D0112B"/>
<circle opacity="0.4" cx="127.203" cy="196.063" r="4.61889" transform="rotate(165 127.203 196.063)" fill="#D0112B"/>
<circle opacity="0.8" cx="76.7964" cy="7.93805" r="4.61889" transform="rotate(165 76.7964 7.93805)" fill="#D0112B"/>
<path d="M181.186 44.2917L177.823 40.079L181.455 30.8805C181.58 30.661 181.522 30.2876 181.376 30.1044L179.475 27.7234C179.153 27.3204 178.516 27.3491 178.237 27.7515L173.406 34.5476L170.423 30.8112L171.224 27.5323C171.283 27.3054 171.276 27.0712 171.13 26.888L169.96 25.4227C169.638 25.0198 169.038 25.0192 168.759 25.4216L165.739 29.7525L160.81 31.7681C160.356 31.9507 160.261 32.507 160.582 32.9099L161.752 34.3752C161.898 34.5584 162.089 34.6464 162.323 34.6393L165.734 34.5548L168.718 38.2912L160.984 41.5267C160.53 41.7093 160.397 42.2948 160.719 42.6978L162.62 45.0789C162.796 45.2986 163.052 45.3941 163.323 45.3577L173.134 43.8226L176.497 48.0353C177.521 49.3174 180.331 50.733 181.649 49.6801C182.932 48.6565 182.21 45.5738 181.186 44.2917Z" fill="#D0112B"/>
</svg>
