<svg width="14" height="20" viewBox="0 0 14 20" fill="none" xmlns="http://www.w3.org/2000/svg">
	<path d="M11.1946 7.53701V3.9031C11.1946 1.74966 9.42412 0 7.24514 0H6.7821C4.60311 0 2.83268 1.74966 2.83268 3.9031V4.60296H4.19455V3.9031C4.19455 2.50336 5.36576 1.34589 6.7821 1.34589H7.24514C8.66148 1.34589 9.83268 2.50336 9.83268 3.9031V6.75639C8.96109 6.37954 8.00778 6.1642 7 6.1642C3.1323 6.1642 0 9.25976 0 13.0821C0 16.9044 3.1323 20 7 20C10.8677 20 14 16.9044 14 13.0821C14 10.821 12.9105 8.80215 11.1946 7.53701ZM8.30739 16.5545H7.02724H5.71984L6.50973 13.7281C5.96498 13.5128 5.55642 13.0013 5.55642 12.3822C5.55642 11.5747 6.21012 10.9556 7 10.9556C7.78988 10.9556 8.44358 11.6016 8.44358 12.3822C8.44358 13.0013 8.03502 13.5397 7.49027 13.7281L8.30739 16.5545Z" fill="white"/>
</svg>