<svg width="120" height="120" viewBox="0 0 120 120" fill="none" xmlns="http://www.w3.org/2000/svg">
<g clip-path="url(#clip0_24313:172377)">
<path d="M62.1 92.1006C86.1244 92.1006 105.6 72.625 105.6 48.6006C105.6 24.5762 86.1244 5.10059 62.1 5.10059C38.0756 5.10059 18.6 24.5762 18.6 48.6006C18.6 72.625 38.0756 92.1006 62.1 92.1006Z" fill="white"/>
<path d="M38.7 17.25C38.4 17.4 38.1 17.7 37.8 17.85C37.95 17.85 37.95 17.7 37.95 17.7C38.25 17.7 38.55 17.4 38.7 17.25Z" fill="#585858"/>
<path d="M34.8 20.8502C34.8 20.7002 34.8 20.7002 34.8 20.8502C34.95 20.7002 34.95 20.7002 34.95 20.7002C34.8 20.7002 34.8 20.7002 34.8 20.8502C34.8 20.8502 34.8 20.7002 34.8 20.8502Z" fill="#585858"/>
<path d="M36 19.5006C36.3 19.2006 36.75 18.9006 37.05 18.6006C36.75 18.9006 36.45 19.2006 36 19.5006Z" fill="#585858"/>
<path d="M54 15.4502C53.85 15.4502 53.85 15.4502 53.85 15.4502C53.85 15.4502 53.85 15.4502 53.85 15.6002C53.85 15.4502 54 15.4502 54 15.4502C54 15.6002 54 15.6002 54 15.4502C54 15.6002 54 15.6002 54 15.4502C54 15.6002 54 15.6002 54 15.4502C54 15.6002 54 15.6002 54 15.4502C54 15.6002 54 15.6002 54 15.4502C54 15.6002 54 15.6002 54 15.4502C54 15.6002 54 15.6002 54 15.4502C54 15.6002 54 15.6002 54 15.4502C53.85 15.6002 53.85 15.6002 54 15.6002C54.15 15.6002 54 15.4502 54 15.4502Z" fill="#585858"/>
<path d="M45.3 16.65C45.45 16.65 45.45 16.65 45.6 16.5C45.45 16.5 45.3 16.65 45.3 16.65Z" fill="#585858"/>
<path d="M63.45 37.7994C63.3 37.6494 62.4 37.7994 62.4 38.2494C62.4 38.2494 62.25 38.0994 62.1 38.0994C61.8 38.2494 61.65 38.5494 61.5 38.6994C61.5 38.5494 61.65 38.5494 61.65 38.5494C61.65 38.5494 61.65 38.3994 61.65 38.5494C61.5 38.6994 61.5 38.9994 61.8 39.1494C62.25 39.2994 62.7 39.2994 63 39.2994C63 39.2994 63 38.8494 63.15 38.6994C63.15 38.5494 63.15 38.5494 63.15 38.5494C63 38.5494 63 38.5494 62.85 38.2494C63 38.2494 63.3 37.9494 63.45 37.7994Z" fill="#585858"/>
<path d="M60.6 24.0006C60.45 24.0006 60.15 23.8506 59.85 23.8506C60 24.0006 60 24.3006 60.15 24.4506L60.6 24.0006Z" fill="#585858"/>
<path d="M88.5 19.9494C88.35 19.9494 88.35 19.7994 88.05 19.6494C87 19.1994 87 19.0494 86.4 18.8994C87 19.1994 87.6 19.6494 88.35 20.0994L88.5 19.9494Z" fill="#585858"/>
<path d="M59.7 42.7494C60.45 42.7494 61.2 42.2994 61.95 42.1494L63.15 40.9494L65.1 41.2494C64.35 40.3494 62.7 39.2994 62.55 39.2994C62.55 39.2994 62.55 39.2994 62.4 39.2994C61.95 39.4494 61.8 40.0494 61.2 40.0494C60.9 40.0494 60.6 39.5994 60.3 39.2994C60.45 39.1494 60.6 38.9994 60.75 38.8494C59.85 38.3994 59.85 38.3994 59.7 38.3994C59.1 38.6994 58.8 39.4494 58.35 39.8994C58.2 40.0494 58.05 40.0494 58.05 40.1994C57.6 40.9494 58.2 42.7494 59.7 42.7494Z" fill="#585858"/>
<path d="M58.5 43.3498C58.65 43.1998 58.65 43.1998 58.95 43.1998C58.8 43.1998 58.5 43.0498 58.35 43.0498C58.2 43.0498 58.05 43.0498 58.05 43.0498C57.75 43.0498 57.45 43.3498 57.3 43.4998C57.6 43.3498 58.05 43.4998 58.05 43.4998C58.05 43.4998 58.5 43.4998 58.5 43.3498C58.65 43.3498 58.8 43.3498 58.5 43.3498Z" fill="#585858"/>
<path d="M70.05 39.1495C69.9 38.9995 69.6 38.6995 69.75 38.6995C69.9 38.3995 70.35 38.5495 70.65 38.3995C70.2 38.0995 70.2 37.4995 69.75 37.3495C69.3 37.1995 69 37.6495 68.7 37.7995C68.85 38.0995 68.55 38.2495 68.55 38.3995C68.25 38.3995 68.25 38.6995 67.95 38.5495C67.95 38.8495 68.4 39.8995 68.55 40.0495C68.55 40.0495 68.55 40.0495 68.55 39.8995C68.55 39.8995 68.55 39.8995 68.7 39.8995C68.7 40.3495 68.7 40.7995 69.6 41.3995L70.8 40.0495C70.35 39.7495 70.05 39.4495 69.9 39.2995C69.15 38.9995 69.6 39.1495 70.05 39.1495Z" fill="#585858"/>
<path d="M99.45 26.3994C99.15 26.9994 98.85 27.4494 98.4 27.8994L95.85 29.9994C96.75 31.0494 97.65 31.9494 98.25 33.1494C98.55 33.8994 98.85 34.6494 99.15 35.3994C99.3 35.9994 99.6 36.5994 99.75 37.1994C99.75 37.1994 99.75 37.1994 99.75 37.3494C99.9 37.9494 100.05 38.6994 100.2 39.2994V39.1494C100.2 39.2994 100.35 39.4494 100.35 39.5994C100.5 41.9994 100.5 41.9994 100.65 42.4494C100.5 42.2994 100.35 41.9994 100.2 41.8494C100.5 45.4494 101.85 49.0494 101.25 52.7994C101.25 52.4994 101.25 52.1994 101.1 52.0494C100.95 51.7494 100.95 51.4494 100.8 51.1494C100.65 51.1494 100.5 51.1494 100.5 51.2994C100.5 52.0494 100.35 53.2494 100.35 54.2994V54.5994C101.1 56.2494 100.65 57.8994 100.2 58.6494C100.2 57.2994 100.05 55.9494 100.05 54.5994C100.35 51.8994 99.45 49.9494 99.15 49.4994C99.3 50.2494 99.3 50.2494 99 51.1494C98.85 51.1494 98.85 51.2994 98.7 51.4494C98.7 50.5494 97.95 49.7994 97.8 49.0494C97.65 49.0494 97.35 48.8994 97.2 48.7494C96.45 47.6994 96.45 47.6994 96.15 47.6994C96.3 48.2994 95.85 48.8994 95.85 49.4994C95.85 49.4994 95.85 49.4994 95.7 49.3494L96.45 53.3994L94.35 55.4994C94.05 57.5994 94.05 59.8494 93.6 61.9494C93.15 62.2494 93 62.8494 92.4 62.9994C92.1 62.8494 91.35 61.0494 90.6 59.0994L89.85 59.8494L87.75 55.0494L87.6 55.1994C87.15 55.0494 87 55.0494 86.7 54.2994C86.85 54.1494 87 53.8494 87.15 53.5494C86.85 53.6994 86.55 53.6994 86.25 53.6994C86.25 53.5494 86.1 53.3994 86.1 53.3994C85.95 53.3994 85.8 53.3994 85.65 53.3994C84.6 52.3494 84.6 52.3494 84.3 52.3494C83.1 52.3494 82.2 53.3994 81 53.5494C81 53.6994 80.85 53.6994 80.7 53.8494C79.5 53.8494 79.5 53.8494 78.3 52.9494C77.4 53.3994 76.65 53.3994 76.05 53.0994L76.2 53.9994L74.7 55.3494C75.6 56.0994 77.7 56.6994 78.15 53.3994C78.9 54.5994 80.85 54.5994 81 56.3994C81 56.5494 80.25 59.8494 78.6 61.4994C78.6 61.4994 72.15 66.8994 71.25 66.2994L66.6 59.0994C66.15 59.3994 65.85 59.6994 65.4 59.9994C66.6 62.2494 67.65 64.3494 67.65 64.3494C68.4 65.5494 70.05 65.6994 70.95 66.7494C70.95 67.0494 70.65 67.3494 70.5 67.4994C72.6 67.7994 74.55 66.7494 76.65 66.4494C78.45 68.3994 70.95 75.8994 70.5 76.1994C67.8 77.8494 67.8 77.8494 68.25 83.8494C67.05 84.5994 65.7 84.8994 64.5 85.4994C64.5 85.7994 64.65 86.0994 64.8 86.2494C63.3 88.3494 58.35 88.3494 55.05 86.8494C52.05 85.4994 52.05 85.4994 49.05 79.1994C49.05 79.0494 49.2 78.8994 49.2 78.8994C48.6 78.5994 48.15 78.4494 46.05 75.8994H45.9C45.75 75.7494 45.6 75.4494 45.6 75.1494C45.75 74.9994 45.9 74.9994 45.9 74.8494C45.45 73.7994 46.05 71.8494 44.55 71.6994C43.2 72.2994 42 72.7494 40.65 73.1994C36.3 74.8494 32.4 75.8994 28.95 76.6494C36.9 86.2494 48.9 92.2494 62.25 92.2494C86.25 92.2494 105.75 72.7494 105.75 48.7494C105.6 40.4994 103.35 32.8494 99.45 26.3994ZM99.45 35.9994C99.3 35.6994 99.15 35.2494 99 34.9494C99 34.9494 99.3 35.5494 99.6 36.2994C99.75 36.8994 99.9 37.3494 99.9 37.3494C99.75 36.8994 99.6 36.4494 99.45 35.9994ZM100.2 39.5994C100.2 39.5994 100.2 39.4494 100.2 39.5994C100.2 39.4494 100.2 39.5994 100.2 39.5994ZM99.45 58.4994C99.9 58.0494 100.05 58.9494 100.05 58.9494C100.05 59.0994 100.05 59.2494 100.05 59.3994C100.05 59.2494 100.05 59.2494 100.05 59.2494C100.05 59.2494 100.05 59.2494 100.05 59.3994V59.2494C100.05 59.3994 100.05 59.5494 100.05 59.5494V59.6994C100.05 59.5494 100.05 59.3994 100.2 59.3994C100.2 59.3994 100.2 59.3994 100.2 59.6994C100.2 59.6994 100.2 59.6994 100.2 59.5494C100.2 59.6994 99.9 60.4494 99.9 60.4494L98.85 62.9994C99.6 61.0494 99.45 59.9994 99.15 59.0994C99.15 58.7994 99.15 58.7994 99.45 58.4994ZM93.6 61.6494C93.6 61.4994 93.75 61.6494 93.6 61.6494C93.75 61.4994 93.6 61.1994 93.75 61.1994C93.75 61.1994 93.75 61.1994 93.75 61.0494C93.75 61.0494 93.75 61.0494 93.9 61.0494C93.9 61.0494 93.9 61.0494 94.05 61.0494C94.35 61.1994 94.5 61.3494 94.5 61.3494V61.4994C94.5 61.4994 94.65 61.9494 94.65 62.3994C94.5 63.1494 94.05 63.4494 93.75 63.1494C93.6 62.9994 93.6 62.6994 93.75 61.9494V62.0994C93.6 62.3994 93.75 61.7994 93.6 61.6494ZM69.3 85.1994C70.05 84.2994 70.2 84.1494 70.2 83.6994C70.35 83.6994 70.5 83.5494 71.55 83.3994C71.7 83.2494 72 83.2494 72 83.2494C72.15 83.2494 72.15 82.9494 72.45 82.9494V83.0994C72.6 82.9494 72.6 82.9494 72.75 82.9494C72.75 82.7994 72.9 82.6494 72.9 82.4994C73.05 82.3494 73.05 82.3494 73.2 82.3494C73.2 82.3494 73.35 82.3494 73.35 82.1994C73.5 82.0494 73.5 82.0494 73.5 81.8994C73.65 81.7494 73.8 81.7494 73.8 81.5994C74.1 81.5994 74.1 81.8994 73.95 82.7994C73.95 82.9494 73.95 82.9494 73.95 83.0994C73.95 83.2494 73.8 83.2494 73.65 83.2494C73.65 83.2494 73.65 83.0994 73.5 83.0994C73.35 83.2494 73.2 83.3994 72.75 83.9994C72.15 84.7494 71.55 85.4994 70.65 86.0994C69.75 86.6994 68.55 86.6994 68.55 86.2494C68.7 85.9494 69 85.6494 69.3 85.1994Z" fill="#585858"/>
<path d="M33 66.4498C29.1 61.0498 30.3 52.7998 30.3 52.6498C30.6 51.2998 37.5 43.7998 39.3 43.6498C40.05 44.6998 40.05 44.6998 43.5 44.2498C44.1 44.0998 44.1 44.0998 47.85 45.1498C46.95 47.3998 46.95 47.3998 46.8 47.5498L51.6 51.2998C52.05 51.4498 52.5 51.1498 52.65 50.9998C54.3 49.6498 54.3 49.6498 54.6 49.6498C55.2 49.6498 55.8 49.9498 56.25 50.3998C57.6 49.1998 58.95 47.9998 60.15 46.6498C59.1 46.6498 58.2 46.6498 57.9 46.4998C58.05 46.4998 58.05 46.3498 58.2 46.1998C57.3 45.7498 57.15 45.4498 57 44.9998C57.15 44.9998 57.3 44.8498 57.3 44.8498C57.3 44.5498 57.15 44.2498 57.15 44.0998C57 44.0998 56.85 43.9498 56.85 43.9498C57 43.6498 57.15 43.3498 57.3 43.1998C56.55 43.0498 56.55 43.0498 55.95 42.8998C55.8 43.0498 55.8 43.3498 55.8 43.6498C55.65 43.4998 55.5 43.4998 55.35 43.4998C55.35 43.3498 55.2 43.1998 55.2 43.0498C55.05 43.4998 55.05 43.4998 55.95 45.2998C55.8 45.2998 55.8 45.1498 55.65 44.9998C55.65 45.1498 55.65 45.2998 55.65 45.4498C55.5 45.4498 55.35 45.4498 55.2 45.4498C55.2 45.5998 55.35 45.7498 55.35 45.7498C55.2 45.7498 55.05 45.5998 55.05 45.5998C55.05 45.8998 55.2 46.1998 55.2 46.4998L53.25 43.4998C53.25 43.3498 53.1 43.1998 53.1 43.0498C52.95 40.7998 52.95 40.7998 51.75 40.4998C51.9 40.4998 52.05 40.4998 52.2 40.4998C51.45 39.8998 51.45 39.8998 51.3 39.5998L51.45 39.4498C51.3 39.2998 51.3 39.1498 51.15 38.8498H51C50.85 38.6998 50.7 38.3998 50.55 38.0998C50.4 38.2498 50.25 38.2498 50.1 38.3998C49.95 40.4998 51.75 41.6998 52.5 43.3498C52.35 43.1998 52.05 43.0498 51.9 43.0498C51.6 43.6498 51.6 44.3998 51.15 44.8498C51 44.8498 50.85 44.6998 50.85 44.6998C50.7 44.9998 50.55 45.2998 50.55 45.5998C50.4 45.5998 50.25 45.7498 50.25 45.7498C50.1 45.7498 49.8 45.5998 49.8 45.4498C48.9 44.6998 48.9 44.6998 51.45 44.0998C51.45 43.9498 51.6 43.7998 51.6 43.7998C48.75 38.5498 48.15 37.6498 45.6 39.1498C45.6 39.7498 42 42.8998 42 42.8998C41.25 43.3498 40.35 42.7498 39.6 43.1998C39.45 43.0498 39.45 43.0498 39.3 42.8998C39.3 41.8498 38.25 41.8498 38.25 41.8498C38.55 40.7998 40.35 37.3498 40.95 36.8998C42 36.1498 42.6 37.7998 43.65 37.9498C43.65 37.9498 44.55 37.0498 44.7 35.9998C45.3 35.2498 44.1 34.4998 44.4 33.7498C44.85 33.7498 44.85 33.7498 45.6 34.1998C45.75 34.0498 45.9 33.7498 46.05 33.4498C46.2 33.5998 46.2 33.7498 46.35 33.7498C48.3 33.7498 49.2 31.3498 51.3 31.3498C51.45 29.8498 51.6 29.6998 51.9 29.3998L52.05 29.2498H52.2C52.35 29.0998 52.65 28.9498 52.8 28.7998C52.65 29.0998 52.65 29.3998 52.5 29.6998C52.5 29.8498 52.5 29.8498 51.9 30.2998C51.9 30.2998 51.9 30.2998 52.2 30.5998C52.05 30.7498 52.05 30.7498 51.9 30.8998H51.75C51.75 31.0498 51.75 31.1998 51.75 31.3498C51.9 31.3498 52.05 31.3498 52.2 31.3498C52.2 31.4998 52.2 31.6498 52.2 31.7998C52.2 31.7998 54 31.4998 54.9 31.7998C55.05 31.9498 55.05 31.9498 55.2 32.0998C55.2 32.0998 57 30.4498 57.45 29.6998C57.3 29.3998 57.3 29.0998 57.15 28.9498C57.6 28.4998 57.6 28.4998 59.4 28.3498C58.65 27.7498 57.9 28.1998 57.15 28.0498C56.4 26.5498 58.65 25.9498 58.35 24.5998C58.2 24.5998 58.05 24.5998 57.9 24.5998C57.75 24.7498 57.6 25.0498 57.45 25.3498C56.1 26.2498 56.4 28.1998 54.9 29.0998C54.9 29.3998 54.75 29.6998 54.75 29.8498C54.6 31.0498 53.25 30.5998 52.65 31.1998C52.5 31.1998 52.5 31.3498 52.35 31.4998C52.2 31.4998 52.05 31.3498 52.05 31.3498C52.35 30.8998 52.5 30.7498 52.95 30.5998C53.1 29.5498 53.1 29.5498 53.1 29.0998C53.1 28.9498 53.1 28.4998 53.1 28.3498C52.05 29.2498 51.75 28.3498 51.75 27.8998C51.9 27.8998 51.9 27.7498 52.05 27.7498C52.05 27.5998 52.05 27.4498 52.05 27.2998L52.2 26.9998C52.2 26.9998 52.2 26.9998 52.35 26.8498C52.5 26.3998 52.5 26.3998 53.4 25.7998H53.55H53.7V25.9498C53.85 25.9498 54 25.7998 54 25.7998C54 25.7998 54.45 25.6498 55.05 25.0498C55.2 24.8998 55.5 24.5998 55.65 24.4498C56.25 23.6998 56.4 23.6998 56.85 23.5498V23.3998C56.55 23.3998 56.25 23.5498 56.1 23.5498C56.25 23.5498 56.4 23.3998 56.4 23.3998C56.55 23.2498 56.85 23.0998 57 23.0998C57.15 23.0998 57.15 22.9498 57.3 22.9498C57.45 22.9498 57.6 23.0998 57.75 23.0998C57.9 22.9498 57.9 22.7998 58.05 22.7998C58.05 22.7998 58.05 22.7998 58.05 22.9498C58.2 22.9498 58.35 22.9498 58.35 22.7998C58.5 22.7998 58.65 22.6498 58.65 22.4998C58.8 22.4998 58.8 22.4998 58.95 22.4998C58.95 22.6498 58.8 22.7998 58.8 22.7998C58.95 22.6498 58.95 22.6498 59.1 22.4998C59.25 22.6498 59.7 22.6498 59.85 22.6498C59.7 22.6498 59.7 22.7998 59.55 22.9498C59.55 22.9498 61.05 23.3998 61.65 24.2998L62.25 23.6998L63.6 22.3498C63.6 22.3498 63.6 22.3498 63.45 22.3498C63.3 22.3498 63.3 22.3498 63.3 22.1998V22.3498C63.15 22.1998 63 22.1998 63.15 22.0498C63 22.0498 62.85 22.0498 62.85 21.8998C62.85 21.7498 63 21.5998 62.85 21.4498C62.85 21.2998 63 21.1498 63 21.1498C63 21.1498 63 21.1498 63 20.9998H62.85C62.85 20.9998 62.85 20.8498 63 20.6998C62.85 20.6998 63 20.5498 63 20.5498C63 20.5498 62.85 20.5498 63 20.3998L63.15 20.2498C63.15 20.2498 63.15 20.0998 63.3 20.0998C63.45 20.0998 63.45 19.9498 63.3 19.9498C63.45 19.9498 63.6 19.7998 63.75 19.6498C63.75 19.6498 63.9 19.6498 64.05 19.6498C64.05 19.7998 63.9 19.7998 63.75 19.9498C63.6 20.0998 63.6 20.2498 63.45 20.3998C63.45 20.5498 63.45 20.6998 63.3 20.6998C63.3 20.8498 63.3 20.8498 63.3 20.9998C63.3 20.9998 63.3 20.9998 63.3 21.1498C63.3 21.1498 63.3 21.1498 63.3 21.4498C63.3 21.4498 63.3 21.4498 63.3 21.5998V21.7498C63.3 21.7498 63.45 22.0498 63.6 22.1998L64.2 21.5998L65.25 21.7498C65.25 21.5998 65.25 21.4498 65.25 21.1498C65.4 21.2998 65.85 21.5998 66.15 21.8998H66.3C66.15 21.7498 66 21.5998 66 21.2998C66.15 21.2998 66.45 21.4498 66.75 21.5998C66.6 21.5998 66.45 21.4498 66.3 21.4498C66.3 21.2998 66.3 21.1498 66.3 20.9998C66.45 20.9998 66.6 21.1498 66.6 21.1498C66.75 21.1498 66.9 20.9998 67.05 20.9998C66.75 20.8498 66.45 20.6998 66.15 20.5498C66.15 20.5498 66.15 20.5498 66.15 20.3998C66.15 20.2498 66.3 20.0998 66.3 19.9498C66.15 19.9498 66.15 19.7998 66 19.6498C66 19.3498 66.15 19.0498 66.15 18.8998C66.3 18.8998 66.45 18.7498 66.45 18.7498C66.3 18.5998 66.15 18.2998 66 18.1498C66.15 18.1498 67.05 18.1498 67.8 18.2998C67.8 18.2998 67.8 18.2998 67.95 18.4498C68.1 18.5998 68.1 18.7498 68.25 18.7498C68.4 18.8998 68.55 19.0498 68.85 19.0498C68.85 18.8998 68.85 18.7498 68.7 18.5998C69.6 18.5998 69.6 18.5998 70.05 18.1498C69.9 17.9998 69.9 17.9998 69.75 17.8498C70.05 17.8498 70.35 17.8498 70.65 17.8498C71.25 18.1498 71.7 17.9998 72.15 17.9998C72 17.8498 72 17.8498 71.85 17.6998C72 17.5498 72.15 17.5498 72.15 17.3998H72L72.15 17.2498C71.85 17.2498 71.55 17.0998 71.25 16.9498C71.55 16.7998 71.7 16.6498 72 16.4998C73.05 16.6498 73.05 15.2998 73.65 14.8498C73.5 14.8498 73.05 14.6998 72.9 14.6998C73.5 13.4998 73.5 12.8998 73.35 12.2998C73.65 12.2998 73.95 12.1498 74.1 12.1498C74.4 12.2998 74.4 12.7498 74.7 12.8998C75.6 12.8998 75.6 12.8998 75.9 12.7498C76.05 12.7498 76.2 12.8998 76.2 12.8998C76.2 12.8998 82.65 15.1498 84 16.0498C82.95 15.7498 81.9 15.7498 81 15.4498C81 15.4498 81 15.4498 80.85 15.2998C79.5 14.5498 79.5 14.5498 77.7 14.2498C77.7 14.2498 77.7 14.2498 77.85 14.2498C78.3 14.3998 78.45 14.3998 78.9 14.6998C78.75 14.6998 78.6 14.8498 78.6 14.8498C79.2 15.2998 79.95 15.1498 80.55 15.5998C80.55 15.7498 80.4 15.8998 80.4 16.0498C80.85 16.7998 80.85 16.7998 83.85 19.0498L84 19.1998C84 19.0498 84.15 19.0498 84.15 18.8998C84 18.8998 83.85 18.7498 83.85 18.7498C84 18.7498 84.15 18.8998 84.15 18.8998C84.3 18.8998 84.45 19.0498 84.6 19.0498C84.45 18.8998 84.3 18.5998 84 18.4498C84.3 18.2998 84.6 18.2998 84.9 18.4498C84.6 18.2998 84.45 18.2998 84.3 18.2998C84.15 18.1498 84.15 18.1498 83.7 18.1498C83.7 18.1498 83.85 18.1498 84.3 18.1498C84.6 18.1498 85.95 18.4498 86.4 18.5998C86.25 18.5998 86.25 18.5998 86.25 18.5998C86.4 18.7498 87.45 19.3498 87.6 19.3498C87.6 19.3498 87.45 19.3498 87.45 19.1998C87.45 19.1998 87.6 19.1998 87.75 19.3498C87.75 19.3498 87.75 19.3498 87.6 19.3498C87.6 19.3498 87.6 19.3498 87.9 19.6498L88.2 19.3498C88.05 19.1998 87.75 19.0498 87.75 18.8998C87.9 19.0498 88.05 19.1998 88.2 19.3498L88.95 18.5998C89.7 17.8498 90.75 17.2498 91.65 16.9498C83.85 9.4498 73.2 4.7998 61.5 4.7998C37.5 4.7998 18 24.2998 18 48.2998C18 55.9498 19.95 63.1498 23.55 69.4498C27 68.9998 29.85 67.9498 33 66.4498ZM48 40.0498C48.15 40.0498 48.15 40.0498 48 40.0498C48.15 40.0498 48.15 40.1998 48 40.4998C47.85 40.9498 47.7 41.2498 47.55 41.3998C47.25 41.2498 47.25 41.0998 47.4 40.9498C47.25 40.7998 47.85 40.1998 48 40.0498ZM46.95 42.4498C47.1 41.9998 47.1 41.6998 47.1 41.5498C47.25 41.8498 47.4 41.8498 47.55 41.6998C47.7 41.5498 47.7 41.5498 47.7 41.5498C47.85 41.6998 47.7 42.4498 47.7 42.5998C47.55 42.8998 47.4 43.0498 47.25 43.0498C47.1 43.0498 46.95 43.0498 46.8 43.1998C46.65 43.0498 46.8 42.8998 46.95 42.4498ZM36.15 23.0998C35.55 23.2498 35.4 23.3998 35.25 23.3998C35.55 23.3998 35.55 23.3998 35.55 23.3998C35.55 23.3998 35.4 23.3998 35.4 23.5498C35.4 23.5498 35.4 23.5498 35.55 23.5498C35.4 23.5498 35.4 23.5498 35.25 23.6998C35.25 23.6998 35.25 23.6998 35.25 23.8498C35.25 23.8498 35.25 23.9998 35.1 23.9998H35.25V24.1498C35.25 24.1498 35.25 24.1498 35.1 24.1498C35.25 24.1498 34.95 24.4498 34.95 24.4498C34.8 24.4498 34.8 24.4498 34.65 24.4498C34.65 24.4498 34.65 24.4498 34.5 24.7498V24.8998C34.5 24.8998 34.5 24.8998 34.35 24.8998C34.2 24.8998 34.05 25.0498 33.9 25.1998C34.05 25.0498 34.2 25.0498 34.2 25.1998C33.9 25.3498 33.9 25.3498 33.75 25.3498C33.75 25.3498 33.75 25.3498 33.9 25.3498C33.75 25.4998 33.45 25.6498 33.3 25.6498C33.3 25.6498 33.15 25.6498 33.45 25.4998C33.3 25.4998 33.3 25.4998 33.3 25.4998C33.45 25.3498 33.75 25.3498 33.9 25.0498C33.9 25.0498 33.9 25.0498 33.75 25.0498C33.45 25.0498 33.45 25.0498 33.45 25.0498C33.45 24.8998 33.75 24.8998 33.9 24.8998C33.9 24.8998 33.9 24.7498 33.75 24.7498C33.9 24.7498 34.05 24.5998 34.05 24.4498C34.05 24.2998 33.9 24.1498 33.9 24.1498C33.9 23.9998 34.2 23.6998 34.5 23.8498C34.35 23.6998 34.65 23.6998 34.65 23.6998C34.65 23.6998 34.8 23.6998 34.95 23.5498C35.25 23.3998 36.15 23.0998 36.3 23.0998C36.6 22.9498 36.6 22.9498 36.15 23.0998ZM35.1 22.6498C35.1 22.4998 35.55 22.0498 35.7 21.8998L35.85 21.7498C35.7 21.8998 35.4 22.3498 35.1 22.6498ZM39.75 20.2498C39.6 20.2498 39.6 20.2498 39.75 20.2498C39.6 20.2498 39.75 20.2498 39.75 20.2498ZM43.95 31.1998C43.8 31.1998 43.8 31.1998 43.8 31.1998C43.8 31.0498 43.8 31.0498 43.95 31.1998C43.65 31.1998 43.65 31.1998 43.65 31.1998C43.65 31.1998 43.65 31.1998 43.8 31.0498C43.8 31.0498 43.8 31.0498 43.65 31.0498C43.65 30.8998 43.8 30.8998 43.95 30.7498C43.95 30.7498 43.95 30.7498 43.95 30.5998C43.95 30.5998 43.95 30.5998 44.25 30.4498C44.25 30.2998 44.7 30.1498 44.85 30.1498C44.7 29.9998 44.7 29.9998 44.7 29.9998C44.7 29.9998 44.7 29.9998 44.7 29.8498H44.55C44.55 29.8498 44.55 29.8498 45 29.6998C44.85 29.6998 44.85 29.5498 44.85 29.5498C45 29.5498 45 29.5498 45 29.5498C45.15 29.3998 45.15 29.3998 45.3 29.5498C45.45 29.6998 45.45 29.6998 45.45 29.6998C45.45 29.5498 45.45 29.5498 45.75 29.5498C45.6 29.5498 45.6 29.3998 45.75 29.2498C46.05 29.0998 46.05 29.0998 46.2 29.0998C46.5 29.2498 46.5 29.6998 46.5 29.6998C46.05 29.9998 45.75 30.5998 45.45 31.0498C45.3 31.1998 45.15 31.3498 44.85 31.3498C44.85 31.3498 44.7 31.3498 44.55 31.3498C44.25 31.1998 44.1 31.1998 43.95 31.1998ZM44.55 21.1498C44.7 20.9998 44.7 20.9998 44.55 21.1498C44.7 20.9998 44.7 20.9998 44.55 21.1498C44.55 21.1498 44.7 21.1498 44.55 21.1498ZM48.75 27.4498C48.45 27.5998 48.3 27.7498 48 27.8998C48.3 27.7498 48.45 27.8998 48.6 28.0498C48.45 28.4998 47.55 28.9498 47.4 28.9498C47.7 29.3998 47.25 30.1498 47.7 30.5998C47.55 30.5998 47.55 30.5998 47.55 31.0498C47.55 30.8998 47.55 30.8998 47.4 30.8998C47.55 31.0498 47.7 32.0998 47.25 32.3998C47.1 32.5498 46.95 32.5498 46.95 32.5498C47.1 32.5498 47.1 32.6998 47.1 32.8498C46.95 32.9998 45.9 33.1498 45.9 32.8498C44.85 32.5498 44.7 32.5498 44.25 32.6998C44.7 32.3998 45.3 32.3998 45.75 32.0998C45.6 32.0998 45.15 31.9498 45 31.6498C45.6 31.3498 45.75 31.1998 45.75 31.0498C45.75 31.0498 45.6 31.0498 45.6 30.8998C45.9 30.8998 45.9 30.7498 45.9 30.4498C46.05 30.2998 46.05 30.2998 46.2 30.4498C46.35 30.5998 46.35 30.5998 46.8 30.1498C46.65 30.1498 46.8 29.8498 47.1 29.5498C46.65 29.3998 46.5 29.5498 46.5 29.5498C46.5 29.3998 46.5 29.3998 46.95 28.7998C46.95 28.9498 46.8 28.9498 46.8 29.0998C46.8 29.0998 46.8 28.9498 46.95 28.9498C46.8 29.0998 46.8 29.0998 46.8 29.0998C46.8 28.9498 47.55 28.3498 47.55 28.3498C47.1 28.4998 47.1 28.4998 46.95 28.4998C46.95 28.4998 47.25 28.3498 47.1 28.1998C47.55 27.8998 47.55 27.8998 47.55 27.8998H47.4C47.4 27.8998 47.4 27.8998 47.55 27.5998V27.7498C47.55 27.7498 47.55 27.7498 47.7 27.7498C47.7 27.7498 47.7 27.7498 47.55 27.8998C47.85 27.7498 48 27.4498 48.15 27.2998C48.15 27.2998 48.3 27.2998 48.6 27.2998C48.75 27.2998 48.75 27.2998 48.75 27.4498ZM47.25 20.5498C47.25 20.3998 47.25 20.3998 47.25 20.5498C47.25 20.3998 47.25 20.3998 47.25 20.5498C47.25 20.5498 47.25 20.3998 47.25 20.5498ZM50.1 22.3498C50.1 22.3498 50.25 22.4998 49.95 22.6498L49.8 22.7998C49.8 22.7998 49.8 22.9498 48.9 22.9498C48 22.9498 48 22.9498 48 22.7998C47.85 22.7998 47.85 22.6498 47.7 22.6498C47.85 22.6498 47.85 22.4998 47.85 22.4998C48 22.4998 48 22.4998 48.15 22.4998C48.15 22.4998 48.15 22.4998 48.3 22.3498C48.15 22.3498 48.15 22.1998 48.15 22.0498C48.15 22.0498 48.15 22.0498 48.45 22.0498H48.6C48.6 22.0498 48.6 22.0498 48.45 22.0498C48.6 22.0498 48.6 22.0498 48.75 21.8998C48.75 21.7498 48.6 21.7498 48.45 21.5998C48.6 21.4498 48.75 21.4498 48.75 21.5998C48.75 21.4498 49.2 21.4498 49.2 21.4498C49.2 21.5998 49.35 21.5998 48.9 22.0498C49.35 21.7498 49.65 21.7498 49.65 21.8998C49.65 21.8998 49.65 22.0498 49.5 22.0498C49.65 21.8998 49.8 21.8998 49.95 21.8998C50.1 21.8998 50.25 22.0498 50.4 22.0498C50.25 22.1998 50.1 22.3498 50.1 22.3498ZM50.1 20.2498C50.25 20.2498 50.25 20.2498 50.1 20.2498V20.2498ZM58.2 16.0498C58.05 16.1998 58.05 16.1998 57.9 16.0498C57.9 16.0498 57.75 16.0498 57.75 16.1998H57.9C57.6 16.3498 57.6 16.3498 57.45 16.3498C57.6 16.3498 57.75 16.1998 57.9 16.1998C57.9 16.1998 57.9 16.1998 57.75 16.1998C57.75 16.1998 57.75 16.1998 57.9 16.1998C58.05 16.1998 58.05 16.1998 58.2 16.3498C58.2 16.3498 58.05 16.3498 58.05 16.4998C57.9 16.4998 57.9 16.4998 57.45 16.4998C57.45 16.4998 57.45 16.4998 57.45 16.6498C57 16.7998 56.55 17.0998 56.1 17.2498C56.1 17.2498 55.95 17.2498 55.95 17.3998H56.1L55.95 17.5498C55.95 17.6998 55.95 17.6998 55.35 17.8498C55.35 17.8498 55.35 17.8498 55.35 17.6998V17.8498C55.35 17.8498 55.35 17.8498 55.5 17.8498C54.75 18.2998 54.75 18.2998 54.6 18.4498H54.45L54.3 18.5998H54.15C53.85 18.7498 53.85 18.7498 53.7 18.7498V18.5998C53.4 18.8998 53.4 18.8998 53.25 18.7498C53.1 18.8998 53.1 18.8998 52.95 19.0498C52.95 19.1998 52.95 19.1998 52.65 19.4998C52.65 19.4998 52.65 19.4998 52.8 19.4998C52.65 19.4998 52.65 19.6498 52.5 19.6498C52.35 19.7998 52.2 19.9498 51.9 19.9498C52.05 19.7998 52.05 19.7998 52.2 19.3498C52.05 19.4998 51.6 19.4998 51.45 19.7998C51.6 19.7998 51.6 19.7998 51.75 19.9498C52.05 20.2498 52.05 20.2498 50.4 20.3998C50.25 20.3998 50.1 20.3998 49.8 20.2498C49.65 20.2498 49.65 20.2498 49.65 20.0998C49.65 19.9498 49.65 19.9498 49.8 19.7998C48.45 20.3998 48.3 20.3998 48.15 20.2498C48 20.3998 47.85 20.3998 47.7 20.3998C47.7 20.3998 47.7 20.3998 47.7 20.2498H47.55C47.55 20.2498 47.55 20.2498 47.55 20.0998C47.4 20.0998 47.4 20.0998 47.25 20.0998C46.95 20.0998 46.95 20.0998 46.95 20.0998C46.5 20.0998 46.5 20.0998 46.5 20.2498C46.5 20.2498 46.5 20.2498 46.65 20.2498C46.65 20.2498 46.05 20.5498 45.75 20.6998C45.6 20.6998 45.6 20.6998 45.45 20.8498L45 20.9998C44.85 20.9998 44.85 20.9998 44.85 20.9998C44.85 20.9998 44.85 20.9998 45 20.9998C44.7 20.9998 44.55 21.2998 44.25 21.4498C44.1 21.5998 43.95 21.5998 43.8 21.5998C42.9 21.8998 42.9 21.8998 42.75 21.8998C42.75 21.8998 42.75 21.7498 42.9 21.7498C43.05 21.7498 43.05 21.7498 43.2 21.5998H43.05C43.05 21.5998 43.05 21.5998 43.2 21.5998C43.2 21.5998 43.2 21.5998 43.2 21.4498C43.2 21.4498 43.2 21.4498 43.35 21.4498C43.2 21.1498 43.2 21.1498 43.2 20.9998C43.35 20.9998 43.35 20.8498 43.35 20.8498C43.35 20.8498 43.5 20.6998 43.8 20.3998C44.25 19.9498 45.15 19.3498 45.9 19.0498C45.9 19.0498 45.9 19.0498 45.75 19.0498H45.9C45.9 19.0498 45.9 19.0498 46.05 19.0498H46.2L46.35 18.8998C46.35 18.8998 46.5 18.8998 46.5 18.7498C46.65 18.7498 46.8 18.5998 46.95 18.5998C46.95 18.5998 46.95 18.5998 47.1 18.5998C47.85 18.2998 48.45 18.1498 48.6 18.2998C48.6 18.2998 48.6 18.2998 49.35 18.1498H49.5C49.5 18.1498 49.65 17.6998 49.95 17.6998L49.8 17.8498C49.8 17.8498 49.8 17.8498 49.8 17.9998H49.95C50.1 17.6998 50.1 17.6998 50.4 17.6998C50.4 17.6998 50.4 17.6998 50.7 17.5498C50.55 17.5498 50.55 17.5498 50.4 17.5498C50.4 17.5498 50.4 17.5498 50.4 17.3998C50.7 16.9498 51.3 17.2498 51.6 16.9498C51.6 16.9498 51.6 16.9498 51.45 16.9498C51.45 16.9498 51.45 16.9498 51.6 16.9498H51.75H51.9C51.9 16.9498 51.9 16.9498 51.75 16.9498C52.05 16.7998 52.05 16.7998 52.05 16.7998C52.2 16.7998 52.35 16.6498 52.5 16.6498C52.8 16.4998 53.1 16.3498 53.4 16.1998C53.25 16.1998 53.25 16.1998 53.1 16.1998C53.1 15.7498 54 15.7498 54.15 15.7498H54.3C54.9 15.5998 55.5 15.7498 56.1 15.5998C55.95 15.4498 55.65 15.5998 55.5 15.4498C55.35 15.4498 55.35 15.4498 55.2 15.4498C55.05 15.4498 55.05 15.4498 54.6 15.4498C54.3 15.4498 54.15 15.4498 53.85 15.4498C53.55 15.5998 53.4 15.4498 53.25 15.2998C53.4 15.2998 53.4 15.2998 53.55 15.2998C53.55 15.2998 53.55 15.2998 53.55 15.1498C53.4 15.1498 53.4 15.1498 53.4 14.9998H53.55C53.55 14.9998 53.55 14.9998 53.55 14.8498C54 14.8498 54 14.8498 54.15 14.8498C54.15 14.8498 54.15 14.8498 54.3 14.8498C54.3 14.8498 54.15 14.8498 54.15 14.9998C54.15 14.9998 54.15 14.9998 54.3 14.9998C54.45 14.9998 54.45 14.9998 54.75 14.9998H54.6C54.6 14.9998 54.6 14.9998 55.05 14.9998H54.9V14.8498C55.05 14.8498 55.05 14.8498 55.35 14.8498C55.35 14.8498 55.65 14.8498 55.8 14.8498C55.95 14.8498 55.95 14.8498 56.1 14.8498H56.25C55.35 15.1498 55.2 15.1498 55.05 15.1498C54.9 15.1498 54.9 15.1498 54.75 15.2998C54.75 15.2998 54.75 15.2998 54.9 15.2998C55.8 15.1498 55.8 15.1498 55.95 15.1498C55.8 15.2998 55.65 15.2998 55.5 15.2998C55.8 15.2998 55.8 15.2998 55.95 15.1498H56.1C57 15.1498 57 15.1498 57.15 15.1498H57C57.45 15.1498 57.45 15.1498 57.45 15.2998C57.45 15.2998 57.45 15.2998 57.3 15.2998C57.3 15.2998 57.3 15.2998 57.45 15.2998H57.6C57.6 15.4498 57.6 15.4498 57.45 15.5998C57.45 15.5998 57.45 15.5998 57.3 15.5998C57.3 15.5998 56.7 15.7498 56.25 15.7498C56.55 15.7498 56.7 15.7498 57 15.7498C57 15.7498 57.15 15.7498 57.3 15.7498C57.3 15.7498 57.3 15.7498 57 15.8998C57.3 15.8998 57.3 15.8998 57.45 15.8998C57.45 15.8998 57.45 15.8998 57.3 15.8998C57.3 15.8998 57.15 15.8998 57.15 16.0498C57.3 16.0498 57.3 16.0498 57.6 15.8998C57.6 15.8998 57.6 15.8998 57.6 16.0498C57.6 16.0498 57.6 16.0498 57.75 16.0498C57.75 16.0498 57.6 16.0498 57.6 16.1998C57.75 16.0498 57.75 16.0498 57.9 16.0498C58.05 16.0498 58.2 16.0498 58.2 16.0498H58.35C58.5 16.0498 58.5 15.8998 58.65 16.0498C58.65 16.0498 58.65 16.0498 58.8 16.0498L58.65 16.1998C58.2 15.8998 58.2 15.8998 58.2 16.0498ZM42.6 21.5998H42.75H42.6C42.75 21.5998 42.75 21.5998 42.6 21.5998ZM43.05 21.1498C43.05 21.1498 43.05 21.2998 43.05 21.1498C43.05 21.2998 42.9 21.1498 43.05 21.1498ZM45.3 16.7998C45.15 16.7998 45.3 16.6498 45.3 16.7998C45.3 16.6498 45.3 16.6498 45.3 16.7998C45.3 16.6498 45.15 16.6498 45.3 16.7998C45.3 16.6498 45.3 16.4998 45.45 16.4998C45.3 16.4998 45.3 16.4998 45.3 16.6498C45.3 16.4998 45.3 16.3498 45.75 16.1998C45.9 16.4998 46.05 16.6498 46.05 16.6498C46.35 16.7998 46.5 16.4998 46.8 16.4998C46.8 16.4998 46.8 16.4998 46.8 16.6498C46.95 16.6498 48 16.3498 48.15 16.1998L48.3 16.0498C48.3 16.0498 48.3 16.0498 48.15 16.0498C48.45 16.0498 48.45 16.0498 48.45 16.0498C49.2 15.7498 49.2 15.7498 49.35 15.7498C49.05 15.8998 48.9 15.7498 48.9 15.7498C48.9 15.7498 48.9 15.7498 49.35 15.2998C49.5 15.2998 49.5 15.1498 49.65 15.1498C49.8 14.9998 50.1 14.9998 50.25 14.9998L50.1 15.1498C50.25 14.9998 50.7 14.6998 51.9 15.1498C51.9 15.1498 51.9 15.1498 51.75 15.1498C51.75 15.1498 51.15 15.1498 50.7 15.1498C50.85 15.1498 51 14.9998 51.3 15.1498C51.3 15.1498 51.3 15.1498 51.3 15.2998C51.45 15.2998 51.45 15.2998 51.6 15.4498C51.3 15.5998 51 15.5998 50.7 15.5998H50.85C50.85 15.5998 50.85 15.5998 50.7 15.5998H50.85C50.7 15.5998 50.55 15.5998 50.55 15.7498C50.55 15.7498 50.55 15.7498 50.4 15.7498C50.7 15.7498 50.85 15.7498 50.85 15.7498C50.85 15.7498 50.7 16.0498 50.25 16.0498C50.25 16.1998 50.1 16.1998 49.95 16.1998C49.8 16.1998 49.8 16.1998 49.65 16.1998C49.65 16.3498 49.65 16.3498 49.35 16.3498C49.35 16.3498 49.35 16.3498 49.2 16.3498H49.35C49.35 16.3498 49.2 16.3498 49.05 16.4998H48.9C48.75 16.6498 48.75 16.6498 48.6 16.4998C48.6 16.4998 48.6 16.4998 48.6 16.3498H48.45C48.3 16.3498 48.3 16.3498 48.3 16.4998H48.15C48 16.4998 48 16.6498 48 16.6498C48 16.6498 48 16.6498 47.85 16.6498C47.85 16.6498 47.7 16.6498 47.7 16.7998C47.7 16.7998 47.7 16.7998 47.85 16.7998H47.7C47.7 16.7998 47.7 16.7998 47.4 16.9498C47.4 16.9498 47.4 16.9498 47.25 16.9498C47.25 16.9498 47.25 16.9498 47.1 16.9498C47.1 16.9498 47.1 16.9498 46.95 16.9498C46.95 16.9498 46.95 16.9498 47.1 16.9498C46.95 17.0998 46.8 17.0998 46.8 17.0998C46.8 17.0998 46.8 17.0998 46.65 17.0998C46.65 17.0998 46.65 17.0998 46.65 16.9498C46.5 17.0998 45.6 17.0998 45.6 17.0998C46.05 16.6498 46.2 16.6498 46.35 16.6498C46.35 16.6498 46.5 16.6498 46.5 16.4998C46.65 16.4998 46.65 16.4998 46.65 16.3498H46.5C46.5 16.3498 46.5 16.3498 46.5 16.1998C46.2 16.3498 46.2 16.3498 46.05 16.3498L45.6 16.4998C45.6 16.4998 45.6 16.4998 45.45 16.4998C45.3 16.6498 45.15 16.7998 45 16.6498C44.85 16.6498 44.7 16.7998 44.55 16.9498C44.55 16.9498 44.4 16.9498 44.4 17.0998C44.4 17.0998 44.55 17.0998 44.55 16.9498C44.25 16.9498 44.1 17.0998 43.8 17.0998C44.4 16.6498 44.4 16.6498 44.55 16.4998H44.4C44.55 16.4998 44.55 16.3498 44.7 16.3498C44.7 16.3498 43.5 16.9498 43.35 17.0998C43.35 16.9498 43.95 16.1998 44.1 16.1998H44.25C45.15 16.7998 45.15 16.7998 45.3 16.7998ZM45.6 15.1498C45.75 15.1498 46.65 15.1498 46.8 15.2998H46.5C46.5 15.2998 46.5 15.2998 46.35 15.2998C46.05 15.4498 45.9 15.5998 45.6 15.5998C45.45 15.5998 45.45 15.5998 45.3 15.5998C45.3 15.5998 45.3 15.7498 45.15 15.7498V15.5998C45.3 15.4498 45.45 15.4498 45.45 15.4498C45 15.2998 45 15.2998 45 15.2998C45 15.1498 45.3 15.1498 45.45 15.1498C45.45 15.2998 45.6 15.1498 45.6 15.1498ZM49.35 14.3998C49.35 14.3998 49.5 14.3998 49.35 14.3998C49.5 14.3998 49.5 14.3998 49.35 14.3998C49.5 14.3998 49.5 14.3998 49.35 14.3998ZM47.7 16.9498C47.7 16.9498 47.55 16.9498 47.7 16.9498V16.9498ZM46.35 17.2498C46.35 17.2498 46.35 17.0998 46.35 17.2498C46.5 17.2498 46.35 17.2498 46.35 17.2498ZM52.2 14.5498C52.2 14.5498 52.2 14.5498 52.35 14.5498C52.35 14.5498 52.35 14.5498 52.2 14.5498C52.35 14.3998 52.65 14.3998 52.8 14.3998C53.1 14.3998 53.1 14.3998 53.25 14.3998C53.25 14.3998 53.25 14.2498 53.55 14.2498H53.7C53.7 14.2498 53.7 14.3998 53.55 14.3998C53.7 14.3998 53.55 14.5498 53.4 14.5498C53.55 14.5498 53.7 14.5498 53.7 14.5498H53.55H53.4C53.25 14.5498 53.25 14.5498 53.25 14.5498H53.1H52.95C52.8 14.6998 52.65 14.6998 52.65 14.6998C52.65 14.6998 52.65 14.6998 52.8 14.6998V14.8498C52.65 14.9998 52.65 14.9998 52.65 14.9998H52.5C52.5 14.9998 52.35 14.9998 52.2 14.9998C52.2 14.9998 52.2 14.8498 52.35 14.8498C52.35 14.8498 52.35 14.6998 52.35 14.5498C52.35 14.3998 52.35 14.3998 52.5 14.3998C52.35 14.5498 52.2 14.5498 52.2 14.5498ZM51.9 14.0998H51.75C51.75 14.0998 51.75 14.0998 51.45 14.0998C51.6 14.0998 51.6 14.0998 51.75 14.0998H51.15C50.85 14.0998 50.85 14.0998 50.85 14.0998C50.85 13.9498 51.75 13.6498 51.9 13.7998C51.9 13.7998 51.9 13.7998 51.75 13.9498C51.6 13.9498 51.6 13.9498 51.6 13.9498C51.6 13.9498 51.75 13.9498 51.9 13.9498H52.05H52.2C52.2 13.9498 52.05 13.9498 52.05 14.0998H52.2C52.2 14.0998 52.2 14.0998 52.2 14.2498H52.05C52.05 14.0998 52.05 14.0998 51.9 14.0998C51.9 14.0998 52.05 14.0998 51.9 14.0998ZM50.1 13.4998C50.1 13.4998 49.95 13.4998 49.8 13.4998C49.95 13.4998 49.95 13.3498 49.95 13.1998C50.1 13.1998 50.1 13.1998 50.25 13.0498C50.25 13.0498 50.1 12.8998 50.1 12.7498C50.25 12.5998 50.4 12.5998 50.55 12.4498C50.7 12.2998 50.85 12.4498 51 12.2998C51.3 12.1498 51.75 12.1498 51.75 12.1498C51.75 12.1498 51.75 12.2998 51.45 12.4498C51.3 12.5998 51.3 12.5998 51.3 12.5998C51.6 12.4498 51.9 12.2998 52.2 12.1498C52.2 12.1498 52.2 12.2998 52.05 12.2998C52.2 12.2998 52.2 12.1498 52.35 12.1498C52.35 12.1498 52.5 11.9998 52.8 12.2998C52.65 11.9998 52.5 11.9998 52.65 11.8498C52.65 11.8498 52.65 11.8498 52.8 11.8498C52.8 11.8498 53.25 11.8498 53.4 11.8498C53.4 11.8498 53.4 11.9998 53.7 11.9998C53.85 11.9998 53.85 11.9998 53.85 12.1498L53.55 12.4498C53.55 12.4498 53.25 12.5998 53.1 12.4498C53.1 12.5998 52.8 12.5998 52.65 12.4498C52.5 12.5998 52.5 12.5998 52.35 12.5998C52.35 12.5998 52.35 12.5998 52.35 12.7498C52.5 12.7498 52.5 12.7498 52.5 12.7498C52.5 12.7498 52.5 12.8998 51.75 12.7498C51.6 12.7498 51.6 12.7498 51.6 12.7498C51.6 12.7498 51.6 12.7498 51.9 12.7498C52.35 12.7498 52.35 12.7498 52.35 12.8998C52.35 12.8998 52.2 13.0498 51.75 13.0498C51.6 13.0498 51.3 13.0498 51.15 13.0498C50.85 13.4998 50.55 13.6498 50.1 13.4998C50.1 13.6498 50.25 13.6498 50.1 13.4998C50.1 13.6498 50.1 13.6498 50.1 13.4998C50.1 13.4998 50.1 13.6498 50.1 13.4998ZM50.25 12.8998C50.25 12.7498 50.25 12.7498 50.25 12.8998V12.8998ZM54.45 12.8998C54.3 12.8998 54.3 12.8998 54.45 12.8998C54.3 12.8998 54.3 12.8998 54.45 12.8998C54.45 12.7498 54.6 12.7498 54.75 12.8998C54.75 12.8998 55.05 13.1998 55.05 13.3498C55.05 13.3498 55.05 13.3498 54.75 13.3498H54.6C54.6 13.3498 54.6 13.3498 54.45 13.3498C54.3 13.3498 54.3 13.3498 54.3 13.1998C54.3 13.1998 54.45 13.1998 54.6 13.1998C54.45 13.0498 54.3 13.0498 54.45 12.8998C54.3 13.0498 54.3 13.0498 54.45 12.8998C54.45 13.0498 54.45 13.0498 54.45 12.8998ZM54.3 13.0498C54.3 13.0498 54.3 13.1998 54.3 13.0498C54.3 13.1998 54.3 13.1998 54.3 13.0498C54 13.0498 54 13.0498 54 13.0498C54.15 13.0498 54.45 13.0498 54.3 13.0498ZM54.15 13.1998C54.3 13.1998 54.3 13.1998 54.3 13.1998H54.15C54.45 13.1998 54.45 13.3498 54.45 13.3498C54.45 13.3498 54.3 13.3498 54.15 13.3498C54.15 13.3498 54.15 13.3498 53.85 13.3498C53.55 13.3498 53.7 13.4998 53.7 13.4998C53.85 13.4998 53.85 13.4998 54 13.4998C54.45 13.4998 54.3 13.4998 54.3 13.6498H54C54 13.6498 54 13.6498 53.85 13.6498C53.4 13.4998 53.25 13.4998 53.1 13.3498C53.1 13.3498 52.95 13.1998 53.1 13.1998C53.25 13.1998 53.4 13.1998 53.4 13.1998C53.4 13.3498 53.4 13.3498 53.4 13.4998C53.55 13.3498 53.55 13.3498 53.55 13.3498C53.55 13.3498 53.4 13.3498 53.55 13.1998H53.7C54 13.0498 54 13.0498 54.15 13.1998C54.15 13.1998 54.15 13.0498 54.15 13.1998ZM53.7 14.0998C53.55 14.0998 53.55 14.0998 53.4 14.0998C53.25 14.0998 53.25 14.0998 53.1 14.0998C53.1 14.0998 53.1 14.0998 52.95 14.0998V13.9498C52.95 13.9498 53.1 13.7998 53.25 13.7998C53.25 13.7998 53.25 13.7998 53.4 13.7998H53.55H53.7H53.85C53.7 13.7998 53.7 13.7998 53.55 13.7998C53.55 13.7998 53.55 13.7998 53.4 13.7998C53.4 13.7998 53.4 13.7998 53.55 13.7998H53.7C53.85 13.7998 53.85 13.7998 54 13.7998C53.85 13.9498 53.85 13.9498 53.7 14.0998C53.85 13.9498 53.85 13.9498 53.7 14.0998C53.85 13.9498 53.7 13.9498 53.7 14.0998C53.85 13.9498 53.85 14.0998 53.7 14.0998C53.85 14.0998 53.85 14.0998 53.7 14.0998C53.85 14.0998 53.85 14.0998 53.7 14.0998C53.85 14.0998 53.85 14.0998 53.7 14.0998C53.85 14.0998 53.85 14.0998 53.7 14.0998C53.85 14.0998 53.85 14.0998 53.7 14.0998ZM52.95 14.0998C53.1 14.0998 53.1 14.0998 53.1 14.0998C53.1 14.0998 52.95 14.2498 52.8 14.2498C52.5 14.2498 52.5 14.2498 52.5 14.2498C52.5 14.2498 52.5 14.2498 52.65 14.0998C52.8 14.0998 52.8 14.0998 52.8 13.9498C52.8 14.0998 52.8 14.2498 52.95 14.0998C52.95 14.2498 52.95 14.2498 52.95 14.0998C52.95 14.2498 52.95 14.2498 52.95 14.0998ZM59.4 18.2998C59.4 18.2998 59.25 18.4498 59.1 18.4498H58.95C58.95 18.2998 59.1 18.2998 59.1 18.1498V17.9998C58.95 17.9998 58.95 17.9998 58.8 18.1498C58.5 18.5998 58.2 18.5998 58.2 18.5998C58.05 18.5998 58.2 18.2998 58.2 18.2998C58.2 18.2998 58.2 18.2998 58.2 18.1498C58.2 18.1498 58.2 18.1498 58.65 17.9998C58.65 17.9998 58.65 17.9998 58.5 17.9998C58.5 17.9998 58.5 17.9998 58.5 18.1498C58.35 18.1498 58.35 18.1498 58.35 18.1498C58.35 18.1498 58.35 17.9998 58.5 17.9998C58.5 17.9998 58.5 17.9998 58.5 17.8498C58.5 17.8498 58.5 17.8498 58.65 17.6998C58.65 17.6998 58.95 17.6998 58.8 17.6998C58.8 17.6998 58.8 17.6998 58.65 17.6998C58.65 17.6998 58.65 17.6998 58.65 17.8498C58.65 17.6998 58.65 17.6998 58.8 17.6998C58.8 17.6998 58.8 17.6998 58.8 17.9998C58.8 17.6998 59.1 17.5498 59.1 17.5498V17.8498L59.25 17.9998V18.1498C59.25 18.1498 59.4 18.2998 59.25 18.2998C59.4 17.9998 59.4 18.1498 59.4 18.2998ZM59.85 17.3998C59.7 17.5498 59.4 17.5498 59.25 17.5498V17.3998C59.25 17.3998 59.25 17.3998 59.4 17.3998C59.25 17.3998 59.25 17.3998 59.1 17.2498C59.1 17.2498 59.1 17.2498 59.1 17.0998C59.1 17.0998 59.1 17.0998 59.25 17.0998C59.7 17.0998 60 17.2498 59.85 17.3998ZM59.55 9.5998C59.7 9.5998 59.85 9.5998 60 9.5998C60.15 9.5998 60.45 9.5998 60.6 9.5998H60.45H60.6C59.25 9.7498 59.25 9.7498 58.95 9.8998C59.1 9.8998 59.25 9.8998 59.4 10.0498C58.35 10.1998 57.6 11.0998 56.55 10.7998C56.55 10.7998 54.45 11.0998 54 11.2498C54 11.2498 54 11.2498 54.15 11.3998C53.85 11.5498 53.55 11.8498 53.25 11.8498V11.9998C53.1 11.9998 52.95 11.9998 52.8 11.9998C52.8 11.9998 52.8 12.1498 52.65 12.1498C52.65 12.1498 52.65 12.1498 51 12.7498C51 12.7498 51 12.5998 50.85 12.5998C50.25 12.8998 50.25 12.8998 50.25 13.0498C50.1 13.0498 49.95 13.0498 49.8 13.1998V13.3498H49.95C49.95 13.3498 49.8 13.3498 49.8 13.4998L49.65 13.6498H49.8C49.65 13.6498 49.5 13.6498 49.05 14.2498H49.2C49.05 14.2498 49.05 14.3998 48.9 14.3998C48.6 14.3998 48.45 14.3998 48.15 14.5498C48.45 14.5498 48.75 14.5498 49.05 14.5498C48.9 14.5498 48.9 14.5498 49.05 14.3998C49.2 14.3998 49.2 14.2498 49.35 14.2498C49.5 14.2498 49.5 14.0998 49.5 14.0998C49.5 14.0998 49.5 14.0998 49.65 14.0998C49.8 14.0998 49.95 14.0998 49.95 14.0998L49.8 14.2498H49.95L49.65 14.3998C49.65 14.3998 49.65 14.3998 49.8 14.3998C49.65 14.3998 49.65 14.3998 49.5 14.3998H49.35C50.4 14.3998 51.3 14.2498 52.35 14.6998H49.65C49.65 14.6998 49.65 14.8498 49.5 14.8498C49.2 14.8498 49.05 14.8498 48.75 14.9998C48.9 14.9998 49.05 14.9998 49.05 15.1498H48.9C48.6 15.1498 48.15 15.2998 47.7 15.2998C47.85 15.2998 48.45 15.5998 48.9 15.4498L49.05 15.5998C49.05 15.5998 49.05 15.7498 48.9 15.7498C48.3 15.8998 48.3 15.8998 48.3 15.7498C48.3 15.7498 46.95 15.7498 46.65 15.7498C47.1 15.5998 47.1 15.5998 47.25 15.4498C47.25 15.4498 46.8 15.4498 46.2 15.4498C46.05 15.2998 46.05 15.2998 46.2 14.9998C46.05 14.9998 45.9 14.9998 45.9 14.9998V14.8498C43.2 14.5498 41.7 17.0998 39.45 17.8498C39.45 17.8498 39.6 17.6998 39.75 17.6998C39.6 17.6998 39.45 17.8498 39.45 17.8498C39.15 17.9998 38.85 18.2998 38.7 18.4498H38.85C38.85 18.4498 38.7 18.4498 38.7 18.5998C40.95 17.5498 44.25 16.9498 44.4 16.9498C43.65 17.8498 43.65 17.9998 41.25 19.1998C41.4 19.1998 41.4 19.1998 41.55 19.3498C41.55 19.3498 41.4 19.3498 41.4 19.4998C41.7 19.3498 42 19.3498 42.3 19.1998C42.3 19.1998 42.45 19.1998 42.45 19.3498C41.1 20.0998 41.1 20.0998 40.95 20.3998C40.65 20.3998 40.35 20.6998 40.05 20.6998L39.9 20.8498C39.9 20.8498 39.75 20.8498 39.75 20.9998V21.1498C39.75 21.1498 39.75 21.1498 39.6 21.1498C39 20.6998 39 20.8498 38.85 20.9998V21.1498L38.7 21.2998V21.4498C38.55 21.4498 38.55 21.5998 38.4 21.5998H38.25C38.1 21.7498 38.1 21.7498 37.8 22.0498C37.8 22.0498 37.8 22.1998 37.95 22.1998C37.95 22.1998 37.95 22.3498 37.8 22.3498C37.2 22.1998 36.6 22.7998 36 22.6498C35.85 22.3498 36 21.5998 36.15 21.2998C36 21.1498 35.85 21.1498 34.95 21.2998C35.55 21.7498 35.55 21.8998 35.1 22.1998C34.95 22.1998 34.95 22.0498 34.95 21.8998C34.5 22.4998 33.6 22.7998 33.45 23.8498C33.6 23.8498 33.6 23.8498 33.75 23.8498C33.6 23.9998 33.45 24.1498 33.15 24.2998C33.15 24.2998 33 24.2998 33 24.1498L32.85 24.2998C32.7 24.1498 32.7 24.1498 32.55 23.6998C32.85 23.3998 32.85 23.3998 33 23.3998C33 23.3998 33.15 23.3998 33.15 23.5498V23.6998C33.15 23.5498 33.3 23.3998 33.45 23.2498C33.3 23.2498 33.3 23.2498 33.15 23.0998C33.15 22.7998 33.15 22.7998 33.3 22.6498C33.15 22.6498 32.85 22.6498 32.55 23.2498C32.7 23.0998 32.85 22.9498 32.85 22.6498L32.7 22.7998C32.7 22.7998 32.7 22.7998 32.55 22.9498L32.7 22.7998C32.7 22.7998 32.7 22.9498 32.55 22.9498L32.7 22.7998C32.7 22.7998 32.7 22.6498 32.85 22.6498C33.45 22.0498 34.05 21.2998 34.8 20.6998C34.95 20.5498 35.1 20.3998 35.1 20.3998L35.25 20.2498C35.1 20.3998 34.95 20.5498 34.95 20.6998C35.25 20.3998 35.4 20.2498 35.7 19.9498C35.85 19.7998 36 19.7998 36.15 19.6498C36.3 19.4998 36.45 19.3498 36.6 19.1998C36.45 19.3498 36.3 19.3498 36.3 19.4998L37.5 18.4498L37.65 18.2998L37.5 18.4498L37.35 18.5998C37.65 18.2998 37.95 18.1498 38.1 17.8498C37.95 17.8498 37.95 17.9998 37.8 18.1498C37.95 17.9998 38.25 17.8498 38.4 17.6998L39 17.2498L39.45 16.9498H39.6C39.6 16.9498 39.45 16.9498 39.45 17.0998C39.45 17.0998 39.45 17.0998 39.3 17.2498C39.15 17.3998 39 17.3998 39 17.5498C39.45 17.0998 40.05 16.7998 40.95 16.1998C42.6 15.1498 42.9 14.9998 45.3 13.6498C46.65 13.0498 46.8 12.8998 49.2 11.9998C50.4 11.5498 50.4 11.5498 52.65 10.9498C52.95 10.4998 53.55 10.3498 54 10.1998C55.05 10.0498 55.05 10.0498 57 9.7498C57.15 9.7498 57.3 9.7498 57.45 9.7498C57.6 9.7498 57.9 9.7498 58.2 9.5998C58.05 9.5998 57.9 9.5998 57.6 9.5998C57.9 9.5998 58.35 9.4498 58.65 9.4498H58.8C59.55 9.4498 60.6 9.2998 61.5 9.2998H62.4C62.4 9.2998 60.45 9.4498 59.55 9.5998ZM65.1 17.2498C65.1 17.2498 64.65 17.2498 64.35 16.9498C64.35 16.9498 64.35 16.9498 64.2 16.9498H64.05C63.9 16.9498 63.9 16.9498 63.9 16.7998C63.9 16.7998 63.9 16.7998 64.05 16.7998C63.9 16.7998 63.9 16.7998 63.9 16.7998C63.9 16.7998 63.9 16.6498 63.75 16.6498C63.75 16.4998 63.75 16.4998 63.9 16.4998C63.9 16.4998 64.05 16.4998 64.2 16.4998C64.2 16.4998 64.2 16.4998 64.35 16.6498C64.35 16.6498 64.35 16.6498 64.5 16.7998C64.5 16.7998 64.5 16.7998 64.8 16.7998C64.95 16.7998 64.95 16.7998 64.95 16.7998C65.1 16.7998 65.1 16.9498 65.1 16.9498C65.1 17.0998 65.1 17.0998 65.1 17.2498C65.25 17.2498 65.25 17.2498 65.1 17.2498ZM70.05 16.0498C69.9 16.0498 69.9 16.0498 70.05 16.0498C70.05 16.1998 70.05 16.1998 69.9 16.1998H70.05C70.05 16.1998 69.6 16.3498 69.6 16.1998C69.6 16.1998 69.45 16.1998 69.3 16.1998C69.3 16.1998 69.15 16.1998 69.3 16.1998C69.3 16.1998 69.45 16.0498 69.6 16.0498C69.45 16.0498 69.45 16.0498 69.3 16.0498C69.45 16.0498 69.45 16.0498 69.6 15.8998C69.6 15.8998 69.75 15.7498 69.9 15.7498C69.9 15.8998 69.9 15.8998 70.05 16.0498ZM70.35 15.7498C70.35 15.7498 70.2 15.7498 70.05 15.7498C69.6 15.7498 69.6 15.7498 69.6 15.7498C69.6 15.5998 70.05 15.4498 70.2 15.5998C70.35 15.5998 70.35 15.7498 70.35 15.7498ZM71.25 16.1998C71.25 16.3498 71.1 16.3498 70.95 16.3498C70.95 16.3498 71.1 16.3498 70.95 16.3498C70.95 16.3498 70.95 16.3498 70.8 16.3498C70.8 16.3498 70.8 16.3498 70.65 16.1998C70.65 16.1998 70.5 16.0498 70.65 16.0498C70.8 16.0498 70.95 16.0498 71.25 16.1998ZM84.45 16.4998C84.45 16.4998 84.3 16.4998 84.3 16.3498H84.15C84.45 16.3498 84.45 16.4998 84.45 16.4998ZM88.2 19.1998C88.05 19.0498 87.9 19.0498 87.9 18.8998C87.9 18.8998 87.9 18.8998 87.75 18.7498C87.75 18.7498 87.75 18.7498 87.9 18.7498L88.05 18.8998C88.2 19.0498 88.5 19.3498 88.65 19.3498C88.35 19.3498 88.35 19.3498 88.2 19.1998Z" fill="#585858"/>
<path d="M39.9 71.1C45.9 68.85 51.6 66 57.15 62.7C61.95 59.85 66.6 56.55 70.95 52.95L71.85 54.9L73.65 53.1L72.9 47.25L82.65 39.15L90.45 56.25L94.2 52.5L90.6 32.25L96.9 26.55C98.55 24.9 98.55 22.2 96.9 20.55C95.25 18.9 92.55 18.9 90.9 20.55L85.05 26.85L64.8 22.95L61.05 26.7L78 34.5L69.75 44.1L63.9 43.2L62.1 45L63.9 45.9C56.4 54 47.55 61.05 37.8 66.45C32.55 69.3 26.85 71.7 21 72.75C20.25 72.9 19.5 72.9 18.75 73.05C18 73.05 17.25 73.2 16.5 73.05C15 73.05 13.65 72.75 12.3 72.3C10.95 71.7 9.75 70.8 9 69.6C8.25 68.4 7.8 66.75 7.8 65.25C7.65 66.75 7.8 68.4 8.55 69.9C9.15 71.4 10.35 72.6 11.85 73.5C13.35 74.25 14.85 74.85 16.5 75.15C17.25 75.3 18.15 75.3 18.9 75.45C19.65 75.45 20.55 75.45 21.3 75.45C27.6 75 33.9 73.35 39.9 71.1Z" fill="#D0122C"/>
<path fill-rule="evenodd" clip-rule="evenodd" d="M103.5 107.4L98.7 114.75L87.6 95.55L101.25 87.75L112.35 106.8L103.5 107.4Z" fill="#D0122C"/>
<path fill-rule="evenodd" clip-rule="evenodd" d="M76.95 107.4L81.75 114.75L92.85 95.55L79.2 87.75L68.1 106.8L76.95 107.4Z" fill="#D0122C"/>
<path d="M106.95 76.6506C106.35 75.9006 105.75 75.3006 105.6 74.7006C105.3 74.1006 105.3 73.2006 105.15 72.1506C105 70.6506 104.85 68.8506 103.65 67.6506C102.45 66.4506 100.65 66.3006 99.15 66.1506C98.25 66.0006 97.35 66.0006 96.6 65.7006C96 65.4006 95.4 64.9506 94.65 64.3506C93.45 63.3006 92.1 62.1006 90.3 62.1006C88.5 62.1006 87.15 63.3006 85.95 64.3506C85.2 64.9506 84.6 65.5506 84 65.7006C83.4 66.0006 82.5 66.0006 81.45 66.1506C79.95 66.3006 78.15 66.4506 76.95 67.6506C75.75 68.8506 75.6 70.6506 75.45 72.1506C75.3 73.0506 75.3 73.9506 75 74.7006C74.7 75.3006 74.25 75.9006 73.65 76.6506C72.6 77.8506 71.4 79.2006 71.4 81.0006C71.4 82.8006 72.6 84.1506 73.65 85.3506C74.25 86.1006 74.85 86.7006 75 87.3006C75.3 87.9006 75.3 88.8006 75.45 89.8506C75.6 91.3506 75.75 93.1506 76.95 94.3506C78.15 95.5506 79.95 95.7006 81.45 95.8506C82.35 96.0006 83.25 96.0006 84 96.3006C84.6 96.6006 85.2 97.0506 85.95 97.6506C87.15 98.7006 88.5 99.9006 90.3 99.9006C92.1 99.9006 93.45 98.7006 94.65 97.6506C95.4 97.0506 96 96.4506 96.6 96.3006C97.2 96.0006 98.1 96.0006 99.15 95.8506C100.65 95.7006 102.45 95.5506 103.65 94.3506C104.85 93.1506 105 91.3506 105.15 89.8506C105.3 88.9506 105.3 88.0506 105.6 87.3006C105.9 86.7006 106.35 86.1006 106.95 85.3506C108 84.1506 109.2 82.8006 109.2 81.0006C109.2 79.2006 108 77.8506 106.95 76.6506Z" fill="#ECEDED" stroke="#D0132D" stroke-width="1.3" stroke-miterlimit="10" stroke-linecap="round" stroke-linejoin="round"/>
<path d="M90.15 93.6004C97.1088 93.6004 102.75 87.9592 102.75 81.0004C102.75 74.0416 97.1088 68.4004 90.15 68.4004C83.1912 68.4004 77.55 74.0416 77.55 81.0004C77.55 87.9592 83.1912 93.6004 90.15 93.6004Z" fill="white" stroke="#D0132D" stroke-width="1.3" stroke-miterlimit="10" stroke-linecap="round" stroke-linejoin="round"/>
<path d="M90.15 73.5L92.85 77.7L97.65 78.9L94.5 82.65L94.8 87.45L90.15 85.65L85.65 87.45L85.95 82.65L82.8 78.9L87.6 77.7L90.15 73.5Z" fill="#ECEDED" stroke="#D0132D" stroke-width="1.3" stroke-miterlimit="10" stroke-linecap="round" stroke-linejoin="round"/>
</g>
<defs>
<clipPath id="clip0_24313:172377">
<rect width="120" height="120" fill="white"/>
</clipPath>
</defs>
</svg>
