<svg width="112" height="112" viewBox="0 0 112 112" fill="none" xmlns="http://www.w3.org/2000/svg">
<path d="M81.34 42.2799C82.32 43.2599 82.88 44.3799 82.88 45.4999V52.6399C82.18 51.7999 81.34 51.2399 80.36 50.6799C78.26 49.4199 75.32 48.2999 72.94 47.7399V50.6799C75.18 51.3799 77.42 52.2199 78.82 53.0599C80.08 53.8999 81.2 55.0199 81.9 56.2799C79.66 59.0799 73.5 62.0199 63.7 63.5599V78.9599C70.28 77.9799 85.68 74.7599 85.68 66.6399V45.6399C85.68 43.6799 84.84 41.9999 83.3 40.4599C80.92 38.2199 77.14 36.5399 72.94 35.4199V38.3599C76.58 39.1999 79.66 40.5999 81.34 42.2799Z" fill="#585858"/>
<path d="M60.06 72.5206C60.06 72.1006 59.92 71.6806 59.5 71.2606L43.54 58.9406C43.12 58.6606 42.56 58.5206 42 58.8006C41.44 59.0806 41.16 59.5006 41.16 60.0606V63.5606C31.22 62.3006 24.64 59.5006 21.98 56.7006C22.54 55.4406 23.38 54.3206 24.64 53.4806C26.04 52.5006 28.28 51.5206 30.52 50.8206V47.7406C28.28 48.4406 25.06 49.5606 22.96 51.1006C21.98 51.8006 21.28 52.5006 20.58 53.4806V45.5006C20.58 42.8406 24.22 40.0406 30.52 38.0806V35.1406C22.68 37.5206 17.78 41.3006 17.78 45.5006V66.2206C17.78 75.1806 36.12 78.1206 41.3 78.8206V82.7406C41.3 83.3006 41.58 83.7206 42 84.0006C42.28 84.1406 42.42 84.1406 42.7 84.1406C42.98 84.1406 43.26 84.0006 43.54 83.8606L59.5 73.3606C59.78 73.3606 60.06 72.9406 60.06 72.5206Z" fill="#585858"/>
<path d="M68.04 38.3601C68.18 38.9201 68.18 39.4801 68.32 39.9001C64.54 40.3201 59.64 39.7601 58.94 38.5001C58.8 38.3601 58.8 38.2201 58.94 38.0801C59.36 36.8201 62.86 34.7201 65.66 33.1801C67.34 34.3001 67.76 36.4001 68.04 38.3601ZM52.08 36.8201C52.92 36.6801 53.76 37.6601 53.9 38.7801C54.04 40.0401 53.48 41.0201 52.64 41.1601C51.8 41.3001 50.96 40.3201 50.82 39.2001C50.54 38.0801 51.24 36.9601 52.08 36.8201ZM31.78 48.4401C31.78 48.4401 33.46 49.0001 34.86 49.1401C35 49.1401 35 49.1401 35.14 49.1401C36.4 49.1401 38.64 48.1601 40.46 47.1801C41.86 47.4601 43.4 47.7401 45.08 47.8801C45.08 48.0201 44.94 48.0201 44.94 48.1601C43.96 49.1401 40.88 52.3601 40.74 52.3601C40.46 52.6401 40.32 53.0601 40.46 53.4801C40.6 53.9001 40.88 54.1801 41.3 54.1801C41.44 54.1801 44.24 54.6001 46.76 54.6001C47.32 54.6001 47.88 54.6001 48.3 54.6001C49.14 54.4601 50.82 54.0401 55.58 50.5401C56.14 50.1201 56.7 49.7001 57.26 49.2801C58.66 49.4201 60.2 49.4201 61.74 49.4201C64.82 49.4201 67.76 49.2801 69.58 48.5801C72.38 47.6001 73.78 46.3401 74.06 44.6601C74.34 42.4201 71.82 40.7401 70.84 40.0401C70.56 39.7601 70.42 38.6401 70.28 37.9401C69.72 34.8601 68.74 29.6801 61.74 29.9601C54.18 30.2401 44.24 35.4201 41.16 37.1001C39.76 35.0001 37.52 32.6201 35 33.7401C33.88 34.3001 33.04 35.4201 32.76 37.1001C32.2 39.4801 32.76 42.2801 34.16 44.2401L31.5 46.7601C31.22 47.0401 31.08 47.4601 31.22 47.7401C31.08 48.0201 31.36 48.3001 31.78 48.4401Z" fill="#CF122C"/>
<path d="M3.08002 24.64V87.5C3.08002 91.42 6.30002 94.64 10.22 94.64H101.36C105.28 94.64 108.5 91.42 108.5 87.5V24.64C108.5 20.72 105.28 17.5 101.36 17.5H10.22C6.30002 17.5 3.08002 20.72 3.08002 24.64ZM105.84 56C105.84 58.38 103.88 60.2 101.64 60.2C99.26 60.2 97.44 58.24 97.44 56C97.44 53.62 99.4 51.8 101.64 51.8C104.02 51.8 105.84 53.76 105.84 56ZM93.66 24.64V87.36H11.76V24.64H93.66Z" fill="#CF122C"/>
</svg>
