<svg width="94" height="94" viewBox="0 0 94 94" fill="none" xmlns="http://www.w3.org/2000/svg">
<path d="M91.0625 4.69961C88.7125 3.40711 85.775 3.40711 82.6025 4.93461L76.2575 7.87211L65.2125 2.34961H65.095L58.3975 2.58461C58.28 2.58461 58.1625 2.70211 58.045 2.81961C58.045 2.93711 58.045 3.05461 58.1625 3.17211L67.0925 12.2196L61.805 14.6871L55.8125 12.4546C55.695 12.4546 55.5775 12.4546 55.5775 12.4546L51.465 14.3346C51.3475 14.3346 51.3475 14.4521 51.23 14.5696C51.23 14.6871 51.23 14.8046 51.3475 14.8046L54.8725 19.1521C54.285 19.9746 54.4025 20.6796 54.52 21.1496C54.99 22.2071 56.4 22.6771 58.515 22.6771C58.985 22.6771 59.455 22.6771 59.925 22.5596C62.1575 22.3246 64.625 21.8546 66.27 21.0321L89.3 10.4571C91.415 9.51711 92.4725 8.34211 92.59 7.16711C92.59 6.46211 92.355 5.52211 91.0625 4.69961Z" fill="#585858"/>
<path d="M28.0825 72.1447C30.224 72.1447 31.96 70.4086 31.96 68.2671C31.96 66.1257 30.224 64.3896 28.0825 64.3896C25.941 64.3896 24.205 66.1257 24.205 68.2671C24.205 70.4086 25.941 72.1447 28.0825 72.1447Z" fill="#585858"/>
<path d="M65.2125 61.6874C65.565 59.1024 65.8 56.1649 65.8 54.1674C65.8 39.9499 48.9975 34.5449 38.54 34.5449C31.725 34.5449 26.79 38.1874 25.145 39.5974C19.8575 39.9499 11.28 43.2399 11.28 54.2849C11.28 56.2824 11.515 59.2199 11.8675 61.8049C9.2825 62.8624 7.4025 65.4474 7.4025 68.3849C7.4025 72.1449 10.34 75.1999 13.9825 75.4349C17.5075 85.6574 27.1425 93.0599 38.54 93.0599C49.9375 93.0599 59.5725 85.6574 63.0975 75.4349C66.74 75.1999 69.6775 72.1449 69.6775 68.3849C69.6775 65.3299 67.7975 62.8624 65.2125 61.6874ZM59.69 73.0849C56.9875 82.3674 48.5275 89.0649 38.4225 89.0649C27.495 89.0649 18.33 80.9574 16.685 70.4999L19.27 61.4524C21.62 60.7474 26.79 58.6324 29.0225 54.2849C32.5475 57.5749 40.3025 61.6874 57.81 61.8049L60.2775 70.4999C60.16 71.3224 59.925 72.2624 59.69 73.0849Z" fill="#585858"/>
<path d="M48.88 72.1447C51.0215 72.1447 52.7575 70.4086 52.7575 68.2671C52.7575 66.1257 51.0215 64.3896 48.88 64.3896C46.7385 64.3896 45.0025 66.1257 45.0025 68.2671C45.0025 70.4086 46.7385 72.1447 48.88 72.1447Z" fill="#585858"/>
<path d="M43.5925 77.9028C40.7725 80.6053 36.19 80.6053 33.37 77.9028C32.5475 77.1978 31.3725 77.1978 30.6675 77.9028C29.9625 78.7253 29.9625 79.9003 30.6675 80.6053C32.7825 82.7203 35.72 83.7778 38.54 83.7778C41.36 83.7778 44.18 82.7203 46.4125 80.6053C47.235 79.9003 47.235 78.6078 46.4125 77.9028C45.59 77.1978 44.415 77.1978 43.5925 77.9028Z" fill="#585858"/>
<path d="M74.6125 29.7278C74.3775 29.1403 73.9075 28.6703 73.32 28.5528L48.5275 24.5578C41.83 23.5003 34.8975 23.5003 28.2 24.5578L3.4075 28.5528C2.82 28.6703 2.2325 29.1403 2.115 29.7278C1.88 30.3153 2.115 31.0203 2.585 31.4903L13.16 41.9478V50.5253C13.16 50.6428 13.16 50.7603 13.16 50.7603C13.16 50.7603 13.16 50.7603 13.16 50.8778C13.16 50.9953 13.16 50.9953 13.2775 51.1128C13.2775 51.1128 13.2775 51.1128 13.2775 51.2303C13.63 52.1703 17.9775 61.3353 38.4225 61.3353C58.8675 61.3353 63.0975 52.2878 63.5675 51.2303C63.5675 51.2303 63.5675 51.2303 63.5675 51.1128C63.5675 50.9953 63.5675 50.9953 63.685 50.8778C63.685 50.8778 63.685 50.8778 63.685 50.7603C63.685 50.6428 63.685 50.5253 63.685 50.5253V41.7128L74.26 31.4903C74.6125 31.0203 74.8475 30.3153 74.6125 29.7278Z" fill="#CF122C"/>
<path d="M21.2675 31.1386C21.15 31.0211 21.2675 30.7861 21.385 30.7861H32.3125C33.2525 30.7861 34.075 31.1386 34.78 31.8436L35.8375 32.9011H24.44C23.5 32.9011 22.6775 32.5486 21.9725 31.8436L21.2675 31.1386Z" fill="#C5C5C5"/>
<path d="M35.955 32.9005H24.3225C23.3825 32.9005 22.4425 32.548 21.855 31.843L21.15 31.2555C21.0325 31.138 21.0325 31.0205 21.0325 30.903C21.0325 30.7855 21.15 30.668 21.2675 30.668H32.195C33.135 30.668 34.075 31.0205 34.6625 31.7255L35.955 32.9005ZM24.44 32.783H35.6025L34.6625 31.843C34.075 31.2555 33.135 30.903 32.3125 30.903H21.385C21.385 30.903 21.2675 30.903 21.2675 31.0205V31.138L21.9725 31.843C22.6775 32.4305 23.5 32.783 24.44 32.783Z" fill="#858685"/>
<path d="M25.0275 33.2532C24.91 33.1357 25.0275 32.7832 25.2625 32.7832H34.31C35.25 32.7832 36.0725 33.1357 36.7775 33.8407L37.365 34.4282C37.4825 34.5457 37.365 34.8982 37.13 34.8982H28.0825C27.1425 34.8982 26.32 34.5457 25.615 33.8407L25.0275 33.2532Z" fill="#C5C5C5"/>
<path d="M37.13 35.0157H28.0825C27.1425 35.0157 26.2025 34.6632 25.615 33.9582L25.0275 33.3707C24.91 33.2532 24.91 33.1357 24.91 33.0182C24.91 32.9007 25.0275 32.7832 25.2625 32.7832H34.31C35.25 32.7832 36.19 33.1357 36.7775 33.8407L37.365 34.4282C37.4825 34.5457 37.4825 34.6632 37.4825 34.7807C37.365 34.8982 37.2475 35.0157 37.13 35.0157ZM28.0825 34.7807H37.13C37.2475 34.7807 37.2475 34.7807 37.2475 34.6632C37.2475 34.5457 37.2475 34.5457 37.2475 34.4282L36.66 33.8407C36.0725 33.2532 35.1325 32.9007 34.31 32.9007H25.2625C25.145 32.9007 25.145 32.9007 25.145 33.0182C25.145 33.0182 25.145 33.1357 25.145 33.2532L25.7325 33.8407C26.32 34.4282 27.1425 34.7807 28.0825 34.7807Z" fill="#858685"/>
<path d="M28.5525 35.3684C28.435 35.2509 28.5525 34.8984 28.7875 34.8984H35.72C36.66 34.8984 37.4825 35.2509 38.1875 35.9559L38.775 36.5434C38.8925 36.6609 38.775 37.0134 38.54 37.0134H31.6075C30.6675 37.0134 29.845 36.6609 29.14 35.9559L28.5525 35.3684Z" fill="#C5C5C5"/>
<path d="M38.54 37.0128H31.6075C30.6675 37.0128 29.7275 36.6603 29.14 35.9553L28.5525 35.3678C28.435 35.2503 28.435 35.1328 28.435 35.0153C28.435 34.8978 28.67 34.7803 28.7875 34.7803H35.72C36.66 34.7803 37.6 35.1328 38.1875 35.8378L38.775 36.4253C38.8925 36.5428 38.8925 36.6603 38.8925 36.7778C38.775 37.0128 38.6575 37.0128 38.54 37.0128ZM31.6075 36.8953H38.54C38.6575 36.8953 38.6575 36.8953 38.6575 36.7778C38.6575 36.7778 38.6575 36.6603 38.6575 36.5428L38.07 35.9553C37.4825 35.3678 36.5425 35.0153 35.72 35.0153H28.7875C28.67 35.0153 28.67 35.0153 28.67 35.1328C28.67 35.1328 28.67 35.2503 28.67 35.3678L29.2575 35.9553C29.845 36.5428 30.6675 36.8953 31.6075 36.8953Z" fill="#858685"/>
<path d="M55.695 31.2561C55.8125 31.1386 55.695 30.7861 55.46 30.7861H44.7675C43.8275 30.7861 43.005 31.1386 42.3 31.8436L41.36 32.9011H52.7575C53.6975 32.9011 54.52 32.5486 55.225 31.8436L55.695 31.2561Z" fill="#C5C5C5"/>
<path d="M41.125 32.9005L42.3 31.7255C43.005 31.0205 43.8275 30.668 44.7675 30.668H55.46C55.5775 30.668 55.695 30.7855 55.8125 30.903C55.93 31.0205 55.8125 31.138 55.695 31.2555L55.225 31.843C54.52 32.548 53.6975 32.9005 52.7575 32.9005H41.125ZM42.4175 31.843L41.4775 32.783H52.64C53.4625 32.783 54.4025 32.4305 54.99 31.843L55.5775 31.2555C55.695 31.138 55.695 31.138 55.5775 31.0205C55.5775 31.0205 55.46 30.903 55.3425 30.903H44.65C43.945 30.903 43.1225 31.2555 42.4175 31.843Z" fill="#858685"/>
<path d="M52.0525 33.2532C52.17 33.1357 52.0525 32.7832 51.935 32.7832H42.8875C41.9475 32.7832 41.125 33.1357 40.42 33.8407L39.3625 34.8982H48.9975C49.9375 34.8982 50.76 34.5457 51.465 33.8407L52.0525 33.2532Z" fill="#C5C5C5"/>
<path d="M39.1275 35.0157L40.3025 33.8407C41.0075 33.1357 41.83 32.7832 42.77 32.7832H51.8175C51.935 32.7832 52.0525 32.9007 52.17 33.0182C52.17 33.1357 52.17 33.2532 52.0525 33.3707L51.465 33.9582C50.76 34.6632 49.9375 35.0157 48.9975 35.0157H39.1275ZM40.42 33.9582L39.48 34.8982H48.9975C49.82 34.8982 50.76 34.5457 51.3475 33.9582L52.0525 33.2532C52.0525 33.2532 52.17 33.1357 52.0525 33.1357C52.0525 33.0182 51.935 33.0182 51.935 33.0182H42.8875C41.9475 32.9007 41.125 33.2532 40.42 33.9582Z" fill="#858685"/>
<path d="M48.645 35.2509C48.7625 35.1334 48.645 34.8984 48.5275 34.8984H41.36C40.42 34.8984 39.5975 35.2509 38.8925 35.9559L37.835 37.0134H45.4725C46.4125 37.0134 47.235 36.6609 47.94 35.9559L48.645 35.2509Z" fill="#C5C5C5"/>
<path d="M37.7175 37.0128L38.8925 35.8378C39.5975 35.1328 40.42 34.7803 41.36 34.7803H48.5275C48.645 34.7803 48.7625 34.8978 48.7625 34.8978C48.7625 35.0153 48.7625 35.1328 48.645 35.2503L47.94 35.9553C47.235 36.6603 46.4125 37.0128 45.4725 37.0128H37.7175ZM39.01 35.9553L38.07 36.8953H45.4725C46.295 36.8953 47.235 36.5428 47.8225 35.9553L48.5275 35.2503V35.1328C48.5275 35.1328 48.5275 35.0153 48.41 35.0153H41.2425C40.5375 35.0153 39.5975 35.3678 39.01 35.9553Z" fill="#858685"/>
<path d="M42.8875 34.0753C42.8875 36.5428 40.89 38.5403 38.4225 38.5403C35.955 38.5403 33.9575 36.5428 33.9575 34.0753C33.9575 31.6079 35.955 29.6104 38.4225 29.6104C40.89 29.6104 42.8875 31.6079 42.8875 34.0753Z" fill="#D21223"/>
<path d="M38.54 38.776C35.955 38.776 33.84 36.661 33.84 34.076C33.84 31.491 35.955 29.376 38.54 29.376C41.125 29.376 43.24 31.491 43.24 34.076C43.1225 36.661 41.125 38.776 38.54 38.776ZM38.54 29.846C36.19 29.846 34.4275 31.726 34.4275 33.9585C34.4275 36.3085 36.3075 38.071 38.54 38.071C40.89 38.071 42.6525 36.191 42.6525 33.9585C42.6525 31.726 40.7725 29.846 38.54 29.846Z" fill="#C5C5C5"/>
<path d="M38.54 38.7756C35.955 38.7756 33.7225 36.6606 33.7225 33.9581C33.7225 31.2556 35.8375 29.1406 38.54 29.1406C41.125 29.1406 43.3575 31.2556 43.3575 33.9581C43.3575 36.6606 41.125 38.7756 38.54 38.7756ZM38.54 29.4931C35.955 29.4931 33.9575 31.6081 33.9575 34.0756C33.9575 36.6606 36.0725 38.6581 38.54 38.6581C41.125 38.6581 43.1225 36.5431 43.1225 34.0756C43.1225 31.4906 41.0075 29.4931 38.54 29.4931ZM38.54 38.3056C36.19 38.3056 34.31 36.4256 34.31 34.0756C34.31 31.7256 36.19 29.8456 38.54 29.8456C40.89 29.8456 42.77 31.7256 42.77 34.0756C42.77 36.4256 40.89 38.3056 38.54 38.3056ZM38.54 29.9631C36.3075 29.9631 34.4275 31.8431 34.4275 34.0756C34.4275 36.3081 36.3075 38.1881 38.54 38.1881C40.7725 38.1881 42.6525 36.3081 42.6525 34.0756C42.6525 31.8431 40.7725 29.9631 38.54 29.9631Z" fill="#858685"/>
<path d="M39.245 34.1934C40.0675 34.1934 40.7725 33.7234 40.7725 33.2534C40.7725 32.7834 39.95 32.3134 39.01 32.3134H38.8925L39.245 31.9609H38.775L37.9525 32.3134H36.66C36.19 32.3134 35.955 32.4309 35.8375 32.6659H38.54C39.1275 32.6659 39.715 32.7834 39.715 33.2534C39.715 33.8409 39.01 33.8409 38.4225 33.8409H37.365L38.4225 34.8984C39.1275 35.6034 40.0675 36.0734 41.125 36.0734L39.245 34.1934Z" fill="#C5C5C5"/>
<path d="M63.685 41.9473H13.16V45.0023H63.685V41.9473Z" fill="#C5C5C5"/>
</svg>
