<svg width="112" height="112" viewBox="0 0 112 112" fill="none" xmlns="http://www.w3.org/2000/svg">
<path d="M39.9 28.1395C39.9 27.0195 39.48 25.7595 38.78 24.9195C38.36 24.3595 37.8 23.9395 37.24 23.5195V28.5595H31.5V23.5195C30.94 23.9395 30.38 24.3595 29.96 24.9195C29.26 25.8995 28.84 27.0195 28.84 28.1395C28.84 30.3795 30.1 32.3395 32.2 33.1795L32.76 33.4595V37.7995C33.88 37.9395 34.86 37.9395 35.98 37.7995V33.3195L36.54 33.0395C38.64 32.1995 39.9 30.2395 39.9 28.1395Z" fill="#56575B"/>
<path d="M50.96 34.86V26.6H48.3C48.02 25.62 47.6 24.64 47.04 23.66L48.86 21.84L43.12 16.1L41.3 17.92C40.32 17.36 39.48 17.08 38.36 16.66V14H30.24V16.8C29.26 17.08 28.28 17.5 27.3 18.06L25.48 16.24L19.74 21.98L21.56 23.8C21 24.78 20.72 25.62 20.3 26.74H17.64V34.86H20.3C20.58 35.84 21 36.82 21.56 37.8L19.74 39.62L25.48 45.36L27.3 43.54C28.28 44.1 29.12 44.38 30.24 44.8V47.46H38.36V44.8C39.34 44.52 40.32 44.1 41.3 43.54L43.12 45.36L48.86 39.62L47.04 37.8C47.6 36.82 47.88 35.98 48.3 34.86H50.96V34.86ZM34.44 40.18C33.46 40.18 32.48 40.04 31.64 39.76L30.94 39.62V34.86C28.56 33.6 27.02 31.08 27.02 28.28C27.02 26.74 27.58 25.2 28.42 23.8C29.4 22.54 30.66 21.56 32.2 21.14L33.46 20.72V26.6H35.42V20.72L36.68 21.14C38.22 21.56 39.48 22.54 40.46 23.8C41.44 25.06 42 26.6 42 28.28C42 31.08 40.46 33.46 38.08 34.86V39.62L37.38 39.76C36.4 40.04 35.42 40.18 34.44 40.18Z" fill="#56575B"/>
<path d="M77.84 78.3999C70 78.3999 63.56 71.9598 63.56 64.1198C63.56 56.2798 70 49.8398 77.84 49.8398C85.68 49.8398 92.12 56.2798 92.12 64.1198C92.12 71.9598 85.68 78.3999 77.84 78.3999ZM77.84 53.8998C72.24 53.8998 67.62 58.5198 67.62 64.1198C67.62 69.7198 72.24 74.3398 77.84 74.3398C83.44 74.3398 88.06 69.7198 88.06 64.1198C88.06 58.5198 83.44 53.8998 77.84 53.8998Z" fill="#CF122C"/>
<path d="M77.84 90.5798C75.74 90.5798 74.34 88.7598 73.36 87.3598C72.94 86.7998 72.24 85.9598 71.96 85.8198C71.68 85.8198 70.7 86.2398 70 86.5198C68.32 87.2198 66.36 88.0598 64.54 87.0798C62.72 86.0998 62.44 83.8598 62.3 82.1798C62.16 81.4798 62.02 80.3598 61.88 80.0798C61.6 79.9398 60.48 79.7998 59.92 79.6598C58.1 79.3798 56 79.0998 55.02 77.4198C54.04 75.5998 54.88 73.6398 55.58 71.9598C55.86 71.2598 56.28 70.2798 56.28 69.8598C56 69.7198 55.16 69.0198 54.6 68.5998C53.2 67.4798 51.38 66.2198 51.38 64.1198C51.38 62.0198 53.2 60.6198 54.6 59.6398C55.16 59.2198 56 58.5198 56.14 58.2398C56.14 57.9598 55.72 56.9798 55.44 56.2798C54.74 54.5998 53.9 52.6398 54.88 50.8198C55.86 48.9998 58.1 48.7198 59.78 48.5798C60.48 48.4398 61.6 48.2998 61.88 48.1598C62.02 47.8798 62.16 46.7598 62.3 46.1998C62.58 44.3798 62.86 42.2798 64.54 41.2998C66.36 40.3198 68.32 41.1598 70 41.8598C70.7 42.1398 71.68 42.5598 72.1 42.5598C72.24 42.4198 72.94 41.5798 73.36 41.0198C74.48 39.6198 75.74 37.7998 77.84 37.7998C79.94 37.7998 81.34 39.6198 82.32 41.0198C82.74 41.5798 83.44 42.4198 83.72 42.5598C84 42.5598 84.98 42.1398 85.68 41.8598C87.36 41.1598 89.32 40.3198 91.14 41.2998C92.96 42.2798 93.24 44.5198 93.38 46.1998C93.52 46.8998 93.66 48.0198 93.8 48.2998C94.08 48.4398 95.2 48.5798 95.76 48.7198C97.58 48.9998 99.68 49.2798 100.66 50.9598C101.64 52.7798 100.8 54.7398 100.1 56.4198C99.82 57.1198 99.4 58.0998 99.4 58.5198C99.54 58.6598 100.38 59.3598 100.94 59.7798C102.34 60.8998 104.16 62.1598 104.16 64.2598C104.16 66.3598 102.34 67.7598 100.94 68.7398C100.38 69.1598 99.54 69.8598 99.4 70.1398C99.4 70.4198 99.82 71.3998 100.1 72.0998C100.8 73.7798 101.64 75.7398 100.66 77.5598C99.68 79.3798 97.44 79.6598 95.76 79.7998C95.06 79.9398 93.94 80.0798 93.66 80.2198C93.52 80.4998 93.38 81.6198 93.24 82.1798C92.96 83.9998 92.68 86.0998 91 87.0798C89.18 88.0598 87.22 87.2198 85.54 86.5198C84.84 86.2398 83.86 85.8198 83.44 85.8198C83.3 85.9598 82.6 86.7998 82.18 87.3598C81.2 88.7598 79.94 90.5798 77.84 90.5798ZM71.96 81.7598C72.24 81.7598 72.66 81.7598 72.94 81.8998C74.48 82.3198 75.46 83.5798 76.44 84.8398C76.86 85.2598 77.42 86.0998 77.7 86.3798C78.12 86.0998 78.68 85.3998 78.96 84.8398C79.94 83.5798 80.92 82.3198 82.46 81.8998C84 81.4798 85.68 82.1798 87.08 82.7398C87.64 83.0198 88.48 83.2998 88.9 83.4398C88.9 83.1598 89.04 82.1798 89.18 81.6198C89.32 80.0798 89.6 78.3998 90.72 77.2798C91.84 76.1598 93.52 75.8798 95.06 75.7398C95.62 75.5998 96.46 75.5998 96.88 75.4598C96.74 75.0398 96.46 74.1998 96.18 73.7798C95.62 72.3798 94.92 70.6998 95.34 69.1598C95.76 67.6198 97.02 66.6398 98.28 65.6598C98.7 65.2398 99.54 64.6798 99.82 64.3998C99.54 63.9798 98.84 63.4198 98.28 63.1398C97.02 62.1598 95.76 61.1798 95.34 59.6398C94.92 58.0998 95.62 56.4198 96.18 55.0198C96.46 54.4598 96.74 53.6198 96.88 53.1998C96.6 53.1998 95.62 53.0598 95.06 52.9198C93.52 52.7798 91.84 52.4998 90.72 51.3798C89.6 50.2598 89.32 48.5798 89.18 47.0398C89.04 46.4798 89.04 45.6398 88.9 45.2198C88.48 45.3598 87.64 45.6398 87.22 45.9198C85.82 46.4798 84.14 47.1798 82.6 46.7598C81.06 46.3398 80.08 45.0798 79.1 43.8198C78.68 43.3998 78.12 42.5598 77.84 42.2798C77.42 42.5598 76.86 43.2598 76.58 43.8198C75.6 45.0798 74.62 46.3398 73.08 46.7598C71.54 47.1798 69.86 46.4798 68.46 45.9198C67.9 45.6398 67.06 45.3598 66.64 45.2198C66.64 45.4998 66.5 46.4798 66.36 47.0398C66.22 48.5798 65.94 50.2598 64.82 51.3798C63.7 52.4998 62.02 52.7798 60.48 52.9198C59.92 53.0598 59.08 53.0598 58.66 53.1998C58.8 53.6198 59.08 54.4598 59.36 54.8798C59.92 56.2798 60.62 57.9598 60.2 59.4998C59.78 61.0398 58.52 62.0198 57.26 62.9998C56.84 63.4198 56 63.9798 55.72 64.2598C56 64.6798 56.7 65.2398 57.26 65.5198C58.52 66.4998 59.78 67.4798 60.2 69.0198C60.62 70.5598 59.92 72.2398 59.36 73.6398C59.08 74.1998 58.8 75.0398 58.66 75.4598C58.94 75.4598 59.92 75.5998 60.48 75.7398C62.02 75.8798 63.7 76.1598 64.82 77.2798C65.94 78.3998 66.22 80.0798 66.36 81.6198C66.5 82.1798 66.5 83.0198 66.64 83.4398C67.06 83.2998 67.9 83.0198 68.32 82.7398C69.58 82.3198 70.84 81.7598 71.96 81.7598Z" fill="#CF122C"/>
<path d="M85.96 104.859C85.26 104.859 84.56 104.439 84.14 103.879L76.02 89.5993C75.46 88.6193 75.74 87.3593 76.72 86.7993C77.7 86.2393 78.96 86.5193 79.52 87.4993L85.82 98.4193L88.2 93.6593C88.62 92.8193 89.46 92.3993 90.44 92.5393L96.18 93.6593L90.3 83.2993C89.74 82.3193 90.02 81.0593 91 80.4993C91.98 79.9393 93.24 80.2193 93.8 81.1993L101.92 95.4793C102.34 96.1793 102.2 97.0193 101.78 97.7193C101.36 98.4193 100.52 98.6993 99.68 98.5593L91 96.8793L87.78 103.599C87.5 104.299 86.8 104.719 85.96 104.859Z" fill="#CF122C"/>
<path d="M69.72 104.86C69.72 104.86 69.58 104.86 69.72 104.86C68.88 104.86 68.18 104.44 67.9 103.74L64.54 97.0199L55.86 98.6999C55.02 98.8399 54.32 98.5599 53.76 97.8599C53.34 97.1599 53.2 96.3199 53.62 95.6199L61.74 81.3399C62.3 80.3599 63.56 80.0799 64.54 80.6399C65.52 81.1999 65.8 82.4599 65.24 83.4399L59.5 93.7999L65.24 92.6799C66.08 92.5399 67.06 92.9599 67.48 93.7999L69.86 98.5599L76.16 87.6399C76.72 86.6599 77.98 86.3799 78.96 86.9399C79.94 87.4999 80.22 88.7599 79.66 89.7399L71.4 103.74C71.12 104.44 70.42 104.86 69.72 104.86Z" fill="#CF122C"/>
<path d="M55.44 104.86H8.68002C7.56002 104.86 6.58002 104.02 6.58002 102.76V9.23965C6.58002 8.11965 7.42002 7.13965 8.68002 7.13965H63.56C64.68 7.13965 65.66 7.97965 65.66 9.23965V27.5796H84C85.12 27.5796 86.1 28.4196 86.1 29.6796V35.8396C86.1 36.9596 85.26 37.9396 84 37.9396C82.88 37.9396 81.9 37.0996 81.9 35.8396V31.7796H63.56C62.44 31.7796 61.46 30.9396 61.46 29.6796V11.3396H10.78V100.8H55.44C56.56 100.8 57.54 101.64 57.54 102.9C57.54 103.88 56.56 104.86 55.44 104.86Z" fill="#CF122C"/>
<path d="M83.86 31.64H63.56C62.44 31.64 61.46 30.8 61.46 29.54V9.24C61.46 8.4 62.02 7.7 62.72 7.42C63.56 7 64.4 7.28 64.96 7.84L85.4 28.14C85.96 28.7 86.1 29.54 85.82 30.38C85.54 31.08 84.7 31.64 83.86 31.64ZM65.66 27.58H79.1L65.66 14.14V27.58Z" fill="#CF122C"/>
<path d="M49.42 53.9002H20.86C19.74 53.9002 18.76 53.0602 18.76 51.8002C18.76 50.6802 19.6 49.7002 20.86 49.7002H49.28C50.4 49.7002 51.38 50.5402 51.38 51.8002C51.38 53.0602 50.54 53.9002 49.42 53.9002Z" fill="#CF122C"/>
<path d="M47.32 64.1199H20.86C19.74 64.1199 18.76 63.2799 18.76 62.0199C18.76 60.8999 19.6 59.9199 20.86 59.9199H47.32C48.44 59.9199 49.42 60.7599 49.42 62.0199C49.42 63.2799 48.44 64.1199 47.32 64.1199Z" fill="#CF122C"/>
<path d="M47.32 74.3396H20.86C19.74 74.3396 18.76 73.4996 18.76 72.2396C18.76 70.9796 19.6 70.1396 20.86 70.1396H47.32C48.44 70.1396 49.42 70.9796 49.42 72.2396C49.42 73.4996 48.44 74.3396 47.32 74.3396Z" fill="#CF122C"/>
<path d="M47.32 84.4197H20.86C19.74 84.4197 18.76 83.5797 18.76 82.3197C18.76 81.1997 19.6 80.2197 20.86 80.2197H47.32C48.44 80.2197 49.42 81.0597 49.42 82.3197C49.42 83.5797 48.44 84.4197 47.32 84.4197Z" fill="#CF122C"/>
<path d="M47.32 94.6395H35.14C34.02 94.6395 33.04 93.7995 33.04 92.5395C33.04 91.2795 33.88 90.4395 35.14 90.4395H47.32C48.44 90.4395 49.42 91.2795 49.42 92.5395C49.42 93.7995 48.44 94.6395 47.32 94.6395Z" fill="#CF122C"/>
</svg>
