<svg width="50" height="74" viewBox="0 0 50 74" fill="none" xmlns="http://www.w3.org/2000/svg">
	<path d="M45.536 51.679C40.392 51.679 36.9573 51.0495 24.0893 54.3258C23.6936 54.4227 23.2821 54.2129 23.1238 53.8255L18.6604 43.1734H35.1371L40.8826 44.868C41.769 44.868 42.4812 44.1256 42.4812 43.2379V40.01C42.4812 39.1062 41.7531 38.3799 40.8826 38.3799H16.6344L7.77087 17.2209L8.48312 3.9542C8.60974 1.77535 6.94782 0 4.8269 0C2.70597 0 0.869948 1.77535 0.743326 3.93806L0.0469031 16.9466C-0.0322359 17.3823 -0.0322359 17.8504 0.0469031 18.3184C0.0469031 18.3184 8.78384 52.9701 11.6962 64.5261H23.567C24.3426 64.5261 24.9757 65.1717 24.9757 65.9625V67.8831C24.9757 68.6739 24.3426 70.6268 23.567 70.6268H13.2789C12.5825 70.6268 11.9969 71.2079 11.9969 71.9341V72.6927C11.9969 73.4028 12.5667 74 13.2789 74H42.3546C43.051 74 43.6367 73.419 43.6367 72.6927V71.9341C43.6367 71.224 43.0669 70.6268 42.3546 70.6268H30.8636C30.0881 70.6268 29.4549 68.6739 29.4549 67.8831V65.9625C29.4549 65.1717 30.0881 64.5261 30.8636 64.5261H43.1935C44.0165 64.5261 44.7763 64.058 45.1719 63.3156L49.7778 54.4388C49.8095 54.455 51.3606 51.679 45.536 51.679Z" fill="#D0112B"/>
	<path d="M34 27C38.9486 27 43 23.0702 43 18.2702V11.7298C43 6.92982 38.9486 3 34 3C29.0514 3 25 6.92982 25 11.7298V18.2702C25 23.0702 29.0514 27 34 27Z" fill="#D0112B"/>
</svg>