<svg width="36" height="24" viewBox="0 0 36 24" fill="none" xmlns="http://www.w3.org/2000/svg">
	<path d="M33.9375 2C33.5625 2 33.1875 2.125 32.8125 2.375L26 6.6875V3C26 1.375 24.5 0 22.75 0H3.1875C1.4375 0 0 1.375 0 3V21.0625C0 22.6875 1.4375 24 3.1875 24H22.75C24.5 24 26 22.6875 26 21.0625V17.375L32.8125 21.6875C33.1875 21.9375 33.5625 22 33.9375 22C35 22 36 21.1875 36 20.0625V4C36 2.8125 35 2 33.9375 2ZM23 8.5V20.9375C22.9375 21 22.875 21 22.75 21H3.1875C3.0625 21 3 21 3 20.9375V3.125C3 3.0625 3.0625 3 3.1875 3H22.75C22.875 3 22.9375 3.0625 23 3.125V8.5ZM33 18.25L26 13.875V10.1875L33 5.8125V18.25Z" fill="#BEBEBE"/>
</svg>