<svg width="42" height="42" viewBox="0 0 42 42" fill="none" xmlns="http://www.w3.org/2000/svg">
	<g filter="url(#filter0_d)">
		<path d="M17.5134 22.9283C17.4062 23.9863 16.9777 24.7899 16.0536 24.7899C14.5938 24.7899 14.3259 23.3435 14.3259 21.8033C14.3259 19.6872 14.9286 18.6158 15.933 18.6158C16.8438 18.6158 17.4062 19.272 17.5 20.4104H20.2188C19.9911 17.5979 18.4911 15.9372 15.8125 15.9372C13.375 15.9372 11.4464 18.147 11.4464 21.6828C11.4464 25.2453 13.2009 27.4685 16.0938 27.4685C18.4107 27.4685 20.0312 25.7542 20.2857 22.9283H17.5134ZM27.0491 22.9283C26.942 23.9863 26.5 24.7899 25.5759 24.7899C24.1161 24.7899 23.8616 23.3435 23.8616 21.8033C23.8616 19.6872 24.4643 18.6158 25.4688 18.6158C26.3661 18.6158 26.942 19.272 27.0223 20.4104H29.7545C29.5268 17.5979 28.0268 15.9372 25.3482 15.9372C22.9107 15.9372 20.9821 18.147 20.9821 21.6828C20.9821 25.2453 22.7366 27.4685 25.6295 27.4685C27.9464 27.4685 29.5536 25.7542 29.808 22.9283H27.0491ZM31.8571 21.3345C31.8571 24.9372 31.683 26.5042 30.8393 27.6024C30.6786 27.8703 30.3839 27.9774 30.1562 28.1515C29.3125 28.781 25.3884 29.022 20.8214 29.022C16.2545 29.022 12.1429 28.7676 11.3125 28.1515C11.0714 27.964 10.7902 27.8569 10.6027 27.6024C9.78571 26.4908 9.59821 24.9372 9.59821 21.3345C9.59821 17.7453 9.77232 16.1783 10.6027 15.0667C10.7768 14.839 11.0714 14.7051 11.3125 14.531C12.1429 13.9149 16.2545 13.6872 20.8214 13.6872C25.3884 13.6872 29.3125 13.9149 30.1562 14.531C30.3839 14.6917 30.6652 14.839 30.8393 15.0667C31.6696 16.1917 31.8571 17.7453 31.8571 21.3345ZM34.4286 11.1426H7V31.714H34.4286V11.1426Z" fill="white"/>
	</g>
	<defs>
		<filter id="filter0_d" x="3" y="9.14258" width="35.4286" height="28.5714" filterUnits="userSpaceOnUse" color-interpolation-filters="sRGB">
			<feFlood flood-opacity="0" result="BackgroundImageFix"/>
			<feColorMatrix in="SourceAlpha" type="matrix" values="0 0 0 0 0 0 0 0 0 0 0 0 0 0 0 0 0 0 127 0"/>
			<feOffset dy="2"/>
			<feGaussianBlur stdDeviation="2"/>
			<feColorMatrix type="matrix" values="0 0 0 0 0 0 0 0 0 0 0 0 0 0 0 0 0 0 0.25 0"/>
			<feBlend mode="normal" in2="BackgroundImageFix" result="effect1_dropShadow"/>
			<feBlend mode="normal" in="SourceGraphic" in2="effect1_dropShadow" result="shape"/>
		</filter>
	</defs>
</svg>