<svg width="42" height="42" viewBox="0 0 42 42" fill="none" xmlns="http://www.w3.org/2000/svg">
	<g filter="url(#filter0_d)">
		<path d="M20.4263 23.6433C20.4263 23.554 20.3817 23.4535 20.3147 23.3866L19.0424 22.1143C18.9754 22.0473 18.875 22.0027 18.7857 22.0027C18.6964 22.0027 18.596 22.0473 18.529 22.1143L14.8237 25.8196L13.2165 24.2125C13.0826 24.0785 12.904 24.0004 12.7143 24.0004C12.3237 24.0004 12 24.3241 12 24.7147V29.7147C12 30.1053 12.3237 30.429 12.7143 30.429H17.7143C18.1049 30.429 18.4286 30.1053 18.4286 29.7147C18.4286 29.525 18.3504 29.3464 18.2165 29.2125L16.6094 27.6053L20.3147 23.9C20.3817 23.833 20.4263 23.7326 20.4263 23.6433ZM29.1429 14.0004C29.1429 13.6098 28.8192 13.2861 28.4286 13.2861H23.4286C23.0379 13.2861 22.7143 13.6098 22.7143 14.0004C22.7143 14.1902 22.7924 14.3687 22.9263 14.5027L24.5335 16.1098L20.8281 19.8152C20.7612 19.8821 20.7165 19.9826 20.7165 20.0718C20.7165 20.1611 20.7612 20.2616 20.8281 20.3285L22.1004 21.6009C22.1674 21.6678 22.2679 21.7125 22.3571 21.7125C22.4464 21.7125 22.5469 21.6678 22.6138 21.6009L26.3192 17.8955L27.9263 19.5027C28.0603 19.6366 28.2388 19.7147 28.4286 19.7147C28.8192 19.7147 29.1429 19.391 29.1429 19.0004V14.0004Z" fill="white"/>
	</g>
	<defs>
		<filter id="filter0_d" x="8" y="11.2861" width="25.1429" height="25.1429" filterUnits="userSpaceOnUse" color-interpolation-filters="sRGB">
			<feFlood flood-opacity="0" result="BackgroundImageFix"/>
			<feColorMatrix in="SourceAlpha" type="matrix" values="0 0 0 0 0 0 0 0 0 0 0 0 0 0 0 0 0 0 127 0"/>
			<feOffset dy="2"/>
			<feGaussianBlur stdDeviation="2"/>
			<feColorMatrix type="matrix" values="0 0 0 0 0 0 0 0 0 0 0 0 0 0 0 0 0 0 0.25 0"/>
			<feBlend mode="normal" in2="BackgroundImageFix" result="effect1_dropShadow"/>
			<feBlend mode="normal" in="SourceGraphic" in2="effect1_dropShadow" result="shape"/>
		</filter>
	</defs>
</svg>