<svg width="42" height="42" viewBox="0 0 42 42" fill="none" xmlns="http://www.w3.org/2000/svg">
	<g filter="url(#filter0_d)">
		<path d="M29.4286 19.8573C29.4286 19.3885 29.0402 19.0001 28.5714 19.0001C28.1027 19.0001 27.7143 19.3885 27.7143 19.8573V21.5716C27.7143 24.8796 25.0223 27.5716 21.7143 27.5716C18.4062 27.5716 15.7143 24.8796 15.7143 21.5716V19.8573C15.7143 19.3885 15.3259 19.0001 14.8571 19.0001C14.3884 19.0001 14 19.3885 14 19.8573V21.5716C14 25.5359 17 28.8037 20.8571 29.2323V31.0001H17.4286C16.9598 31.0001 16.5714 31.3885 16.5714 31.8573C16.5714 32.326 16.9598 32.7144 17.4286 32.7144H26C26.4688 32.7144 26.8571 32.326 26.8571 31.8573C26.8571 31.3885 26.4688 31.0001 26 31.0001H22.5714V29.2323C26.4286 28.8037 29.4286 25.5359 29.4286 21.5716V19.8573ZM26 14.7144C26 12.3573 24.0714 10.4287 21.7143 10.4287C19.3571 10.4287 17.4286 12.3573 17.4286 14.7144V21.5716C17.4286 23.9287 19.3571 25.8573 21.7143 25.8573C24.0714 25.8573 26 23.9287 26 21.5716V14.7144Z" fill="white"/>
	</g>
	<defs>
		<filter id="filter0_d" x="10" y="8.42871" width="23.4286" height="30.2857" filterUnits="userSpaceOnUse" color-interpolation-filters="sRGB">
			<feFlood flood-opacity="0" result="BackgroundImageFix"/>
			<feColorMatrix in="SourceAlpha" type="matrix" values="0 0 0 0 0 0 0 0 0 0 0 0 0 0 0 0 0 0 127 0"/>
			<feOffset dy="2"/>
			<feGaussianBlur stdDeviation="2"/>
			<feColorMatrix type="matrix" values="0 0 0 0 0 0 0 0 0 0 0 0 0 0 0 0 0 0 0.25 0"/>
			<feBlend mode="normal" in2="BackgroundImageFix" result="effect1_dropShadow"/>
			<feBlend mode="normal" in="SourceGraphic" in2="effect1_dropShadow" result="shape"/>
		</filter>
	</defs>
</svg>