<svg width="72" height="72" viewBox="0 0 72 72" fill="none" xmlns="http://www.w3.org/2000/svg">
	<path d="M49.9592 21.7958C49.9592 21.1261 49.4043 20.5713 48.7347 20.5713H38.9388C38.2691 20.5713 37.7143 21.1261 37.7143 21.7958V48.7346C37.7143 49.4042 38.2691 49.959 38.9388 49.959H48.7347C49.4043 49.959 49.9592 49.4042 49.9592 48.7346V21.7958ZM32.8163 21.7958C32.8163 21.1261 32.2615 20.5713 31.5918 20.5713H21.7959C21.1263 20.5713 20.5714 21.1261 20.5714 21.7958V48.7346C20.5714 49.4042 21.1263 49.959 21.7959 49.959H31.5918C32.2615 49.959 32.8163 49.4042 32.8163 48.7346V21.7958Z" fill="white"/>
</svg>