<svg width="46" height="48" viewBox="0 0 46 48" fill="none" xmlns="http://www.w3.org/2000/svg">
	<mask id="path-1-outside-1" maskUnits="userSpaceOnUse" x="0" y="0" width="46" height="48" fill="black">
		<rect fill="white" width="46" height="48"/>
		<path fill-rule="evenodd" clip-rule="evenodd" d="M39 7C39 4.23858 36.7614 2 34 2H12C9.23858 2 7 4.23858 7 7L7 13.4986C6.99926 12.1186 5.88026 11 4.5 11C3.11929 11 2 12.1193 2 13.5V33.5C2 34.8807 3.11929 36 4.5 36C5.88016 36 6.99911 34.8816 7 33.5016L7 41C7 41.0861 7.00217 41.1716 7.00647 41.2566C7.00218 41.3372 7 41.4183 7 41.5C7 43.9853 9.01472 46 11.5 46H11.9938C11.9959 46 11.9979 46 12 46H34C34.0003 46 34.0006 46 34.0009 46H34.5C36.9853 46 39 43.9853 39 41.5C39 41.4183 38.9978 41.3372 38.9935 41.2566C38.9978 41.1716 39 41.0861 39 41V33.5C39 34.8807 40.1193 36 41.5 36C42.8807 36 44 34.8807 44 33.5V13.5C44 12.1193 42.8807 11 41.5 11C40.1193 11 39 12.1193 39 13.5V7Z"/>
	</mask>
	<path fill-rule="evenodd" clip-rule="evenodd" d="M39 7C39 4.23858 36.7614 2 34 2H12C9.23858 2 7 4.23858 7 7L7 13.4986C6.99926 12.1186 5.88026 11 4.5 11C3.11929 11 2 12.1193 2 13.5V33.5C2 34.8807 3.11929 36 4.5 36C5.88016 36 6.99911 34.8816 7 33.5016L7 41C7 41.0861 7.00217 41.1716 7.00647 41.2566C7.00218 41.3372 7 41.4183 7 41.5C7 43.9853 9.01472 46 11.5 46H11.9938C11.9959 46 11.9979 46 12 46H34C34.0003 46 34.0006 46 34.0009 46H34.5C36.9853 46 39 43.9853 39 41.5C39 41.4183 38.9978 41.3372 38.9935 41.2566C38.9978 41.1716 39 41.0861 39 41V33.5C39 34.8807 40.1193 36 41.5 36C42.8807 36 44 34.8807 44 33.5V13.5C44 12.1193 42.8807 11 41.5 11C40.1193 11 39 12.1193 39 13.5V7Z" fill="#678688"/>
	<path d="M7 7H9H7ZM7 13.4986L5 13.4997L9 13.4986H7ZM7 33.5016H9L5 33.5004L7 33.5016ZM7 41H5H7ZM7.00647 41.2566L9.00364 41.3631L9.00916 41.2593L9.00392 41.1556L7.00647 41.2566ZM7 41.5H9H7ZM38.9935 41.2566L36.9961 41.1557L36.9908 41.2594L36.9964 41.363L38.9935 41.2566ZM34 4C35.6569 4 37 5.34315 37 7H41C41 3.13401 37.866 0 34 0V4ZM12 4H34V0H12V4ZM9 7C9 5.34315 10.3431 4 12 4V0C8.13401 0 5 3.13401 5 7H9ZM9 13.4986L9 7H5L5 13.4986H9ZM4.5 13C4.77605 13 4.99985 13.2237 5 13.4997L9 13.4976C8.99867 11.0134 6.98447 9 4.5 9V13ZM4 13.5C4 13.2239 4.22386 13 4.5 13V9C2.01472 9 0 11.0147 0 13.5H4ZM4 33.5V13.5H0V33.5H4ZM4.5 34C4.22386 34 4 33.7761 4 33.5H0C0 35.9853 2.01472 38 4.5 38V34ZM5 33.5004C4.99982 33.7763 4.77602 34 4.5 34V38C6.9843 38 8.99839 35.9869 9 33.5029L5 33.5004ZM9 41L9 33.5016H5L5 41H9ZM9.00392 41.1556C9.00132 41.1043 9 41.0524 9 41H5C5 41.1198 5.00302 41.239 5.00902 41.3576L9.00392 41.1556ZM9 41.5C9 41.4539 9.00123 41.4082 9.00364 41.3631L5.0093 41.1502C5.00312 41.2662 5 41.3828 5 41.5H9ZM11.5 44C10.1193 44 9 42.8807 9 41.5H5C5 45.0898 7.91015 48 11.5 48V44ZM11.9938 44H11.5V48H11.9938V44ZM12 44C12 44 11.9999 44 11.9988 44C11.9979 44 11.9959 44 11.9938 44V48C11.9938 48 11.9939 48 11.9951 48C11.9959 48 11.9979 48 12 48V44ZM34 44H12V48H34V44ZM34.0009 44C34.0009 44 34.0009 44 34.0009 44C34.0009 44 34.0009 44 34.0009 44C34.0009 44 34.0009 44 34.0009 44H34.0009H34.0009C34.0009 44 34.0009 44 34.0009 44C34.0009 44 34.0009 44 34.0009 44C34.0009 44 34.0009 44 34.0009 44C34.0009 44 34.0009 44 34.0009 44C34.0009 44 34.0009 44 34.0009 44H34.0009H34.0009H34.0009C34.0009 44 34.0009 44 34.0009 44C34.0009 44 34.0009 44 34.0009 44C34.0009 44 34.0009 44 34.0009 44C34.0009 44 34.0009 44 34.0009 44C34.0009 44 34.0009 44 34.0009 44H34.0008H34.0008C34.0008 44 34.0008 44 34.0008 44C34.0008 44 34.0008 44 34.0008 44C34.0008 44 34.0008 44 34.0008 44C34.0008 44 34.0008 44 34.0008 44C34.0008 44 34.0008 44 34.0008 44C34.0008 44 34.0008 44 34.0008 44H34.0008H34.0008C34.0008 44 34.0008 44 34.0008 44C34.0008 44 34.0008 44 34.0008 44C34.0008 44 34.0008 44 34.0008 44C34.0008 44 34.0008 44 34.0008 44C34.0008 44 34.0008 44 34.0008 44H34.0008H34.0008H34.0008C34.0008 44 34.0008 44 34.0008 44C34.0008 44 34.0008 44 34.0008 44C34.0008 44 34.0008 44 34.0008 44C34.0008 44 34.0008 44 34.0008 44C34.0008 44 34.0008 44 34.0008 44H34.0008H34.0008H34.0008C34.0008 44 34.0008 44 34.0007 44C34.0007 44 34.0007 44 34.0007 44C34.0007 44 34.0007 44 34.0007 44C34.0007 44 34.0007 44 34.0007 44C34.0007 44 34.0007 44 34.0007 44H34.0007H34.0007H34.0007C34.0007 44 34.0007 44 34.0007 44C34.0007 44 34.0007 44 34.0007 44C34.0007 44 34.0007 44 34.0007 44C34.0007 44 34.0007 44 34.0007 44C34.0007 44 34.0007 44 34.0007 44H34.0007H34.0007H34.0007C34.0007 44 34.0007 44 34.0007 44C34.0007 44 34.0007 44 34.0007 44C34.0007 44 34.0007 44 34.0007 44C34.0007 44 34.0007 44 34.0007 44C34.0007 44 34.0007 44 34.0007 44C34.0007 44 34.0007 44 34.0007 44H34.0007H34.0007C34.0007 44 34.0007 44 34.0007 44C34.0007 44 34.0007 44 34.0007 44C34.0007 44 34.0007 44 34.0006 44C34.0006 44 34.0006 44 34.0006 44C34.0006 44 34.0006 44 34.0006 44C34.0006 44 34.0006 44 34.0006 44H34.0006H34.0006H34.0006C34.0006 44 34.0006 44 34.0006 44C34.0006 44 34.0006 44 34.0006 44C34.0006 44 34.0006 44 34.0006 44C34.0006 44 34.0006 44 34.0006 44C34.0006 44 34.0006 44 34.0006 44H34.0006H34.0006H34.0006C34.0006 44 34.0006 44 34.0006 44C34.0006 44 34.0006 44 34.0006 44C34.0006 44 34.0006 44 34.0006 44C34.0006 44 34.0006 44 34.0006 44C34.0006 44 34.0006 44 34.0006 44C34.0006 44 34.0006 44 34.0006 44H34.0006H34.0006C34.0006 44 34.0006 44 34.0006 44C34.0006 44 34.0006 44 34.0006 44C34.0006 44 34.0006 44 34.0006 44C34.0005 44 34.0005 44 34.0005 44C34.0005 44 34.0005 44 34.0005 44C34.0005 44 34.0005 44 34.0005 44H34.0005H34.0005H34.0005C34.0005 44 34.0005 44 34.0005 44C34.0005 44 34.0005 44 34.0005 44C34.0005 44 34.0005 44 34.0005 44C34.0005 44 34.0005 44 34.0005 44C34.0005 44 34.0005 44 34.0005 44H34.0005H34.0005H34.0005C34.0005 44 34.0005 44 34.0005 44C34.0005 44 34.0005 44 34.0005 44C34.0005 44 34.0005 44 34.0005 44C34.0005 44 34.0005 44 34.0005 44C34.0005 44 34.0005 44 34.0005 44C34.0005 44 34.0005 44 34.0005 44H34.0005H34.0005H34.0005C34.0005 44 34.0005 44 34.0005 44C34.0005 44 34.0005 44 34.0005 44C34.0005 44 34.0005 44 34.0005 44C34.0005 44 34.0005 44 34.0005 44C34.0004 44 34.0004 44 34.0004 44H34.0004H34.0004H34.0004C34.0004 44 34.0004 44 34.0004 44C34.0004 44 34.0004 44 34.0004 44C34.0004 44 34.0004 44 34.0004 44C34.0004 44 34.0004 44 34.0004 44C34.0004 44 34.0004 44 34.0004 44C34.0004 44 34.0004 44 34.0004 44H34.0004H34.0004H34.0004C34.0004 44 34.0004 44 34.0004 44C34.0004 44 34.0004 44 34.0004 44C34.0004 44 34.0004 44 34.0004 44C34.0004 44 34.0004 44 34.0004 44C34.0004 44 34.0004 44 34.0004 44C34.0004 44 34.0004 44 34.0004 44H34.0004H34.0004H34.0004C34.0004 44 34.0004 44 34.0004 44C34.0004 44 34.0004 44 34.0004 44C34.0004 44 34.0004 44 34.0004 44C34.0004 44 34.0004 44 34.0004 44C34.0003 44 34.0003 44 34.0003 44H34.0003H34.0003H34.0003C34.0003 44 34.0003 44 34.0003 44C34.0003 44 34.0003 44 34.0003 44C34.0003 44 34.0003 44 34.0003 44C34.0003 44 34.0003 44 34.0003 44C34.0003 44 34.0003 44 34.0003 44C34.0003 44 34.0003 44 34.0003 44H34.0003H34.0003H34.0003C34.0003 44 34.0003 44 34.0003 44C34.0003 44 34.0003 44 34.0003 44C34.0003 44 34.0003 44 34.0003 44C34.0003 44 34.0003 44 34.0003 44C34.0003 44 34.0003 44 34.0003 44C34.0003 44 34.0003 44 34.0003 44H34.0003H34.0003C34.0003 44 34.0003 44 34.0003 44C34.0003 44 34.0003 44 34.0003 44C34.0003 44 34.0003 44 34.0003 44C34.0003 44 34.0003 44 34.0003 44C34.0003 44 34.0003 44 34.0003 44C34.0002 44 34.0002 44 34.0002 44H34.0002H34.0002H34.0002C34.0002 44 34.0002 44 34.0002 44C34.0002 44 34.0002 44 34.0002 44C34.0002 44 34.0002 44 34.0002 44C34.0002 44 34.0002 44 34.0002 44C34.0002 44 34.0002 44 34.0002 44C34.0002 44 34.0002 44 34.0002 44H34.0002H34.0002H34.0002C34.0002 44 34.0002 44 34.0002 44C34.0002 44 34.0002 44 34.0002 44C34.0002 44 34.0002 44 34.0002 44C34.0002 44 34.0002 44 34.0002 44C34.0002 44 34.0002 44 34.0002 44H34.0002H34.0002H34.0002C34.0002 44 34.0002 44 34.0002 44C34.0002 44 34.0002 44 34.0002 44C34.0002 44 34.0002 44 34.0002 44C34.0002 44 34.0002 44 34.0002 44C34.0002 44 34.0002 44 34.0002 44C34.0001 44 34.0001 44 34.0001 44H34.0001H34.0001H34.0001C34.0001 44 34.0001 44 34.0001 44C34.0001 44 34.0001 44 34.0001 44C34.0001 44 34.0001 44 34.0001 44C34.0001 44 34.0001 44 34.0001 44C34.0001 44 34.0001 44 34.0001 44C34.0001 44 34.0001 44 34.0001 44H34.0001H34.0001C34.0001 44 34.0001 44 34.0001 44C34.0001 44 34.0001 44 34.0001 44C34.0001 44 34.0001 44 34.0001 44C34.0001 44 34.0001 44 34.0001 44C34.0001 44 34.0001 44 34.0001 44C34.0001 44 34.0001 44 34.0001 44H34.0001H34.0001H34.0001C34.0001 44 34.0001 44 34.0001 44C34.0001 44 34.0001 44 34.0001 44C34.0001 44 34.0001 44 34.0001 44C34.0001 44 34.0001 44 34.0001 44C34.0001 44 34.0001 44 34.0001 44C34 44 34 44 34 44H34H34C34 44 34 44 34 44C34 44 34 44 34 44C34 44 34 44 34 44C34 44 34 44 34 44C34 44 34 44 34 44C34 44 34 44 34 44H34H34H34C34 44 34 44 34 44C34 44 34 44 34 44H34V48H34C34 48 34 48 34 48C34 48 34 48 34 48H34H34H34C34 48 34 48 34 48C34 48 34 48 34 48C34 48 34 48 34 48C34 48 34 48 34 48C34 48 34 48 34 48C34 48 34 48 34 48H34H34C34 48 34 48 34.0001 48C34.0001 48 34.0001 48 34.0001 48C34.0001 48 34.0001 48 34.0001 48C34.0001 48 34.0001 48 34.0001 48C34.0001 48 34.0001 48 34.0001 48C34.0001 48 34.0001 48 34.0001 48H34.0001H34.0001H34.0001C34.0001 48 34.0001 48 34.0001 48C34.0001 48 34.0001 48 34.0001 48C34.0001 48 34.0001 48 34.0001 48C34.0001 48 34.0001 48 34.0001 48C34.0001 48 34.0001 48 34.0001 48C34.0001 48 34.0001 48 34.0001 48H34.0001H34.0001C34.0001 48 34.0001 48 34.0001 48C34.0001 48 34.0001 48 34.0001 48C34.0001 48 34.0001 48 34.0001 48C34.0001 48 34.0001 48 34.0001 48C34.0001 48 34.0001 48 34.0001 48C34.0001 48 34.0001 48 34.0001 48H34.0001H34.0001H34.0001C34.0001 48 34.0001 48 34.0002 48C34.0002 48 34.0002 48 34.0002 48C34.0002 48 34.0002 48 34.0002 48C34.0002 48 34.0002 48 34.0002 48C34.0002 48 34.0002 48 34.0002 48C34.0002 48 34.0002 48 34.0002 48H34.0002H34.0002H34.0002C34.0002 48 34.0002 48 34.0002 48C34.0002 48 34.0002 48 34.0002 48C34.0002 48 34.0002 48 34.0002 48C34.0002 48 34.0002 48 34.0002 48C34.0002 48 34.0002 48 34.0002 48H34.0002H34.0002H34.0002C34.0002 48 34.0002 48 34.0002 48C34.0002 48 34.0002 48 34.0002 48C34.0002 48 34.0002 48 34.0002 48C34.0002 48 34.0002 48 34.0002 48C34.0002 48 34.0002 48 34.0002 48C34.0002 48 34.0002 48 34.0002 48H34.0002H34.0002H34.0002C34.0002 48 34.0002 48 34.0003 48C34.0003 48 34.0003 48 34.0003 48C34.0003 48 34.0003 48 34.0003 48C34.0003 48 34.0003 48 34.0003 48C34.0003 48 34.0003 48 34.0003 48C34.0003 48 34.0003 48 34.0003 48H34.0003H34.0003C34.0003 48 34.0003 48 34.0003 48C34.0003 48 34.0003 48 34.0003 48C34.0003 48 34.0003 48 34.0003 48C34.0003 48 34.0003 48 34.0003 48C34.0003 48 34.0003 48 34.0003 48C34.0003 48 34.0003 48 34.0003 48H34.0003H34.0003H34.0003C34.0003 48 34.0003 48 34.0003 48C34.0003 48 34.0003 48 34.0003 48C34.0003 48 34.0003 48 34.0003 48C34.0003 48 34.0003 48 34.0003 48C34.0003 48 34.0003 48 34.0003 48C34.0003 48 34.0003 48 34.0003 48H34.0003H34.0003H34.0003C34.0003 48 34.0003 48 34.0004 48C34.0004 48 34.0004 48 34.0004 48C34.0004 48 34.0004 48 34.0004 48C34.0004 48 34.0004 48 34.0004 48C34.0004 48 34.0004 48 34.0004 48H34.0004H34.0004H34.0004C34.0004 48 34.0004 48 34.0004 48C34.0004 48 34.0004 48 34.0004 48C34.0004 48 34.0004 48 34.0004 48C34.0004 48 34.0004 48 34.0004 48C34.0004 48 34.0004 48 34.0004 48C34.0004 48 34.0004 48 34.0004 48H34.0004H34.0004H34.0004C34.0004 48 34.0004 48 34.0004 48C34.0004 48 34.0004 48 34.0004 48C34.0004 48 34.0004 48 34.0004 48C34.0004 48 34.0004 48 34.0004 48C34.0004 48 34.0004 48 34.0004 48C34.0004 48 34.0004 48 34.0004 48H34.0004H34.0004H34.0004C34.0004 48 34.0004 48 34.0005 48C34.0005 48 34.0005 48 34.0005 48C34.0005 48 34.0005 48 34.0005 48C34.0005 48 34.0005 48 34.0005 48C34.0005 48 34.0005 48 34.0005 48H34.0005H34.0005H34.0005C34.0005 48 34.0005 48 34.0005 48C34.0005 48 34.0005 48 34.0005 48C34.0005 48 34.0005 48 34.0005 48C34.0005 48 34.0005 48 34.0005 48C34.0005 48 34.0005 48 34.0005 48C34.0005 48 34.0005 48 34.0005 48H34.0005H34.0005H34.0005C34.0005 48 34.0005 48 34.0005 48C34.0005 48 34.0005 48 34.0005 48C34.0005 48 34.0005 48 34.0005 48C34.0005 48 34.0005 48 34.0005 48C34.0005 48 34.0005 48 34.0005 48H34.0005H34.0005H34.0005C34.0005 48 34.0005 48 34.0005 48C34.0005 48 34.0005 48 34.0005 48C34.0005 48 34.0005 48 34.0006 48C34.0006 48 34.0006 48 34.0006 48C34.0006 48 34.0006 48 34.0006 48C34.0006 48 34.0006 48 34.0006 48H34.0006H34.0006C34.0006 48 34.0006 48 34.0006 48C34.0006 48 34.0006 48 34.0006 48C34.0006 48 34.0006 48 34.0006 48C34.0006 48 34.0006 48 34.0006 48C34.0006 48 34.0006 48 34.0006 48C34.0006 48 34.0006 48 34.0006 48H34.0006H34.0006H34.0006C34.0006 48 34.0006 48 34.0006 48C34.0006 48 34.0006 48 34.0006 48C34.0006 48 34.0006 48 34.0006 48C34.0006 48 34.0006 48 34.0006 48C34.0006 48 34.0006 48 34.0006 48H34.0006H34.0006H34.0006C34.0006 48 34.0006 48 34.0006 48C34.0006 48 34.0006 48 34.0006 48C34.0006 48 34.0006 48 34.0006 48C34.0007 48 34.0007 48 34.0007 48C34.0007 48 34.0007 48 34.0007 48C34.0007 48 34.0007 48 34.0007 48H34.0007H34.0007C34.0007 48 34.0007 48 34.0007 48C34.0007 48 34.0007 48 34.0007 48C34.0007 48 34.0007 48 34.0007 48C34.0007 48 34.0007 48 34.0007 48C34.0007 48 34.0007 48 34.0007 48C34.0007 48 34.0007 48 34.0007 48H34.0007H34.0007H34.0007C34.0007 48 34.0007 48 34.0007 48C34.0007 48 34.0007 48 34.0007 48C34.0007 48 34.0007 48 34.0007 48C34.0007 48 34.0007 48 34.0007 48C34.0007 48 34.0007 48 34.0007 48H34.0007H34.0007H34.0007C34.0007 48 34.0007 48 34.0007 48C34.0007 48 34.0007 48 34.0007 48C34.0007 48 34.0007 48 34.0007 48C34.0007 48 34.0007 48 34.0007 48C34.0008 48 34.0008 48 34.0008 48H34.0008H34.0008H34.0008C34.0008 48 34.0008 48 34.0008 48C34.0008 48 34.0008 48 34.0008 48C34.0008 48 34.0008 48 34.0008 48C34.0008 48 34.0008 48 34.0008 48C34.0008 48 34.0008 48 34.0008 48H34.0008H34.0008H34.0008C34.0008 48 34.0008 48 34.0008 48C34.0008 48 34.0008 48 34.0008 48C34.0008 48 34.0008 48 34.0008 48C34.0008 48 34.0008 48 34.0008 48C34.0008 48 34.0008 48 34.0008 48H34.0008H34.0008C34.0008 48 34.0008 48 34.0008 48C34.0008 48 34.0008 48 34.0008 48C34.0008 48 34.0008 48 34.0008 48C34.0008 48 34.0008 48 34.0008 48C34.0008 48 34.0008 48 34.0008 48C34.0008 48 34.0008 48 34.0008 48H34.0008H34.0009C34.0009 48 34.0009 48 34.0009 48C34.0009 48 34.0009 48 34.0009 48C34.0009 48 34.0009 48 34.0009 48C34.0009 48 34.0009 48 34.0009 48C34.0009 48 34.0009 48 34.0009 48H34.0009H34.0009H34.0009C34.0009 48 34.0009 48 34.0009 48C34.0009 48 34.0009 48 34.0009 48C34.0009 48 34.0009 48 34.0009 48C34.0009 48 34.0009 48 34.0009 48C34.0009 48 34.0009 48 34.0009 48H34.0009H34.0009C34.0009 48 34.0009 48 34.0009 48C34.0009 48 34.0009 48 34.0009 48C34.0009 48 34.0009 48 34.0009 48V44ZM34.5 44H34.0009V48H34.5V44ZM37 41.5C37 42.8807 35.8807 44 34.5 44V48C38.0899 48 41 45.0899 41 41.5H37ZM36.9964 41.363C36.9988 41.4082 37 41.4538 37 41.5H41C41 41.3828 40.9969 41.2662 40.9907 41.1502L36.9964 41.363ZM37 41C37 41.0524 36.9987 41.1043 36.9961 41.1557L40.991 41.3575C40.997 41.239 41 41.1198 41 41H37ZM37 33.5V41H41V33.5H37ZM41.5 34C41.2239 34 41 33.7761 41 33.5H37C37 35.9853 39.0147 38 41.5 38V34ZM42 33.5C42 33.7761 41.7761 34 41.5 34V38C43.9853 38 46 35.9853 46 33.5H42ZM42 13.5V33.5H46V13.5H42ZM41.5 13C41.7761 13 42 13.2239 42 13.5H46C46 11.0147 43.9853 9 41.5 9V13ZM41 13.5C41 13.2239 41.2239 13 41.5 13V9C39.0147 9 37 11.0147 37 13.5H41ZM37 7V13.5H41V7H37Z" fill="#D0112B" mask="url(#path-1-outside-1)"/>
	<rect x="39" y="1.5" width="45" height="32" rx="5" transform="rotate(90 39 1.5)" fill="#00A3FF"/>
	<rect x="44" y="11.5" width="25" height="5" rx="2.5" transform="rotate(90 44 11.5)" fill="black"/>
	<rect x="7" y="11.5" width="25" height="5" rx="2.5" transform="rotate(90 7 11.5)" fill="black"/>
	<rect x="39" y="46.5" width="32" height="9" rx="4.5" transform="rotate(-180 39 46.5)" fill="black"/>
	<path d="M12 40.5C12 37.7386 14.2386 35.5 17 35.5L29 35.5C31.7614 35.5 34 37.7386 34 40.5L12 40.5Z" fill="white"/>
</svg>