<svg width="59" height="70" viewBox="0 0 59 70" fill="none" xmlns="http://www.w3.org/2000/svg">
	<mask id="path-1-outside-1" maskUnits="userSpaceOnUse" x="-2.97237e-06" y="-2.49155e-06" width="59" height="70" fill="black">
		<rect fill="white" x="-2.97237e-06" y="-2.49155e-06" width="59" height="70"/>
		<path fill-rule="evenodd" clip-rule="evenodd" d="M52 68C54.7614 68 57 65.7614 57 63L57 59C57 58.9981 57 58.9961 57 58.9942L57 20C57 17.2386 54.7614 15 52 15L51 15C48.2386 15 46 17.2386 46 20L46 54L13 54L13 20C13 17.2386 10.7614 15 8 15L7 15C4.23857 15 2 17.2386 2 20L2 59L2 61C2 61.0021 2 61.0042 2 61.0062L2 63C2 65.7614 4.23858 68 7 68L52 68ZM39 2C41.7614 2 44 4.23858 44 7L44 24C44 26.7614 41.7614 29 39 29L20 29C17.2386 29 15 26.7614 15 24L15 7C15 4.23858 17.2386 2 20 2L39 2ZM19.6756 34.662C18.9056 34.662 18.3876 34.06 18.3876 33.402C18.3876 32.674 18.9336 32.156 19.7736 32.156C20.6136 32.156 21.2016 32.604 21.2016 33.402C21.2016 34.06 20.6836 34.662 19.9416 34.662L19.6756 34.662ZM19.9416 36.272C20.7956 36.272 21.4676 36.748 21.4816 37.658C21.4956 38.442 20.9496 39.044 19.7876 39.044C18.7376 39.044 18.1216 38.428 18.1216 37.658C18.1216 36.79 18.8776 36.272 19.7036 36.272L19.9416 36.272ZM19.8016 40.654C21.7056 40.654 23.1896 39.632 23.1896 37.826C23.1896 36.552 22.3776 35.67 21.4116 35.474L21.4116 35.432C22.3636 35.026 22.9236 34.074 22.9236 33.122C22.9236 31.582 21.5236 30.546 19.7876 30.546C18.0656 30.546 16.6796 31.582 16.6796 33.122C16.6796 34.27 17.3236 35.124 18.0796 35.446L18.0796 35.488C17.1276 35.81 16.3996 36.706 16.3996 37.966C16.3996 39.632 17.8976 40.654 19.8016 40.654ZM28.0701 34.662C27.3001 34.662 26.7821 34.06 26.7821 33.402C26.7821 32.674 27.3281 32.156 28.1681 32.156C29.0081 32.156 29.5961 32.604 29.5961 33.402C29.5961 34.06 29.0781 34.662 28.3361 34.662L28.0701 34.662ZM28.3361 36.272C29.1901 36.272 29.8621 36.748 29.8761 37.658C29.8901 38.442 29.3441 39.044 28.1821 39.044C27.1321 39.044 26.5161 38.428 26.5161 37.658C26.5161 36.79 27.2721 36.272 28.0981 36.272L28.3361 36.272ZM28.1961 40.654C30.1001 40.654 31.5841 39.632 31.5841 37.826C31.5841 36.552 30.7721 35.67 29.8061 35.474L29.8061 35.432C30.7581 35.026 31.3181 34.074 31.3181 33.122C31.3181 31.582 29.9181 30.546 28.1821 30.546C26.4601 30.546 25.0741 31.582 25.0741 33.122C25.0741 34.27 25.7181 35.124 26.4741 35.446L26.4741 35.488C25.5221 35.81 24.7941 36.706 24.7941 37.966C24.7941 39.632 26.2921 40.654 28.1961 40.654ZM32.4886 40.5L34.2246 40.5L35.2466 37.994L39.4326 37.994L40.4546 40.5L42.2886 40.5L38.1446 30.672L36.6326 30.672L32.4886 40.5ZM37.3466 32.898L38.7746 36.384L35.9046 36.384L37.3466 32.898Z"/>
	</mask>
	<path fill-rule="evenodd" clip-rule="evenodd" d="M52 68C54.7614 68 57 65.7614 57 63L57 59C57 58.9981 57 58.9961 57 58.9942L57 20C57 17.2386 54.7614 15 52 15L51 15C48.2386 15 46 17.2386 46 20L46 54L13 54L13 20C13 17.2386 10.7614 15 8 15L7 15C4.23857 15 2 17.2386 2 20L2 59L2 61C2 61.0021 2 61.0042 2 61.0062L2 63C2 65.7614 4.23858 68 7 68L52 68ZM39 2C41.7614 2 44 4.23858 44 7L44 24C44 26.7614 41.7614 29 39 29L20 29C17.2386 29 15 26.7614 15 24L15 7C15 4.23858 17.2386 2 20 2L39 2ZM19.6756 34.662C18.9056 34.662 18.3876 34.06 18.3876 33.402C18.3876 32.674 18.9336 32.156 19.7736 32.156C20.6136 32.156 21.2016 32.604 21.2016 33.402C21.2016 34.06 20.6836 34.662 19.9416 34.662L19.6756 34.662ZM19.9416 36.272C20.7956 36.272 21.4676 36.748 21.4816 37.658C21.4956 38.442 20.9496 39.044 19.7876 39.044C18.7376 39.044 18.1216 38.428 18.1216 37.658C18.1216 36.79 18.8776 36.272 19.7036 36.272L19.9416 36.272ZM19.8016 40.654C21.7056 40.654 23.1896 39.632 23.1896 37.826C23.1896 36.552 22.3776 35.67 21.4116 35.474L21.4116 35.432C22.3636 35.026 22.9236 34.074 22.9236 33.122C22.9236 31.582 21.5236 30.546 19.7876 30.546C18.0656 30.546 16.6796 31.582 16.6796 33.122C16.6796 34.27 17.3236 35.124 18.0796 35.446L18.0796 35.488C17.1276 35.81 16.3996 36.706 16.3996 37.966C16.3996 39.632 17.8976 40.654 19.8016 40.654ZM28.0701 34.662C27.3001 34.662 26.7821 34.06 26.7821 33.402C26.7821 32.674 27.3281 32.156 28.1681 32.156C29.0081 32.156 29.5961 32.604 29.5961 33.402C29.5961 34.06 29.0781 34.662 28.3361 34.662L28.0701 34.662ZM28.3361 36.272C29.1901 36.272 29.8621 36.748 29.8761 37.658C29.8901 38.442 29.3441 39.044 28.1821 39.044C27.1321 39.044 26.5161 38.428 26.5161 37.658C26.5161 36.79 27.2721 36.272 28.0981 36.272L28.3361 36.272ZM28.1961 40.654C30.1001 40.654 31.5841 39.632 31.5841 37.826C31.5841 36.552 30.7721 35.67 29.8061 35.474L29.8061 35.432C30.7581 35.026 31.3181 34.074 31.3181 33.122C31.3181 31.582 29.9181 30.546 28.1821 30.546C26.4601 30.546 25.0741 31.582 25.0741 33.122C25.0741 34.27 25.7181 35.124 26.4741 35.446L26.4741 35.488C25.5221 35.81 24.7941 36.706 24.7941 37.966C24.7941 39.632 26.2921 40.654 28.1961 40.654ZM32.4886 40.5L34.2246 40.5L35.2466 37.994L39.4326 37.994L40.4546 40.5L42.2886 40.5L38.1446 30.672L36.6326 30.672L32.4886 40.5ZM37.3466 32.898L38.7746 36.384L35.9046 36.384L37.3466 32.898Z" fill="#9A1628"/>
	<path d="M57 63L59 63L57 63ZM52 68L52 66L52 68ZM57 59L59 59L57 59ZM57 58.9942L55 58.9942L55 58.9965L57 58.9942ZM46 20L48 20L46 20ZM46 54L46 56L48 56L48 54L46 54ZM13 54L11 54L11 56L13 56L13 54ZM8 15L8 13L8 15ZM7 15L7 17L7 15ZM2 20L-7.86805e-07 20L2 20ZM2 59L4 59L4 59L2 59ZM2 61L-2.57897e-06 61L-2.57897e-06 61L2 61ZM7 68L7 70L7 68ZM21.4816 37.658L19.4818 37.6888L19.4819 37.6937L21.4816 37.658ZM21.4116 35.474L19.4116 35.474L19.4116 37.109L21.0139 37.4341L21.4116 35.474ZM21.4116 35.432L20.627 33.5923L19.4116 34.1107L19.4116 35.432L21.4116 35.432ZM18.0796 35.446L20.0796 35.446L20.0796 34.124L18.8633 33.606L18.0796 35.446ZM18.0796 35.488L18.7204 37.3826L20.0796 36.9228L20.0796 35.488L18.0796 35.488ZM29.8761 37.658L27.8763 37.6888L27.8764 37.6937L29.8761 37.658ZM28.1961 40.654L28.1961 38.654L28.1961 38.654L28.1961 40.654ZM29.8061 35.474L27.8061 35.474L27.8061 37.1089L29.4084 37.4341L29.8061 35.474ZM29.8061 35.432L29.0215 33.5923L27.8061 34.1107L27.8061 35.432L29.8061 35.432ZM26.4741 35.446L28.4741 35.446L28.4741 34.124L27.2578 33.6059L26.4741 35.446ZM26.4741 35.488L27.1149 37.3826L28.4741 36.9228L28.4741 35.488L26.4741 35.488ZM34.2246 40.5L34.2246 42.5L35.5689 42.5L36.0765 41.2552L34.2246 40.5ZM32.4886 40.5L30.6458 39.7229L29.4748 42.5L32.4886 42.5L32.4886 40.5ZM35.2466 37.994L35.2466 35.994L33.9023 35.994L33.3947 37.2387L35.2466 37.994ZM39.4326 37.994L41.2845 37.2387L40.7769 35.994L39.4326 35.994L39.4326 37.994ZM40.4546 40.5L38.6027 41.2553L39.1103 42.5L40.4546 42.5L40.4546 40.5ZM42.2886 40.5L42.2886 42.5L45.3025 42.5L44.1315 39.7229L42.2886 40.5ZM38.1446 30.672L39.9875 29.8949L39.4718 28.672L38.1446 28.672L38.1446 30.672ZM36.6326 30.672L36.6326 28.672L35.3054 28.672L34.7897 29.8949L36.6326 30.672ZM38.7746 36.384L38.7746 38.384L41.7552 38.384L40.6254 35.6259L38.7746 36.384ZM37.3466 32.898L39.1974 32.1399L37.3556 27.6439L35.4985 32.1335L37.3466 32.898ZM35.9046 36.384L34.0565 35.6195L32.913 38.384L35.9046 38.384L35.9046 36.384ZM55 63C55 64.6569 53.6569 66 52 66L52 70C55.866 70 59 66.866 59 63L55 63ZM55 59L55 63L59 63L59 59L55 59ZM55 58.9965C55 58.9977 55 58.9988 55 59L59 59C59 58.9973 59 58.9946 59 58.992L55 58.9965ZM55 20L55 58.9942L59 58.9942L59 20L55 20ZM52 17C53.6569 17 55 18.3431 55 20L59 20C59 16.134 55.866 13 52 13L52 17ZM51 17L52 17L52 13L51 13L51 17ZM48 20C48 18.3431 49.3431 17 51 17L51 13C47.134 13 44 16.134 44 20L48 20ZM48 54L48 20L44 20L44 54L48 54ZM13 56L46 56L46 52L13 52L13 56ZM15 54L15 20L11 20L11 54L15 54ZM15 20C15 16.134 11.866 13 8 13L8 17C9.65686 17 11 18.3431 11 20L15 20ZM8 13L7 13L7 17L8 17L8 13ZM7 13C3.13401 13 -6.17817e-07 16.134 -7.86805e-07 20L4 20C4 18.3431 5.34314 17 7 17L7 13ZM-7.86805e-07 20L1.32315e-06 59L4 59L4 20L-7.86805e-07 20ZM1.32315e-06 59L-2.57897e-06 61L4 61L4 59L1.32315e-06 59ZM-2.57897e-06 61C-2.57906e-06 61.0021 1.23555e-06 61.0041 1.23551e-06 61.005C1.23546e-06 61.0062 1.23545e-06 61.0063 1.23545e-06 61.0062L4 61.0062C4 61.0041 4 61.0022 4 61.0013C4 61.0001 4 61 4 61L-2.57897e-06 61ZM4 63L4 61.0062L1.23545e-06 61.0062L1.1483e-06 63L4 63ZM7 66C5.34315 66 4 64.6569 4 63L1.1483e-06 63C9.79315e-07 66.866 3.134 70 7 70L7 66ZM52 66L7 66L7 70L52 70L52 66ZM46 7C46 3.13401 42.866 -6.17817e-07 39 -7.86805e-07L39 4C40.6569 4 42 5.34315 42 7L46 7ZM46 24L46 7L42 7L42 24L46 24ZM39 31C42.866 31 46 27.866 46 24L42 24C42 25.6569 40.6569 27 39 27L39 31ZM20 31L39 31L39 27L20 27L20 31ZM13 24C13 27.866 16.134 31 20 31L20 27C18.3431 27 17 25.6569 17 24L13 24ZM13 7L13 24L17 24L17 7L13 7ZM20 -1.61732e-06C16.134 -1.78631e-06 13 3.13401 13 7L17 7C17 5.34314 18.3431 4 20 4L20 -1.61732e-06ZM39 -7.86805e-07L20 -1.61732e-06L20 4L39 4L39 -7.86805e-07ZM16.3876 33.402C16.3876 35.1066 17.7439 36.662 19.6756 36.662L19.6756 32.662C19.837 32.662 20.0313 32.7346 20.1785 32.8863C20.3121 33.0241 20.3876 33.2075 20.3876 33.402L16.3876 33.402ZM19.7736 30.156C18.9429 30.156 18.0875 30.4169 17.417 31.029C16.7337 31.6529 16.3876 32.5133 16.3876 33.402L20.3876 33.402C20.3876 33.5627 20.3144 33.8001 20.1141 33.983C19.9267 34.1541 19.7642 34.156 19.7736 34.156L19.7736 30.156ZM23.2016 33.402C23.2016 32.4704 22.8361 31.5762 22.0892 30.9486C21.3855 30.3573 20.5293 30.156 19.7736 30.156L19.7736 34.156C19.8578 34.156 19.7156 34.1787 19.5159 34.011C19.4132 33.9246 19.3252 33.8101 19.2677 33.68C19.2113 33.5527 19.2016 33.4506 19.2016 33.402L23.2016 33.402ZM19.9416 36.662C21.8741 36.662 23.2016 35.0766 23.2016 33.402L19.2016 33.402C19.2016 33.209 19.2755 33.0314 19.4033 32.8975C19.5439 32.7503 19.7454 32.662 19.9416 32.662L19.9416 36.662ZM19.6756 36.662L19.9416 36.662L19.9416 32.662L19.6756 32.662L19.6756 36.662ZM23.4813 37.6272C23.4662 36.6446 23.0723 35.7315 22.3145 35.0937C21.5969 34.4896 20.7225 34.272 19.9416 34.272L19.9416 38.272C20.0146 38.272 19.9032 38.2924 19.7386 38.1538C19.6536 38.0823 19.5812 37.9883 19.5338 37.8839C19.4874 37.7816 19.4821 37.7074 19.4818 37.6888L23.4813 37.6272ZM19.7876 41.044C20.6967 41.044 21.6523 40.8072 22.4031 40.1408C23.1826 39.449 23.4971 38.5094 23.4812 37.6223L19.4819 37.6937C19.4812 37.653 19.4871 37.5666 19.5319 37.4558C19.5786 37.3404 19.654 37.2325 19.748 37.1491C19.9388 36.9798 20.0405 37.044 19.7876 37.044L19.7876 41.044ZM16.1216 37.658C16.1216 38.6033 16.5122 39.5031 17.2418 40.1432C17.9587 40.7721 18.874 41.044 19.7876 41.044L19.7876 37.044C19.6511 37.044 19.7334 37.0079 19.8798 37.1363C19.9499 37.1978 20.0149 37.282 20.0604 37.3838C20.1055 37.4849 20.1216 37.5812 20.1216 37.658L16.1216 37.658ZM19.7036 34.272C18.1764 34.272 16.1216 35.3212 16.1216 37.658L20.1216 37.658C20.1216 37.7386 20.1023 37.8459 20.0478 37.9568C19.995 38.0645 19.9258 38.1414 19.8657 38.1903C19.8079 38.2374 19.7611 38.257 19.7384 38.2645C19.7154 38.2722 19.7041 38.272 19.7036 38.272L19.7036 34.272ZM19.9416 34.272L19.7036 34.272L19.7036 38.272L19.9416 38.272L19.9416 34.272ZM21.1896 37.826C21.1896 38.1209 21.0957 38.2484 20.9695 38.3481C20.7941 38.4867 20.4182 38.654 19.8016 38.654L19.8016 42.654C21.089 42.654 22.407 42.3103 23.4496 41.4864C24.5414 40.6236 25.1896 39.3371 25.1896 37.826L21.1896 37.826ZM21.0139 37.4341C21.0301 37.4374 21.0657 37.451 21.1017 37.496C21.1308 37.5323 21.1896 37.6264 21.1896 37.826L25.1896 37.826C25.1896 35.6355 23.7412 33.9059 21.8093 33.5139L21.0139 37.4341ZM19.4116 35.432L19.4116 35.474L23.4116 35.474L23.4116 35.432L19.4116 35.432ZM20.9236 33.122C20.9236 33.2109 20.8957 33.316 20.8363 33.4094C20.7802 33.4978 20.708 33.5578 20.627 33.5923L22.1961 37.2717C23.9373 36.5291 24.9236 34.8172 24.9236 33.122L20.9236 33.122ZM19.7876 32.546C20.273 32.546 20.5989 32.6922 20.7607 32.8211C20.8946 32.9276 20.9236 33.0145 20.9236 33.122L24.9236 33.122C24.9236 30.0765 22.1792 28.546 19.7876 28.546L19.7876 32.546ZM18.6796 33.122C18.6796 33.0067 18.712 32.9189 18.8408 32.8154C18.9969 32.6899 19.3132 32.546 19.7876 32.546L19.7876 28.546C17.3911 28.546 14.6796 30.0916 14.6796 33.122L18.6796 33.122ZM18.8633 33.606C18.8813 33.6136 18.6796 33.5087 18.6796 33.122L14.6796 33.122C14.6796 35.0313 15.7658 36.6344 17.2958 37.286L18.8633 33.606ZM20.0796 35.488L20.0796 35.446L16.0796 35.446L16.0796 35.488L20.0796 35.488ZM18.3996 37.966C18.3996 37.732 18.4632 37.6034 18.5105 37.5371C18.562 37.4649 18.6331 37.4121 18.7204 37.3826L17.4388 33.5934C15.6667 34.1928 14.3996 35.8565 14.3996 37.966L18.3996 37.966ZM19.8016 38.654C19.1851 38.654 18.7866 38.4862 18.5938 38.3402C18.4454 38.2278 18.3996 38.1297 18.3996 37.966L14.3996 37.966C14.3996 39.4683 15.1028 40.7142 16.1793 41.5293C17.2115 42.3108 18.514 42.654 19.8016 42.654L19.8016 38.654ZM24.7821 33.402C24.7821 35.1066 26.1384 36.662 28.0701 36.662L28.0701 32.662C28.2315 32.662 28.4258 32.7346 28.573 32.8863C28.7067 33.0241 28.7821 33.2075 28.7821 33.402L24.7821 33.402ZM28.1681 30.156C27.3374 30.156 26.482 30.4169 25.8116 31.029C25.1283 31.6529 24.7821 32.5133 24.7821 33.402L28.7821 33.402C28.7821 33.5627 28.7089 33.8001 28.5086 33.983C28.3212 34.1541 28.1588 34.156 28.1681 34.156L28.1681 30.156ZM31.5961 33.402C31.5961 32.4704 31.2306 31.5762 30.4837 30.9486C29.78 30.3573 28.9238 30.156 28.1681 30.156L28.1681 34.156C28.2523 34.156 28.1101 34.1787 27.9105 34.0109C27.8077 33.9246 27.7197 33.8101 27.6622 33.68C27.6058 33.5527 27.5961 33.4506 27.5961 33.402L31.5961 33.402ZM28.3361 36.662C30.2687 36.662 31.5961 35.0766 31.5961 33.402L27.5961 33.402C27.5961 33.209 27.6701 33.0314 27.7979 32.8975C27.9385 32.7503 28.1399 32.662 28.3361 32.662L28.3361 36.662ZM28.0701 36.662L28.3361 36.662L28.3361 32.662L28.0701 32.662L28.0701 36.662ZM31.8759 37.6272C31.8607 36.6446 31.4668 35.7315 30.7091 35.0937C29.9914 34.4896 29.117 34.272 28.3361 34.272L28.3361 38.272C28.4091 38.272 28.2978 38.2924 28.1331 38.1538C28.0481 38.0823 27.9757 37.9883 27.9284 37.8839C27.882 37.7816 27.8766 37.7074 27.8763 37.6888L31.8759 37.6272ZM28.1821 41.044C29.0912 41.044 30.0468 40.8072 30.7977 40.1408C31.5772 39.449 31.8916 38.5094 31.8758 37.6223L27.8764 37.6937C27.8757 37.653 27.8817 37.5666 27.9265 37.4558C27.9731 37.3404 28.0486 37.2326 28.1425 37.1492C28.3334 36.9798 28.435 37.044 28.1821 37.044L28.1821 41.044ZM24.5161 37.658C24.5161 38.6033 24.9067 39.5031 25.6364 40.1432C26.3532 40.7721 27.2686 41.044 28.1821 41.044L28.1821 37.044C28.0456 37.044 28.128 37.0079 28.2743 37.1363C28.3445 37.1978 28.4094 37.282 28.4549 37.3838C28.5001 37.4849 28.5161 37.5812 28.5161 37.658L24.5161 37.658ZM28.0981 34.272C26.5709 34.272 24.5161 35.3212 24.5161 37.658L28.5161 37.658C28.5161 37.7386 28.4968 37.8459 28.4424 37.9568C28.3895 38.0645 28.3203 38.1414 28.2603 38.1903C28.2024 38.2374 28.1556 38.257 28.1329 38.2645C28.1099 38.2722 28.0987 38.272 28.0981 38.272L28.0981 34.272ZM28.3361 34.272L28.0981 34.272L28.0981 38.272L28.3361 38.272L28.3361 34.272ZM29.5841 37.826C29.5841 38.1209 29.4902 38.2484 29.3641 38.3481C29.1887 38.4867 28.8127 38.654 28.1961 38.654L28.1961 42.654C29.4835 42.654 30.8015 42.3103 31.8441 41.4864C32.9359 40.6236 33.5841 39.3371 33.5841 37.826L29.5841 37.826ZM29.4084 37.4341C29.4246 37.4374 29.4602 37.451 29.4963 37.496C29.5254 37.5323 29.5841 37.6264 29.5841 37.826L33.5841 37.826C33.5841 35.6355 32.1357 33.9059 30.2038 33.5139L29.4084 37.4341ZM27.8061 35.432L27.8061 35.474L31.8061 35.474L31.8061 35.432L27.8061 35.432ZM29.3181 33.122C29.3181 33.2109 29.2902 33.316 29.2309 33.4094C29.1747 33.4978 29.1025 33.5578 29.0215 33.5923L30.5907 37.2717C32.3318 36.5291 33.3181 34.8172 33.3181 33.122L29.3181 33.122ZM28.1821 32.546C28.6675 32.546 28.9934 32.6922 29.1552 32.8211C29.2891 32.9277 29.3181 33.0145 29.3181 33.122L33.3181 33.122C33.3181 30.0765 30.5737 28.546 28.1821 28.546L28.1821 32.546ZM27.0741 33.122C27.0741 33.0067 27.1066 32.9189 27.2353 32.8154C27.3915 32.6899 27.7077 32.546 28.1821 32.546L28.1821 28.546C25.7856 28.546 23.0741 30.0916 23.0741 33.122L27.0741 33.122ZM27.2578 33.6059C27.2758 33.6136 27.0741 33.5087 27.0741 33.122L23.0741 33.122C23.0741 35.0313 24.1604 36.6344 25.6904 37.286L27.2578 33.6059ZM28.4741 35.488L28.4741 35.446L24.4741 35.446L24.4741 35.488L28.4741 35.488ZM26.7941 37.966C26.7941 37.732 26.8577 37.6034 26.905 37.5371C26.9565 37.4649 27.0276 37.4121 27.1149 37.3826L25.8333 33.5934C24.0612 34.1928 22.7941 35.8565 22.7941 37.966L26.7941 37.966ZM28.1961 38.654C27.5796 38.654 27.1811 38.4862 26.9884 38.3402C26.8399 38.2278 26.7941 38.1297 26.7941 37.966L22.7941 37.966C22.7941 39.4683 23.4973 40.7142 24.5738 41.5293C25.6061 42.3108 26.9085 42.654 28.1961 42.654L28.1961 38.654ZM34.2246 38.5L32.4886 38.5L32.4886 42.5L34.2246 42.5L34.2246 38.5ZM33.3947 37.2387L32.3727 39.7447L36.0765 41.2552L37.0985 38.7492L33.3947 37.2387ZM39.4326 35.994L35.2466 35.994L35.2466 39.994L39.4326 39.994L39.4326 35.994ZM42.3065 39.7447L41.2845 37.2387L37.5807 38.7493L38.6027 41.2553L42.3065 39.7447ZM42.2886 38.5L40.4546 38.5L40.4546 42.5L42.2886 42.5L42.2886 38.5ZM36.3017 31.4491L40.4457 41.2771L44.1315 39.7229L39.9875 29.8949L36.3017 31.4491ZM36.6326 32.672L38.1446 32.672L38.1446 28.672L36.6326 28.672L36.6326 32.672ZM34.3315 41.2771L38.4755 31.4491L34.7897 29.8949L30.6458 39.7229L34.3315 41.2771ZM40.6254 35.6259L39.1974 32.1399L35.4959 33.6561L36.9239 37.1421L40.6254 35.6259ZM35.9046 38.384L38.7746 38.384L38.7746 34.384L35.9046 34.384L35.9046 38.384ZM35.4985 32.1335L34.0565 35.6195L37.7527 37.1485L39.1947 33.6625L35.4985 32.1335Z" fill="#D0112B" mask="url(#path-1-outside-1)"/>
	<rect x="44" y="2" width="27" height="29" rx="5" transform="rotate(90 44 2)" fill="#9A1628"/>
	<rect x="52" y="20" width="45" height="47" rx="5" transform="rotate(90 52 20)" fill="#D0112B"/>
	<rect x="57" y="15" width="51" height="11" rx="5" transform="rotate(90 57 15)" fill="#9A1628"/>
	<rect x="13" y="15" width="51" height="11" rx="5" transform="rotate(90 13 15)" fill="#9A1628"/>
	<rect x="57" y="68" width="55" height="14" rx="5" transform="rotate(-180 57 68)" fill="#9A1628"/>
	<path d="M44 66L15 66L15 57C15 54.2386 17.2386 52 20 52L39 52C41.7614 52 44 54.2386 44 57L44 66Z" fill="white"/>
</svg>