<svg width="151" height="222" viewBox="0 0 151 222" fill="none" xmlns="http://www.w3.org/2000/svg">
	<path d="M113.293 174.232H48.8135V221.863H113.293V174.232Z" fill="#ADBABB"/>
	<path d="M19.5981 152.633L27.6439 27.4752C27.6439 27.4752 28.4998 12.754 51.2674 10.4805H108.9C108.9 10.4805 130.812 10.4805 130.526 34.58L137.716 150.587L19.5981 152.633Z" fill="#B8CBCC"/>
	<path d="M35.1758 150.076L41.1102 55.3261C41.1102 55.3261 41.7379 44.1858 58.5141 42.4238H100.911C100.911 42.4238 117.059 42.4238 116.831 60.669L122.081 148.484L35.1758 150.076Z" fill="#768889"/>
	<path d="M142.509 177.756H19.5978C17.8289 177.756 16.4023 176.335 16.4023 174.573V150.19C16.4023 148.428 17.8289 147.007 19.5978 147.007H142.509C144.278 147.007 145.704 148.428 145.704 150.19V174.573C145.704 176.335 144.278 177.756 142.509 177.756Z" fill="#768889"/>
	<path d="M107.131 29.7491H50.0688C48.6422 29.7491 47.501 28.6123 47.501 27.1914V3.09191C47.501 1.67095 48.6422 0.53418 50.0688 0.53418H107.131C108.557 0.53418 109.698 1.67095 109.698 3.09191V27.1914C109.698 28.6123 108.557 29.7491 107.131 29.7491Z" fill="#99A7A8"/>
	<path d="M105.59 20.3139H51.9519C49.5553 20.3139 47.5581 18.3814 47.5581 15.9374V2.80772C47.5581 1.55727 48.5852 0.53418 49.8406 0.53418H107.074C108.5 0.53418 109.698 1.72779 109.698 3.14875V16.2216C109.698 18.4951 107.872 20.3139 105.59 20.3139Z" fill="#768889"/>
	<path d="M129.727 158.488H21.8801C20.5676 158.488 19.5405 157.465 19.5405 156.158V149.394C19.5405 148.087 20.5676 147.063 21.8801 147.063H129.727C131.039 147.063 132.066 148.087 132.066 149.394V156.158C132.066 157.408 131.039 158.488 129.727 158.488Z" fill="#99A7A8"/>
	<path d="M145.533 123.191H129.898V159.738H145.533V123.191Z" fill="#768889"/>
	<path d="M148.9 125.465H126.018C125.105 125.465 124.363 124.726 124.363 123.817V116.03C124.363 115.121 125.105 114.382 126.018 114.382H148.9C149.813 114.382 150.555 115.121 150.555 116.03V123.817C150.555 124.726 149.813 125.465 148.9 125.465Z" fill="#99A7A8"/>
	<path d="M21.3097 123.191H5.6748V159.738H21.3097V123.191Z" fill="#768889"/>
	<path d="M24.8475 125.465H2.47924C1.45213 125.465 0.596191 124.613 0.596191 123.589V116.314C0.596191 115.291 1.45213 114.438 2.47924 114.438H24.8475C25.8746 114.438 26.7305 115.291 26.7305 116.314V123.589C26.7305 124.613 25.9316 125.465 24.8475 125.465Z" fill="#99A7A8"/>
</svg>