<svg width="138" height="206" viewBox="0 0 138 206" fill="none" xmlns="http://www.w3.org/2000/svg">
	<g opacity="0.5">
		<path d="M87.9967 161.7H52.0405V179.4H87.9967V161.7Z" fill="#A6A8AC"/>
		<path d="M106.941 179.4H32.9663V190.4H106.941V179.4Z" fill="#8A888A"/>
		<path d="M127.432 138.8L10.6714 139.2L12.6045 13.6004C12.7334 11.5004 15.182 9.90039 18.275 9.90039H115.576C119.055 9.90039 121.891 11.9004 121.891 14.3004L127.432 138.8Z" fill="#9A1628"/>
		<path d="M91.3473 122.6H43.9212C34.6422 122.6 27.0386 116.8 27.0386 109.5V34.1004C27.0386 20.7004 41.086 9.90039 58.3552 9.90039H79.8774C97.1466 9.90039 111.194 20.7004 111.194 34.2004V107.3C111.194 115.8 102.302 122.6 91.3473 122.6Z" fill="#D0112B"/>
		<path d="M124.339 139.2H13.6353L14.6663 122.6H125.37L124.339 139.2Z" fill="#B02336"/>
		<path d="M20.4658 138H0.361328V105.5C0.361328 102.8 3.19658 100.6 6.67621 100.6H14.4087C17.7595 100.6 20.5947 102.7 20.5947 105.4V138H20.4658Z" fill="#841222"/>
		<path d="M137.871 138H117.767V105.5C117.767 102.8 120.602 100.6 124.081 100.6H131.814C135.165 100.6 138 102.7 138 105.4V138H137.871Z" fill="#841222"/>
		<path d="M137.871 138H0.361328V161.7H137.871V138Z" fill="#9A1628"/>
		<path d="M105.652 45.9H32.5801C25.8786 45.9 20.4658 41.7 20.4658 36.5V12.9C20.4658 7.7 25.8786 3.5 32.5801 3.5H105.523C112.225 3.5 117.638 7.7 117.638 12.9V36.5C117.767 41.7 112.225 45.9 105.652 45.9Z" fill="#841222"/>
		<path d="M91.6046 36.8H46.6272C41.6011 36.8 37.4771 33.6 37.4771 29.7V7.1C37.4771 3.2 41.6011 0 46.6272 0H91.6046C96.6307 0 100.755 3.2 100.755 7.1V29.8C100.755 33.6 96.6307 36.8 91.6046 36.8Z" fill="#D0112B"/>
		<path d="M114.545 205.5H23.8166C16.4707 205.5 10.5425 200.8 10.5425 195.2V173.5C10.5425 167.8 16.5996 163.2 23.8166 163.2H114.545C121.891 163.2 127.819 167.9 127.819 173.5V195.2C127.819 200.8 121.762 205.5 114.545 205.5Z" fill="#620E1A"/>
		<path d="M114.545 198.7H23.8166C16.4707 198.7 10.5425 194 10.5425 188.4V166.7C10.5425 161 16.5996 156.4 23.8166 156.4H114.545C121.891 156.4 127.819 161.1 127.819 166.7V188.4C127.819 194 121.762 198.7 114.545 198.7Z" fill="#841222"/>
	</g>
</svg>