<svg width="138" height="206" viewBox="0 0 138 206" fill="none" xmlns="http://www.w3.org/2000/svg">
	<path d="M87.6354 161.7H51.6792V179.4H87.6354V161.7Z" fill="#A6A8AC"/>
	<path d="M106.579 179.4H32.605V190.4H106.579V179.4Z" fill="#8A888A"/>
	<path d="M127.071 138.8L10.3101 139.2L12.2432 13.6004C12.3721 11.5004 14.8207 9.90039 17.9137 9.90039H115.214C118.694 9.90039 121.529 11.9004 121.529 14.3004L127.071 138.8Z" fill="#9A1628"/>
	<path d="M90.9859 122.6H43.5599C34.2809 122.6 26.6772 116.8 26.6772 109.5V34.1004C26.6772 20.7004 40.7246 9.90039 57.9939 9.90039H79.516C96.7853 9.90039 110.833 20.7004 110.833 34.2004V107.3C110.833 115.8 101.94 122.6 90.9859 122.6Z" fill="#D0112B"/>
	<path d="M123.978 139.2H13.2739L14.3049 122.6H125.009L123.978 139.2Z" fill="#B02336"/>
	<path d="M20.1045 138H0V105.5C0 102.8 2.83525 100.6 6.31488 100.6H14.0474C17.3981 100.6 20.2334 102.7 20.2334 105.4V138H20.1045Z" fill="#841222"/>
	<path d="M137.51 138H117.405V105.5C117.405 102.8 120.241 100.6 123.72 100.6H131.453C134.803 100.6 137.639 102.7 137.639 105.4V138H137.51Z" fill="#841222"/>
	<path d="M137.51 138H0V161.7H137.51V138Z" fill="#9A1628"/>
	<path d="M105.291 45.9H32.2188C25.5172 45.9 20.1045 41.7 20.1045 36.5V12.9C20.1045 7.7 25.5172 3.5 32.2188 3.5H105.162C111.864 3.5 117.276 7.7 117.276 12.9V36.5C117.405 41.7 111.864 45.9 105.291 45.9Z" fill="#841222"/>
	<path d="M91.2433 36.8H46.2659C41.2397 36.8 37.1157 33.6 37.1157 29.7V7.1C37.1157 3.2 41.2397 0 46.2659 0H91.2433C96.2694 0 100.393 3.2 100.393 7.1V29.8C100.393 33.6 96.2694 36.8 91.2433 36.8Z" fill="#D0112B"/>
	<path d="M114.183 205.5H23.4553C16.1094 205.5 10.1812 200.8 10.1812 195.2V173.5C10.1812 167.8 16.2383 163.2 23.4553 163.2H114.183C121.529 163.2 127.458 167.9 127.458 173.5V195.2C127.458 200.8 121.4 205.5 114.183 205.5Z" fill="#620E1A"/>
	<path d="M114.183 198.7H23.4553C16.1094 198.7 10.1812 194 10.1812 188.4V166.7C10.1812 161 16.2383 156.4 23.4553 156.4H114.183C121.529 156.4 127.458 161.1 127.458 166.7V188.4C127.458 194 121.4 198.7 114.183 198.7Z" fill="#841222"/>
</svg>