<svg width="150" height="222" viewBox="0 0 150 222" fill="none" xmlns="http://www.w3.org/2000/svg">
	<path d="M108.705 174.232H44.2256V221.863H108.705V174.232Z" fill="#678688"/>
	<path d="M13.9834 152.633L22.0291 27.4752C22.0291 27.4752 22.885 12.754 45.6527 10.4805H103.285C103.285 10.4805 125.197 10.4805 124.912 34.58L132.101 150.587L13.9834 152.633Z" fill="#8FB9BC"/>
	<path d="M29.6182 150.076L35.4955 55.3261C35.4955 55.3261 36.1232 44.1858 52.8994 42.4238H95.2963C95.2963 42.4238 111.445 42.4238 111.217 60.669L116.466 148.484L29.6182 150.076Z" fill="#2D6467"/>
	<path d="M132.785 177.756H9.1896C7.42069 177.756 5.99414 176.335 5.99414 174.573V150.19C5.99414 148.428 7.42069 147.007 9.1896 147.007H132.785C134.554 147.007 135.981 148.428 135.981 150.19V174.573C135.981 176.335 134.554 177.756 132.785 177.756Z" fill="#2D6467"/>
	<path d="M101.573 29.7491H44.5111C43.0846 29.7491 41.9434 28.6124 41.9434 27.1914V3.09191C42.0004 1.67095 43.1417 0.53418 44.5111 0.53418H101.573C102.999 0.53418 104.141 1.67095 104.141 3.09191V27.1914C104.141 28.6124 102.999 29.7491 101.573 29.7491Z" fill="#3C7174"/>
	<path d="M99.9752 20.3139H46.3371C43.9405 20.3139 41.9434 18.3814 41.9434 15.9374V2.80772C41.9434 1.55727 42.9705 0.53418 44.2258 0.53418H101.459C102.885 0.53418 104.084 1.72779 104.084 3.14875V16.2216C104.141 18.4951 102.258 20.3139 99.9752 20.3139Z" fill="#2D6467"/>
	<path d="M129.761 158.488H19.2897C17.9773 158.488 16.9502 157.408 16.9502 156.157V149.45C16.9502 148.143 18.0344 147.12 19.2897 147.12H129.704C131.017 147.12 132.044 148.2 132.044 149.45V156.157C132.101 157.408 131.074 158.488 129.761 158.488Z" fill="#678688"/>
	<path d="M21.6291 123.191H5.99414V159.738H21.6291V123.191Z" fill="#2D6467"/>
	<path d="M25.1673 125.465H2.79905C1.77194 125.465 0.916016 124.613 0.916016 123.589V116.314C0.916016 115.291 1.77194 114.438 2.79905 114.438H25.1673C26.1944 114.438 27.0503 115.291 27.0503 116.314V123.589C27.0503 124.613 26.2515 125.465 25.1673 125.465Z" fill="#678688"/>
	<path d="M144.36 123.121H128.725V159.668H144.36V123.121Z" fill="#2D6467"/>
	<path d="M147.954 125.395H125.586C124.559 125.395 123.703 124.542 123.703 123.519V116.244C123.703 115.221 124.559 114.368 125.586 114.368H147.954C148.981 114.368 149.837 115.221 149.837 116.244V123.519C149.837 124.542 148.981 125.395 147.954 125.395Z" fill="#678688"/>
</svg>