<svg width="64" height="151" viewBox="0 0 64 151" fill="none" xmlns="http://www.w3.org/2000/svg">
	<rect x="64" width="151" height="64" rx="5" transform="rotate(90 64 0)" fill="#D9B389"/>
	<rect x="53.2271" y="94.1816" width="42.9545" height="44.8636" rx="5" transform="rotate(90 53.2271 94.1816)" fill="#D0112B"/>
	<path fill-rule="evenodd" clip-rule="evenodd" d="M53 140C55.7614 140 58 137.761 58 135L58 131.636C58 131.635 58 131.633 58 131.631L58 94.4092C58 91.6478 55.7614 89.4092 53 89.4092L52.5 89.4092C49.7386 89.4092 47.5 91.6478 47.5 94.4092L47.5 126.636L16 126.636L16 94.4092C16 91.6478 13.7614 89.4092 11 89.4092L10.5 89.4092C7.73857 89.4092 5.5 91.6478 5.5 94.4092L5.5 131.636L5.49999 133.091C5.49999 133.093 5.5 133.095 5.5 133.097L5.5 135C5.5 137.761 7.73857 140 10.5 140L53 140Z" fill="#9A1628"/>
	<path d="M45.5908 138.091L17.909 138.091L17.909 129.727C17.909 126.966 20.1476 124.727 22.909 124.727L40.5908 124.727C43.3522 124.727 45.5908 126.966 45.5908 129.727L45.5908 138.091Z" fill="white"/>
	<rect x="54" y="6" width="21" height="43" rx="5" transform="rotate(90 54 6)" fill="#9A1628"/>
	<rect x="54" y="28" width="10" height="43" rx="5" transform="rotate(90 54 28)" fill="#9A1628"/>
</svg>