<svg width="217" height="34" viewBox="0 0 217 34" fill="none" xmlns="http://www.w3.org/2000/svg">
<g clip-path="url(#clip0_5_13860)">
<path fill-rule="evenodd" clip-rule="evenodd" d="M111.74 27.08L117.16 15.83H117.26L123.25 27.08H129.42L121.46 12.54H116.25L109.07 27.08H111.74Z" fill="white"/>
<mask id="mask0_5_13860" style="mask-type:luminance" maskUnits="userSpaceOnUse" x="161" y="20" width="32" height="14">
<path d="M164.108 31.4879C174.651 23.634 180.311 20.5087 192.832 20.3916L190.13 24.1024C189.627 25.2012 188.832 25.1561 188.002 25.1021C179.049 25.0301 172.806 25.7056 161.927 33.7576L164.099 31.4789L164.108 31.4879Z" fill="white"/>
</mask>
<g mask="url(#mask0_5_13860)">
<mask id="mask1_5_13860" style="mask-type:luminance" maskUnits="userSpaceOnUse" x="155" y="4" width="45" height="46">
<path d="M176.301 4.68512L155.393 27.5555L178.454 49.4906L199.362 26.6202L176.301 4.68512Z" fill="white"/>
</mask>
<g mask="url(#mask1_5_13860)">
<path d="M175.855 -17.6959L133.49 28.6443L178.921 71.8572L221.286 25.517L175.855 -17.6959Z" fill="url(#paint0_linear_5_13860)"/>
</g>
</g>
<mask id="mask2_5_13860" style="mask-type:luminance" maskUnits="userSpaceOnUse" x="164" y="11" width="32" height="21">
<path d="M164.1 31.4784C174.705 21.499 183.561 17.0046 191.349 16.122C192.038 15.1943 194.413 12.078 195.137 11.0332C177.389 13.9874 169.539 26.2365 164.109 31.4694" fill="white"/>
</mask>
<g mask="url(#mask2_5_13860)">
<mask id="mask3_5_13860" style="mask-type:luminance" maskUnits="userSpaceOnUse" x="154" y="-4" width="51" height="51">
<path d="M174.315 -3.84323L154.689 24.746L184.931 46.3452L204.557 17.756L174.315 -3.84323Z" fill="white"/>
</mask>
<g mask="url(#mask3_5_13860)">
<path d="M171.086 -27.7246L131.566 29.8448L188.143 70.2536L227.663 12.6841L171.086 -27.7246Z" fill="url(#paint1_linear_5_13860)"/>
</g>
</g>
<mask id="mask4_5_13860" style="mask-type:luminance" maskUnits="userSpaceOnUse" x="163" y="16" width="29" height="17">
<path d="M164.646 30.9108C164.435 31.109 163.702 31.9196 163.499 32.1087C169.724 27.4252 174.933 22.5526 187.913 20.7513C188.558 20.0037 190.448 17.4728 191.339 16.1218C179.507 17.761 171.763 24.4981 164.646 30.9108Z" fill="white"/>
</mask>
<g mask="url(#mask4_5_13860)">
<mask id="mask5_5_13860" style="mask-type:luminance" maskUnits="userSpaceOnUse" x="155" y="1" width="45" height="46">
<path d="M176.434 1.96072L155.67 24.673L178.376 46.2702L199.14 23.5579L176.434 1.96072Z" fill="white"/>
</mask>
<g mask="url(#mask5_5_13860)">
<path d="M175.889 -20.1585L133.999 25.6613L178.926 68.3951L220.816 22.5753L175.889 -20.1585Z" fill="url(#paint2_linear_5_13860)"/>
</g>
</g>
<mask id="mask6_5_13860" style="mask-type:luminance" maskUnits="userSpaceOnUse" x="187" y="19" width="7" height="6">
<path d="M189.892 24.5433C190.007 24.138 190.289 23.8318 188.974 23.0392C187.428 22.1115 186.89 22.4988 187.234 21.5531C187.49 20.8325 190.81 19.4005 193.238 20.2471C193.238 20.2471 191.084 22.787 189.892 24.5433Z" fill="white"/>
</mask>
<g mask="url(#mask6_5_13860)">
<mask id="mask7_5_13860" style="mask-type:luminance" maskUnits="userSpaceOnUse" x="184" y="16" width="12" height="12">
<path d="M188.668 16.488L184.62 23.095L191.45 27.4478L195.497 20.8409L188.668 16.488Z" fill="white"/>
</mask>
<g mask="url(#mask7_5_13860)">
<path d="M187.674 11.5007L179.789 24.3709L192.445 32.437L200.329 19.5667L187.674 11.5007Z" fill="url(#paint3_linear_5_13860)"/>
</g>
</g>
<mask id="mask8_5_13860" style="mask-type:luminance" maskUnits="userSpaceOnUse" x="190" y="5" width="24" height="12">
<path d="M199.216 9.87162C196.788 10.2049 195.26 10.8173 194.289 12.0693L190.898 16.6987C191.64 16.0232 193.874 15.6899 196.293 15.6269H196.637C196.735 15.6269 196.841 15.6269 196.946 15.6269C197.291 15.6179 197.653 15.5999 198.033 15.5909C201.467 15.4558 206.227 14.9604 209.017 11.6549L213.185 5.77357L213.688 5.07104C210.068 9.93467 201.803 9.51135 199.233 9.86261" fill="white"/>
</mask>
<g mask="url(#mask8_5_13860)">
<mask id="mask9_5_13860" style="mask-type:luminance" maskUnits="userSpaceOnUse" x="185" y="-7" width="35" height="35">
<path d="M199.578 -6.21905L185.356 12.2555L204.975 27.9693L219.198 9.49475L199.578 -6.21905Z" fill="white"/>
</mask>
<g mask="url(#mask9_5_13860)">
<path d="M198.261 -22.9857L169.07 14.9339L206.287 44.7428L235.479 6.82322L198.261 -22.9857Z" fill="url(#paint4_linear_5_13860)"/>
</g>
</g>
<mask id="mask10_5_13860" style="mask-type:luminance" maskUnits="userSpaceOnUse" x="194" y="0" width="23" height="12">
<path d="M205.441 4.50335C204.382 4.64746 201.989 4.61143 200.002 5.9084C198.007 7.20536 195.614 10.2767 194.43 11.8979C195.525 10.7 196.982 10.3667 199.119 10.1145C201.256 9.86234 204.338 9.90737 206.528 9.61015C208.629 9.32194 210.589 8.88962 213.309 5.07978L217 0C213.176 3.86388 209 4.026 205.441 4.51236" fill="white"/>
</mask>
<g mask="url(#mask10_5_13860)">
<mask id="mask11_5_13860" style="mask-type:luminance" maskUnits="userSpaceOnUse" x="188" y="-12" width="35" height="36">
<path d="M203.04 -11.1837L188.764 7.36169L208.39 23.0811L222.666 4.53564L203.04 -11.1837Z" fill="white"/>
</mask>
<g mask="url(#mask11_5_13860)">
<path d="M201.687 -27.9814L172.441 10.0091L209.727 39.8736L238.973 1.88316L201.687 -27.9814Z" fill="url(#paint5_linear_5_13860)"/>
</g>
</g>
<mask id="mask12_5_13860" style="mask-type:luminance" maskUnits="userSpaceOnUse" x="187" y="11" width="23" height="11">
<path d="M201.229 15.0145C198.625 15.3837 195.649 15.4918 194.792 15.5369C193.335 15.5999 191.393 16.0773 190.854 16.7437C189.221 18.8153 187.649 20.7517 187.225 21.5533C188.223 20.6076 191.516 20.7157 195.508 20.5266C199.49 20.3464 203.525 18.5811 206.713 14.8794L209.132 11.4658C207.516 13.5824 204.655 14.5281 201.229 15.0145Z" fill="white"/>
</mask>
<g mask="url(#mask12_5_13860)">
<mask id="mask13_5_13860" style="mask-type:luminance" maskUnits="userSpaceOnUse" x="182" y="0" width="32" height="33">
<path d="M195.581 0.603758L182.423 17.697L200.778 32.3984L213.936 15.3052L195.581 0.603758Z" fill="white"/>
</mask>
<g mask="url(#mask13_5_13860)">
<path d="M194.445 -14.9985L167.288 20.2789L201.915 48.0131L229.072 12.7357L194.445 -14.9985Z" fill="url(#paint6_linear_5_13860)"/>
</g>
</g>
<path fill-rule="evenodd" clip-rule="evenodd" d="M26.4899 20.7399L34.9999 20.6399C34.8999 22.6699 33.7999 23.7999 33.2299 24.2899C31.8199 25.4299 29.8099 25.5199 28.8499 25.5199C27.4399 25.5199 26.2299 25.3199 24.9899 24.5599C24.1999 24.0799 23.2899 23.2699 22.8399 22.5899L22.4599 22.0099L19.6899 23.6299C20.4999 24.5899 21.7699 25.5499 23.0999 26.2299C25.1599 27.2699 27.0399 27.5199 29.3299 27.5199C31.7699 27.5199 35.5699 27.1599 38.3099 25.0699C40.2199 23.6099 41.0999 21.6099 41.0999 19.8399C41.0999 18.0699 40.2199 16.0499 38.3099 14.6099C35.9499 12.7899 32.4799 12.1499 29.3999 12.1499C27.3899 12.1499 25.5599 12.3499 23.6899 13.0699C22.1299 13.6199 20.9099 14.3899 19.6799 15.4899L22.4499 17.0899L23.1199 16.3599C23.6699 15.7299 24.5999 15.1399 25.4399 14.7899C26.5599 14.2799 27.7299 14.1299 28.9499 14.1299C31.4099 14.1299 32.8199 14.9399 33.6099 15.7299C34.1299 16.2299 34.8299 17.1899 34.9899 18.6599L26.4799 18.5299V20.7599L26.4899 20.7399Z" fill="white"/>
<path fill-rule="evenodd" clip-rule="evenodd" d="M139.21 13.9099C140.59 13.9099 142.17 14.2199 143.39 15.8099C144.37 17.0799 144.54 18.5399 144.54 19.8299C144.54 21.1199 144.38 22.5599 143.39 23.8499C142.17 25.4399 140.6 25.7499 139.21 25.7499C137.82 25.7499 136.24 25.4499 135.03 23.8499C134.05 22.5599 133.88 21.1199 133.88 19.8299C133.88 18.5399 134.05 17.0699 135.03 15.8099C136.24 14.2199 137.82 13.9099 139.21 13.9099ZM139.21 27.5199C141.79 27.5199 145.39 26.9099 147.81 25.0699C149.72 23.6299 150.63 21.5799 150.63 19.8299C150.63 18.0799 149.72 16.0399 147.81 14.5999C145.4 12.7499 141.8 12.1399 139.21 12.1399C136.62 12.1399 133.02 12.7499 130.59 14.5999C128.68 16.0399 127.8 18.0899 127.8 19.8299C127.8 21.5699 128.68 23.6199 130.59 25.0699C133.03 26.9199 136.66 27.5199 139.21 27.5199Z" fill="white"/>
<path fill-rule="evenodd" clip-rule="evenodd" d="M92.7501 16.21C93.2801 16.04 93.9001 15.93 94.5201 15.93H95.1701V23.49H94.5201C93.9001 23.49 93.2801 23.39 92.7501 23.21C92.2801 23.06 91.8501 22.86 91.5101 22.55C90.8701 22.02 90.3401 21.14 90.3401 19.69C90.3401 18.24 90.8701 17.39 91.5101 16.86C91.8501 16.56 92.2801 16.35 92.7501 16.2M102.74 25.34C105.82 25.13 107.45 24.37 108.31 23.82C109.93 22.78 110.68 21.31 110.68 19.69C110.68 17.57 109.36 16.3 108.31 15.59C106.85 14.61 104.8 14.2 102.74 14.07C102.19 14.02 101.64 14.02 101.09 14.02H100.49V12.02H94.9701V14.02H94.3901C93.8401 14.02 93.2901 14.02 92.7401 14.07C90.6601 14.2 88.6101 14.61 87.1701 15.59C86.1301 16.29 84.8101 17.56 84.8101 19.69C84.8101 21.31 85.5501 22.78 87.1701 23.82C88.0101 24.37 89.6401 25.13 92.7401 25.34C93.2401 25.36 93.7901 25.39 94.3901 25.39H94.9701V27.51H100.49V25.39H101.09C101.68 25.39 102.23 25.36 102.74 25.34ZM102.74 16.2C103.22 16.35 103.65 16.56 103.98 16.86C104.62 17.39 105.15 18.27 105.15 19.69C105.15 21.11 104.63 22.02 103.98 22.55C103.64 22.86 103.21 23.05 102.74 23.21C102.19 23.39 101.59 23.49 100.95 23.49H100.33V15.93H100.95C101.6 15.93 102.19 16.03 102.74 16.21" fill="white"/>
<path fill-rule="evenodd" clip-rule="evenodd" d="M72.21 13.9099C73.57 13.9099 75.17 14.2199 76.39 15.8099C77.37 17.0799 77.54 18.5399 77.54 19.8299C77.54 21.1199 77.37 22.5599 76.39 23.8499C75.17 25.4399 73.57 25.7499 72.21 25.7499C70.85 25.7499 69.22 25.4499 68.01 23.8499C67.03 22.5599 66.88 21.1199 66.88 19.8299C66.88 18.5399 67.03 17.0699 68.01 15.8099C69.22 14.2199 70.83 13.9099 72.21 13.9099ZM72.21 27.5199C74.77 27.5199 78.4 26.9099 80.81 25.0699C82.7 23.6299 83.58 21.5799 83.58 19.8299C83.58 18.0799 82.69 16.0399 80.81 14.5999C78.4 12.7499 74.77 12.1399 72.21 12.1399C69.65 12.1399 66 12.7499 63.59 14.5999C61.68 16.0399 60.79 18.0899 60.79 19.8299C60.79 21.5699 61.68 23.6199 63.59 25.0699C66 26.9199 69.63 27.5199 72.21 27.5199Z" fill="white"/>
<path fill-rule="evenodd" clip-rule="evenodd" d="M51.38 21.75H52.41C55.06 21.75 56.9 21.44 58.22 20.63C59.87 19.6 60.25 18.18 60.25 17.07C60.25 15.96 59.87 14.56 58.22 13.58C56.9 12.79 55.14 12.54 52.17 12.54H42.74V27.08H48.26V21.75H51.39H51.38ZM51.38 14.77C52.05 14.79 52.91 14.92 53.53 15.32C54.37 15.87 54.51 16.63 54.51 17.09C54.51 17.55 54.39 18.36 53.48 18.94C52.86 19.37 52.09 19.5 51.38 19.55H48.25V14.74H50.81C50.98 14.74 51.17 14.74 51.38 14.77Z" fill="white"/>
<path fill-rule="evenodd" clip-rule="evenodd" d="M8.67 15.96L11.42 20.91H5.92L8.52 15.85H8.59L8.66 15.95L8.67 15.96ZM12.54 22.89L14.9 27.08H21.06L12.7 12.54H7.59L0 27.08H2.75L4.92 22.89H12.54Z" fill="white"/>
<path fill-rule="evenodd" clip-rule="evenodd" d="M149.75 14.74H155.68V27.08H161.2V14.74H167.14V12.54H149.75V14.74Z" fill="white"/>
</g>
<defs>
<linearGradient id="paint0_linear_5_13860" x1="169.242" y1="19.7659" x2="182.981" y2="32.3261" gradientUnits="userSpaceOnUse">
<stop stop-color="#C4161C"/>
<stop offset="0.3" stop-color="#ED1C24"/>
<stop offset="0.5" stop-color="#F8ABAD"/>
<stop offset="0.72" stop-color="#ED1C24"/>
<stop offset="1" stop-color="#C4161C"/>
</linearGradient>
<linearGradient id="paint1_linear_5_13860" x1="168.815" y1="14.2499" x2="191.924" y2="30.1133" gradientUnits="userSpaceOnUse">
<stop stop-color="white"/>
<stop offset="0.34" stop-color="white"/>
<stop offset="0.55" stop-color="white"/>
<stop offset="0.91" stop-color="#C7D2EC"/>
<stop offset="1" stop-color="#C7D2EC"/>
</linearGradient>
<linearGradient id="paint2_linear_5_13860" x1="172.076" y1="20.0905" x2="180.422" y2="27.7204" gradientUnits="userSpaceOnUse">
<stop stop-color="#00529B"/>
<stop offset="0.11" stop-color="#00529B"/>
<stop offset="0.5" stop-color="#7D97CD"/>
<stop offset="0.53" stop-color="#7492C9"/>
<stop offset="0.73" stop-color="#356FB0"/>
<stop offset="0.88" stop-color="#0E5AA0"/>
<stop offset="0.96" stop-color="#00529B"/>
<stop offset="1" stop-color="#00529B"/>
</linearGradient>
<linearGradient id="paint3_linear_5_13860" x1="184.556" y1="18.9595" x2="192.414" y2="23.7738" gradientUnits="userSpaceOnUse">
<stop stop-color="#C4161C"/>
<stop offset="0.5" stop-color="#ED1C24"/>
<stop offset="1" stop-color="#F8ABAD"/>
</linearGradient>
<linearGradient id="paint4_linear_5_13860" x1="196.387" y1="5.6707" x2="210.662" y2="16.6598" gradientUnits="userSpaceOnUse">
<stop stop-color="#C7D6EE"/>
<stop offset="0.07" stop-color="#C7D6EE"/>
<stop offset="0.12" stop-color="#AEC5E3"/>
<stop offset="0.21" stop-color="#709CC9"/>
<stop offset="0.35" stop-color="#0D5BA0"/>
<stop offset="0.37" stop-color="#00529B"/>
<stop offset="0.43" stop-color="#08579E"/>
<stop offset="0.52" stop-color="#1E66A7"/>
<stop offset="0.64" stop-color="#427EB6"/>
<stop offset="0.77" stop-color="#759FCB"/>
<stop offset="0.91" stop-color="#B5CAE6"/>
<stop offset="0.95" stop-color="#C7D6EE"/>
<stop offset="1" stop-color="#C7D6EE"/>
</linearGradient>
<linearGradient id="paint5_linear_5_13860" x1="199.168" y1="0.668719" x2="213.676" y2="11.8368" gradientUnits="userSpaceOnUse">
<stop stop-color="white"/>
<stop offset="0.17" stop-color="white"/>
<stop offset="0.23" stop-color="#F8FAFC"/>
<stop offset="0.31" stop-color="#E7ECF6"/>
<stop offset="0.35" stop-color="#D9E0F1"/>
<stop offset="0.47" stop-color="#ECF0F8"/>
<stop offset="0.59" stop-color="#FAFBFD"/>
<stop offset="0.7" stop-color="white"/>
<stop offset="1" stop-color="white"/>
</linearGradient>
<linearGradient id="paint6_linear_5_13860" x1="190.776" y1="10.9398" x2="204.304" y2="21.3537" gradientUnits="userSpaceOnUse">
<stop stop-color="#F8ABAD"/>
<stop offset="0.06" stop-color="#F8ABAD"/>
<stop offset="0.1" stop-color="#F7A5A8"/>
<stop offset="0.16" stop-color="#F69799"/>
<stop offset="0.22" stop-color="#F47E82"/>
<stop offset="0.28" stop-color="#F15C61"/>
<stop offset="0.34" stop-color="#EE3037"/>
<stop offset="0.37" stop-color="#ED1C24"/>
<stop offset="0.46" stop-color="#D0171E"/>
<stop offset="0.52" stop-color="#C4161C"/>
<stop offset="0.61" stop-color="#D0171E"/>
<stop offset="0.75" stop-color="#ED1C24"/>
<stop offset="0.96" stop-color="#F8ABAD"/>
<stop offset="1" stop-color="#F8ABAD"/>
</linearGradient>
<clipPath id="clip0_5_13860">
<rect width="217" height="34" fill="white"/>
</clipPath>
</defs>
</svg>
