<svg width="187" height="147" viewBox="0 0 187 147" fill="none" xmlns="http://www.w3.org/2000/svg">
<path d="M122.113 75.6142C156.535 74.4526 177.109 60.1267 177.109 43.4777C177.109 25.6671 154.557 11.3412 115.783 11.3412H110.243L121.717 0.5H104.704L77.0087 10.954H32.6957C17.2652 10.954 8.56087 14.8259 5 21.7953H96C121.322 21.7953 137.939 25.6671 137.939 42.3162C137.939 60.5139 117.761 63.9986 96 63.9986H55.2478L91.6478 102.33C122.509 134.079 150.996 139.5 187 139.5L122.113 75.6142Z" fill="white"/>
<path d="M6.08 139.5V130.892C7.2 130.988 8.544 131.02 9.44 131.02C14.912 131.02 17.504 127.628 17.504 123.98C17.504 120.492 15.616 117.036 9.216 117.036C7.808 117.036 4.608 117.1 3.36 117.1V139.5H6.08ZM9.472 119.596C13.024 119.596 14.624 121.292 14.624 123.948C14.624 126.764 12.64 128.46 9.344 128.46C8.224 128.46 7.168 128.396 6.08 128.3V119.66C7.136 119.628 8.576 119.596 9.472 119.596ZM18.6565 132.3C18.6565 136.62 21.7285 139.82 26.3365 139.82C30.9445 139.82 34.0165 136.62 34.0165 132.3C34.0165 127.98 30.9445 124.78 26.3365 124.78C21.7285 124.78 18.6565 127.98 18.6565 132.3ZM21.3765 132.3C21.3765 129.26 23.5205 127.18 26.3365 127.18C29.2165 127.18 31.2965 129.292 31.2965 132.3C31.2965 135.372 29.2165 137.42 26.3365 137.42C23.4565 137.42 21.3765 135.308 21.3765 132.3ZM37.7103 139.5H40.2703V129.292C40.8143 128.236 41.6143 127.244 43.2783 127.244C44.1423 127.244 44.5263 127.372 45.2303 127.788L46.1263 125.388C45.6463 125.036 45.0703 124.844 43.8863 124.844C42.0623 124.844 41.0063 125.708 40.2703 126.796V125.1H37.7103V139.5ZM48.2653 134.028C48.2653 137.708 49.5453 139.756 52.7773 139.756C54.3773 139.756 55.6892 139.18 56.4573 138.54L55.6573 136.556C55.1453 136.94 54.3773 137.356 53.3853 137.356C51.5613 137.356 50.8253 136.044 50.8253 133.772V127.5H56.1053V125.1H50.8253V121.1H48.2653V134.028ZM60.6345 128.14C61.7865 127.532 62.8425 127.084 64.6025 127.084C67.4505 127.084 67.8665 128.94 67.8665 131.628C66.9065 130.924 65.4025 130.7 64.2825 130.7C61.1785 130.7 58.8425 132.332 58.8425 135.276C58.8425 138.06 60.6345 139.724 63.2585 139.724C65.6265 139.724 67.0025 138.732 67.8665 137.644V139.5H70.2985V130.668C70.2985 126.924 68.8585 124.78 64.7625 124.78C62.9705 124.78 61.2425 125.292 59.9625 126.092L60.6345 128.14ZM64.1545 137.42C62.4905 137.42 61.5625 136.524 61.5625 135.148C61.5625 133.484 63.0985 132.78 64.6345 132.78C65.8825 132.78 66.9705 133.1 67.8665 133.74V135.564C67.1305 136.428 66.0425 137.42 64.1545 137.42ZM74.5853 135.66C74.5853 138.444 75.6733 139.756 77.8493 139.756C79.3533 139.756 80.4733 139.276 81.2413 138.668L80.6653 136.716C80.1853 137.036 79.5453 137.356 78.8413 137.356C77.6253 137.356 77.1453 136.46 77.1453 134.508V117.1H74.5853V135.66Z" fill="white"/>
</svg>
