<svg width="206" height="259" viewBox="0 0 206 259" fill="none" xmlns="http://www.w3.org/2000/svg">
	<path d="M132.557 96.1894C171.517 94.7019 194.804 76.3565 194.804 55.0362C194.804 32.2284 169.278 13.883 125.391 13.883H119.122L132.109 0H112.852L81.5044 13.3872H31.3478C13.8826 13.3872 4.03043 18.3454 0 27.2702H103C131.661 27.2702 150.47 32.2284 150.47 53.5487C150.47 76.8524 127.63 81.3148 103 81.3148H56.8739L98.0739 130.401C133.004 171.058 165.248 178 206 178L132.557 96.1894Z" fill="white"/>
	<circle cx="27.5" cy="231.5" r="27.5" fill="#D0112B"/>
	<path d="M17.4332 244H24.7772V234.784H26.5052L31.7252 244H39.5012L33.3452 233.344C36.0452 232.3 37.9892 230.248 37.9892 226.576V226.432C37.9892 220.996 34.2452 218.26 27.5132 218.26H17.4332V244ZM24.7772 229.996V223.804H27.1892C29.5652 223.804 30.8612 224.632 30.8612 226.72V226.864C30.8612 228.952 29.6372 229.996 27.1532 229.996H24.7772Z" fill="white"/>
	<path d="M70.416 247H73.104V230.728H86.352V228.52H73.104V214.888H89.952V212.68H70.416V247ZM95.9539 247H98.5459V209.896H95.9539V247ZM106.595 247H109.139V221.896H106.595V247ZM107.843 216.52C108.851 216.52 109.618 215.704 109.618 214.696C109.618 213.736 108.851 212.92 107.843 212.92C106.835 212.92 106.019 213.736 106.019 214.696C106.019 215.704 106.835 216.52 107.843 216.52ZM126.98 256.024C133.7 256.024 138.548 252.712 138.596 245.32V221.896H136.052V227.32C134.612 224.248 131.828 221.512 126.884 221.512C120.26 221.512 115.22 226.696 115.22 233.848V234.184C115.22 241.48 120.164 246.184 126.548 246.184C131.204 246.184 134.708 243.112 136.052 240.088V245.224C136.052 251.416 132.308 253.864 126.932 253.864C121.7 253.864 119.012 251.656 118.34 248.44H115.748C116.372 252.472 119.732 256.024 126.98 256.024ZM126.788 244.024C121.796 244.024 117.86 240.376 117.86 234.136V233.752C117.86 227.512 121.748 223.672 127.124 223.672C132.356 223.672 136.1 227.32 136.1 233.656V234.04C136.1 240.328 131.876 244.024 126.788 244.024ZM146.483 247H149.027V231.784C149.027 226.504 153.155 223.72 157.331 223.72C161.795 223.72 164.291 226.072 164.291 231.4V247H166.835V231.544C166.835 224.392 163.235 221.512 157.907 221.512C153.443 221.512 150.179 224.056 149.027 226.792V209.896H146.483V247ZM181.571 247.336C183.107 247.336 184.067 247.096 184.883 246.808V244.648C184.019 244.936 183.011 245.176 181.715 245.176C179.411 245.176 177.971 243.784 177.971 240.76V224.056H184.547V221.896H177.971V216.184H175.427V221.896H171.731V224.056H175.427V240.952C175.427 244.984 177.587 247.336 181.571 247.336Z" fill="white"/>
</svg>